<svg xmlns="http://www.w3.org/2000/svg" width="776" height="496" fill="none"><mask id="a" width="502" height="497" x="0" y="-1" maskUnits="userSpaceOnUse" style="mask-type:alpha"><path fill="#F4F4F4" d="M501.244 477.435c0 10.253-8.312 18.565-18.564 18.565H18.565C8.312 496 0 487.688 0 477.435V18.565C0 8.312 8.312 0 18.565 0H482.68c10.252 0 18.564 8.312 18.564 18.564v458.871z"/></mask><g mask="url(#a)"><path fill="#F4F4F4" d="M501.244 477.435c0 10.253-8.312 18.565-18.564 18.565H18.565C8.312 496 0 487.688 0 477.435V18.565C0 8.312 8.312 0 18.565 0H482.68c10.252 0 18.564 8.312 18.564 18.564v458.871z"/><path fill="#fff" d="M-21.633 37.704h307.644c16.001 0 28.995 13.004 28.995 29.018v426.519H-50.621V66.722c0-16.014 12.994-29.018 28.995-29.018h-.006z"/><path fill="#FED67A" d="M45.483 368.761c0 38.075 30.96 68.94 69.153 68.94h69.153v-68.94c0-38.075-30.961-68.94-69.153-68.94-38.192 0-69.153 30.865-69.153 68.94zm-.001 137.881c0-38.075-30.96-68.941-69.153-68.941h-69.153v68.941c0 38.074 30.961 68.94 69.153 68.94 38.193 0 69.153-30.866 69.153-68.94zm138.307 0c0 38.074-30.961 68.94-69.153 68.94H45.483v-68.94c0-38.075 30.96-68.941 69.153-68.941 38.192 0 69.153 30.866 69.153 68.941zM-92.824 368.761c0-38.075 30.961-68.94 69.153-68.94h69.153v68.94c0 38.075-30.96 68.94-69.153 68.94-38.192 0-69.153-30.865-69.153-68.94z"/><path fill="#766DF1" d="M286.761 37.704H-22.367c-15.601 0-28.246 12.655-28.246 28.27v15.548h365.627V65.973c0-15.614-12.645-28.269-28.247-28.269h-.006z"/><path fill="#222" d="M315.006 494.857c-.89 0-1.613-.724-1.613-1.615V65.973c0-14.696-11.948-26.653-26.639-26.653H-22.374c-14.685 0-26.633 11.957-26.633 26.653v427.262a1.615 1.615 0 1 1-3.227 0V65.973c0-16.479 13.393-29.883 29.86-29.883h309.128c16.466 0 29.866 13.404 29.866 29.883v427.262c0 .892-.723 1.615-1.614 1.615v.007z"/><path fill="#fff" d="M15.534 66.346a5.83 5.83 0 0 0 0-8.24 5.82 5.82 0 0 0-8.233 0 5.83 5.83 0 0 0 0 8.24 5.819 5.819 0 0 0 8.233 0zm24.662-2.787a5.822 5.822 0 1 0-11.333-2.677 5.822 5.822 0 1 0 11.333 2.677zm223.83-7.159H70.697v11.653h193.329V56.4z"/><path fill="#222" d="M197.69 83.144H-50.62a1.615 1.615 0 0 1 0-3.23h248.31a1.615 1.615 0 0 1 0 3.23zm44.271 26.05h-61.954c-11.96 0-21.655 9.703-21.655 21.673v62.003c0 11.97 9.695 21.673 21.655 21.673h61.954c11.96 0 21.656-9.703 21.656-21.673v-62.003c0-11.97-9.696-21.673-21.656-21.673z"/><path fill="#fff" d="M230.168 130.919h-46.979v15.103h8.618v-6.473h14.872v44.645h-6.455v8.631h21.527v-8.631h-6.455v-44.645h14.872v6.473h8.617v-15.103h-8.617zm-93.16 141.263L147 282.711l22.237 6.189s10.302-1.706 2.685-8.359l-21.049-11.919-13.865 3.566v-.006z"/><path fill="#222" d="m169.147 290.554-23.011-6.402-12.187-12.842 17.157-4.406 21.753 12.325.123.11c2.717 2.371 3.789 4.626 3.201 6.706-.975 3.423-6.106 4.367-6.687 4.464l-.349.058v-.013zm-21.288-9.277 21.443 5.969c1.517-.323 3.512-1.163 3.776-2.099.2-.704-.581-1.925-2.097-3.282l-20.333-11.518-10.58 2.72 7.791 8.21zM-113.497 173.48c3.202-8.069 10.418-13.547 18.57-18.049 7.747-4.283 16.054-7.759 22.812-13.469 8.863-7.487 14.769-18.566 25.077-23.883 18.203-9.393 41.782 3.069 60.379-5.517 10.87-5.019 17.415-16.046 25.8-24.6A69.378 69.378 0 0 1 64.3 71.6c7.01-2.617 14.608-4.09 22.011-3.01 12.38 1.802 22.579 10.329 32.055 18.514 3.292 2.842 6.674 5.807 8.52 9.748 3.221 6.88.943 12.5-2.472 18.34-3.421 5.846-3.711 12.564-3.834 19.186-.284 14.78-1.168 29.535-2.046 44.289-.407 6.828-.846 13.792-3.37 20.155-3.13 7.888-9.204 14.193-15.278 20.11-6.945 6.757-14.156 13.353-22.411 18.417-9.818 6.028-20.882 9.748-32.048 12.591-33.198 8.449-68.654 9.406-101.554-.149-7.178-2.08-14.233-4.664-20.836-8.152-10.335-5.465-23.761-13.198-28.582-24.406-5.022-11.667-10.38-22.649-9.67-35.762.162-2.92.762-5.569 1.717-7.985v-.006z"/><path fill="#222" d="M-111.942 173.906c3.886-9.58 13.6-14.955 22.308-19.464 4.984-2.584 10.05-5.077 14.672-8.281 4.37-3.037 8.075-6.751 11.574-10.737 6.506-7.409 12.787-15.362 22.714-18.081 9.663-2.642 19.94-.898 29.75-.239 9.98.672 20.314.303 28.97-5.297 8.598-5.562 14.29-14.29 21.204-21.622 7.48-7.94 16.853-14.102 27.181-17.636 5.81-1.983 11.954-3.12 18.112-2.558 5.306.485 10.386 2.416 15.008 5.007 4.744 2.655 9.075 5.982 13.239 9.457a245.509 245.509 0 0 1 6.235 5.355c1.956 1.745 3.892 3.586 5.325 5.795 3.098 4.78 3.008 10.084.626 15.129-1.194 2.533-2.756 4.839-3.75 7.468-1.02 2.681-1.536 5.517-1.846 8.366-.665 6.085-.484 12.286-.704 18.398-.232 6.421-.555 12.842-.91 19.257-.355 6.447-.658 12.907-1.168 19.347-.458 5.834-1.356 11.744-3.989 17.035-2.453 4.916-5.99 9.154-9.779 13.088a210.644 210.644 0 0 1-12.658 12.08c-4.35 3.825-8.927 7.39-13.884 10.394-5.055 3.062-10.444 5.53-15.989 7.558-11.193 4.096-22.98 6.79-34.733 8.676-12.032 1.932-24.245 2.81-36.431 2.545-23.49-.523-47.727-5.077-68.493-16.44-8.217-4.496-16.97-9.755-22.346-17.668-1.369-2.016-2.343-4.186-3.312-6.415-1.136-2.616-2.285-5.226-3.356-7.868-2.149-5.31-4.021-10.782-4.854-16.467-.788-5.407-.717-11.046 1.278-16.188.749-1.938-2.369-2.778-3.111-.859-4.254 10.962-.768 23.553 3.414 33.979 1.111 2.771 2.305 5.504 3.492 8.236 1.04 2.384 2.027 4.748 3.46 6.919 2.731 4.121 6.339 7.545 10.238 10.549 3.944 3.043 8.204 5.653 12.554 8.062 4.957 2.752 10.025 5.22 15.33 7.229 11.684 4.418 24.025 7.151 36.4 8.727 24.753 3.153 50.07 1.124 74.262-4.825 11.722-2.888 23.425-6.673 33.804-12.965 10.121-6.137 19.016-14.484 27.194-22.979 3.873-4.018 7.539-8.378 10.095-13.378 2.828-5.517 3.951-11.57 4.506-17.694.581-6.479.852-12.991 1.213-19.483.375-6.654.71-13.314.956-19.981.232-6.272.038-12.636.723-18.882.309-2.823.916-5.679 2.046-8.288 1.155-2.662 2.82-5.052 3.918-7.752 2.156-5.336 1.885-11.086-1.117-16.053-2.84-4.69-7.468-8.166-11.599-11.654-8.346-7.029-17.654-13.98-28.705-15.73-11.89-1.886-24.16 2.241-34.346 8.197A71.283 71.283 0 0 0 39.14 85.65c-3.737 3.637-6.997 7.707-10.386 11.66-3.37 3.928-6.894 7.869-11.14 10.873-4.138 2.919-8.786 4.696-13.782 5.458-10.34 1.576-20.849-.672-31.209-.885-5.048-.103-10.192.239-15.046 1.712-4.925 1.492-9.256 4.186-13.065 7.623-3.82 3.449-7.061 7.468-10.457 11.318-3.575 4.057-7.358 7.79-11.89 10.768-9.385 6.176-20.326 9.807-28.852 17.3-3.641 3.204-6.558 7.055-8.392 11.564-.329.814.362 1.763 1.13 1.989.917.265 1.659-.323 1.988-1.13l.019.006z"/><path fill="#6AD9C5" d="m-52.743 135.366-98.126 120.691 104.568 73.999 163.727-122.597-43.216-32.093-31.602-21.867-60.56-26.68-34.79 8.547z"/><path fill="#fff" d="m161.614 267.834 17.905.678c2.337.091 4.596 1.04 6.178 2.765 1.536 1.673 2.317 3.831-1.13 5.575-1.226.62-2.595.911-3.963.911h-22.56L147 270.321l14.614-2.494v.007z"/><path fill="#222" d="M180.599 279.384h-23.051l-14.794-9.974 18.751-3.198 18.074.685c2.82.11 5.486 1.305 7.307 3.282 1.368 1.492 1.936 2.984 1.671 4.438-.264 1.479-1.362 2.713-3.259 3.675-1.401.711-3.028 1.086-4.693 1.086l-.006.006zm-22.063-3.23h22.063c1.168 0 2.285-.252 3.233-.736.904-.459 1.466-.956 1.543-1.37.071-.387-.245-.995-.871-1.673-1.24-1.35-3.086-2.17-5.054-2.242l-17.738-.671-10.47 1.783 7.287 4.916.007-.007z"/><path fill="#6AD9C5" d="M-27.75 198.713c20.206 0 36.586-16.394 36.586-36.616 0-20.221-16.38-36.615-36.586-36.615s-36.586 16.394-36.586 36.615c0 20.222 16.38 36.616 36.586 36.616zm121.447 73.229c20.206 0 36.586-16.393 36.586-36.615s-16.38-36.615-36.586-36.615-36.586 16.393-36.586 36.615 16.38 36.615 36.586 36.615z"/><path fill="#6AD9C5" d="m57.111 235.328 5.048 67.784h68.124v-67.784H57.111z"/><path fill="#fff" d="m62.159 303.112 34.385 156.24-.962 11.111c-1.013 11.738 8.23 21.829 20.003 21.829h84.404s7.39-2.016 0-8.069l-61.128-21.512-7.332-106.221-1.252-53.385H62.152l.007.007z"/><path fill="#222" d="M200.209 493.907h-84.617a21.749 21.749 0 0 1-15.988-7.035 21.765 21.765 0 0 1-5.623-16.544l.943-10.866-34.766-157.965h71.707l1.291 54.922 7.255 105.123 60.391 21.254.22.181c3.008 2.461 4.247 4.715 3.789 6.886-.613 2.881-4.002 3.882-4.383 3.992l-.207.058-.012-.006zM64.173 304.727l34.01 154.522-.98 11.357a18.515 18.515 0 0 0 4.789 14.082 18.505 18.505 0 0 0 13.607 5.989h84.158c.639-.226 1.755-.801 1.897-1.492.065-.298.058-1.409-2.459-3.534l-61.856-21.77-7.411-107.352-1.213-51.809H64.18l-.007.007z"/><path fill="#222" d="M153.861 493.907a1.615 1.615 0 0 1-1.607-1.479c-.91-11.073-23.986-11.215-24.218-11.215a1.615 1.615 0 0 1 0-3.23c1.071 0 26.277.162 27.433 14.18a1.62 1.62 0 0 1-1.479 1.744h-.135.006zm30.901 0a1.617 1.617 0 0 1-1.582-1.305c-.096-.472-2.459-11.124-18.299-11.396a1.615 1.615 0 0 1-1.588-1.64 1.608 1.608 0 0 1 1.64-1.59c18.557.317 21.385 13.87 21.41 14.006a1.616 1.616 0 0 1-1.278 1.892c-.103.02-.206.026-.31.026l.007.007z"/><path fill="#6AD9C5" d="m-64.336 162.097 7.862 78.695 67.492-5.465-2.182-73.23h-73.172z"/><path fill="#fff" d="m-56.474 240.793 6.7 61.285c3.66 33.469 42.66 49.871 69.106 29.064l87.959-69.206 29.557 11.305 45.494-7.758c2.22-.381 4.079-2.016 4.544-4.225.4-1.912-.187-4.18-3.867-5.918a5.72 5.72 0 0 0-2.601-.542l-39.555 1.176a4.477 4.477 0 0 1-4.602-4.342l-.22-7.428a4.472 4.472 0 0 1 3.163-4.406l14.652-4.47s9.405-3.87 0-7.901c-9.404-4.031-49.708 3.585-49.708 3.585l-93.143 35.853v-31.537l-67.485 5.465h.006z"/><path fill="#222" d="M-7.004 342.007c-5.829 0-11.722-1.169-17.39-3.553-15.117-6.356-25.205-19.89-26.987-36.201l-6.88-62.933 70.886-5.743v30.936l91.091-35.064.142-.026c1.665-.317 40.897-7.662 50.644-3.482 1.285.549 5.183 2.222 5.158 5.355-.026 3.243-4.319 5.175-5.177 5.524l-.142.051-14.653 4.471a2.86 2.86 0 0 0-2.02 2.816l.219 7.429c.02.762.343 1.473.898 1.996a2.85 2.85 0 0 0 2.039.775l39.556-1.175a7.355 7.355 0 0 1 3.337.697c5.047 2.391 5.144 5.86 4.757 7.714-.587 2.777-2.937 4.98-5.855 5.484l-45.932 7.83-29.111-11.137-87.244 68.637c-8.055 6.337-17.609 9.599-27.336 9.599zm-47.682-99.742 6.52 59.632c1.652 15.129 11.012 27.681 25.025 33.573 14.02 5.898 29.524 3.798 41.479-5.608l88.683-69.767 29.995 11.473 45.061-7.681c1.62-.278 2.924-1.467 3.241-2.959.225-1.059.154-2.642-2.976-4.128a4.109 4.109 0 0 0-1.859-.387l-39.555 1.175a6.002 6.002 0 0 1-4.351-1.653 6.072 6.072 0 0 1-1.91-4.251l-.22-7.429a6.11 6.11 0 0 1 4.305-6.001l14.569-4.451c1.452-.62 3.111-1.848 3.118-2.539 0-.368-.672-1.273-3.202-2.358-7.307-3.133-37.438 1.557-48.631 3.663L9.404 269.216v-32.138l-64.09 5.194v-.007z"/><path fill="#222" d="M-7.94 276.096a1.609 1.609 0 0 1-1.498-1.02 1.62 1.62 0 0 1 .903-2.1l26.788-10.633a1.619 1.619 0 0 1 2.098.905 1.62 1.62 0 0 1-.904 2.099L-7.341 275.98a1.583 1.583 0 0 1-.593.116h-.007zm-142.93-20.039-40.013 38.786-13.775 28.631-3.305 168.818h85.978l10.651-54.645 18.46 54.645h95.83l-54.64-157.036 5.383-5.2-104.568-73.999z"/><path fill="#fff" d="M33.268 185.999c-7.023-5.781-8.037-16.163-2.26-23.198l26.175-31.86 25.438 20.93-26.174 31.861c-5.777 7.028-16.15 8.042-23.18 2.261v.006z"/><path fill="#222" d="M43.69 191.367c-4.176 0-8.184-1.434-11.45-4.121-7.7-6.337-8.818-17.765-2.485-25.472l27.2-33.107 27.93 22.985-27.2 33.107a17.965 17.965 0 0 1-12.213 6.518c-.6.058-1.194.084-1.788.084l.007.006zm13.71-58.152-25.154 30.614c-5.202 6.33-4.286 15.717 2.04 20.923a14.748 14.748 0 0 0 10.876 3.314 14.743 14.743 0 0 0 10.031-5.355l25.154-30.614-22.946-18.882z"/><path fill="#fff" d="M104.379 99.707s21.256 83.766-24.244 73.54c-43.435-9.761-39.194-41.04-39.194-41.04s3.325-54.767 42.183-41.802c0 0 20.339 5.232 21.255 9.308v-.006z"/><path fill="#222" d="M87.34 175.728c-2.357 0-4.88-.304-7.566-.905-11.677-2.622-21.056-7.041-27.885-13.126a1.617 1.617 0 0 1-.129-2.281 1.613 1.613 0 0 1 2.279-.129c6.41 5.717 15.31 9.884 26.445 12.384 8.36 1.88 14.86.51 19.306-4.063 15.795-16.254 3.15-66.99 3.021-67.5-.6-1.751-9.992-5.543-20.094-8.14l-.11-.032c-9.062-3.024-16.814-2.423-23.05 1.79-15.104 10.206-16.995 38.294-17.014 38.578l-.013.116c-.007.065-.827 6.654 2.498 14.484l.38.897-3.35 4.077a1.61 1.61 0 0 1-2.272.219 1.613 1.613 0 0 1-.219-2.274l2.117-2.577c-3.117-7.939-2.453-14.438-2.362-15.2.116-1.835 2.188-30.026 18.415-41.002 7.094-4.8 15.789-5.536 25.833-2.203.593.155 5.383 1.415 10.36 3.153 9.966 3.482 11.657 5.756 12.012 7.351.536 2.113 13.194 52.966-3.847 70.504-3.796 3.909-8.746 5.866-14.762 5.866l.006.013z"/><path fill="#222" d="M42.846 120.114s26.658 2.862 39.613-19.412c0 0 6.455 21.447 25.645 19.528 19.191-1.912 1.233-26.176 1.233-26.176s-28.73-22.933-49.896-12.3c-21.158 10.64-16.595 38.36-16.595 38.36z"/><path fill="#222" d="M105.715 121.975c-13.955 0-21.004-11.938-23.599-17.727-13.839 19.962-39.18 17.507-39.445 17.475a1.616 1.616 0 0 1-1.433-1.777 1.616 1.616 0 0 1 1.775-1.434c.258.026 25.787 2.455 38.045-18.618l1.872-3.21 1.07 3.559c.252.821 6.313 20.155 23.941 18.392a1.62 1.62 0 0 1 1.769 1.447 1.621 1.621 0 0 1-1.446 1.77c-.871.084-1.723.129-2.543.129l-.007-.006z"/><path fill="#fff" d="M50.405 123.544s-8.41-16.518-14.388-10.872c-5.977 5.652-6.196 21.286-1.44 22.28 4.758.989 12.626.246 12.626.246l3.202-11.654z"/><path fill="#222" d="M41.096 137.078c-2.291 0-4.809-.129-6.842-.549-1.291-.265-3.02-1.292-3.976-4.671-1.685-5.956-.058-15.93 4.634-20.362 1.388-1.311 3.053-1.841 4.816-1.537 5.945 1.027 11.502 11.641 12.115 12.842a1.613 1.613 0 1 1-2.872 1.467c-2.04-3.999-6.506-10.562-9.792-11.131-.768-.129-1.4.084-2.046.698-3.757 3.553-5.119 12.274-3.744 17.138.38 1.357.968 2.268 1.53 2.384 4.46.93 12.07.226 12.148.22a1.614 1.614 0 0 1 1.755 1.453 1.61 1.61 0 0 1-1.452 1.757c-.194.02-2.988.278-6.267.278l-.007.013z"/><path fill="#222" d="M43.633 128.777c-4.887 0-7.107-5.239-7.604-8.153a1.621 1.621 0 0 1 1.317-1.867c.877-.155 1.71.44 1.865 1.318.045.252 1.084 5.846 4.848 5.446a1.611 1.611 0 0 1 1.775 1.434 1.616 1.616 0 0 1-1.433 1.777 8.156 8.156 0 0 1-.768.045zM11.016 242.408c-.89 0-1.614-.724-1.614-1.615v-39.348a1.615 1.615 0 1 1 3.228 0v39.348c0 .891-.723 1.615-1.614 1.615zm51.142 62.312a1.613 1.613 0 0 1-1.607-1.492l-.4-5.349a1.614 1.614 0 1 1 3.221-.239l.4 5.349c.065.891-.6 1.667-1.491 1.731h-.123zm68.126 0a1.615 1.615 0 0 1-1.614-1.615v-22.778c0-.891.723-1.615 1.614-1.615.89 0 1.613.724 1.613 1.615v22.778c0 .892-.723 1.615-1.613 1.615zM79.695 138.015c1.451 0 2.628-2.097 2.628-4.684 0-2.586-1.177-4.683-2.627-4.683-1.451 0-2.628 2.097-2.628 4.683 0 2.587 1.177 4.684 2.627 4.684zm22.541 0c1.451 0 2.628-2.097 2.628-4.684 0-2.586-1.177-4.683-2.628-4.683-1.45 0-2.627 2.097-2.627 4.683 0 2.587 1.177 4.684 2.627 4.684zm-31.492-12.643c-.432 0-.865-.174-1.18-.516a1.615 1.615 0 0 1 .077-2.281c.284-.265 7.1-6.505 14.484-2.732a1.612 1.612 0 0 1 .704 2.17 1.616 1.616 0 0 1-2.17.704c-5.389-2.758-10.766 2.164-10.817 2.216-.31.291-.704.433-1.098.433v.006zm37.947 1.777a1.69 1.69 0 0 1-.678-.149c-2.311-1.072-6.745-2.551-8.824-1.964a1.617 1.617 0 0 1-.878-3.113c3.906-1.105 10.341 1.809 11.064 2.144a1.616 1.616 0 0 1-.684 3.082zm-16.117 6.524c-.064 3.663.684 7.429 3.13 10.272 1.169 1.356 2.602 2.396 3.583 3.921.433.678 1.827 2.991.4 3.282-.852.174-1.349 1.188-1.13 1.989.246.892 1.13 1.305 1.989 1.131 2.24-.459 3.227-2.849 2.872-4.923-.355-2.073-1.833-4.057-3.266-5.536-1.375-1.421-2.801-2.577-3.524-4.49-.678-1.815-.865-3.727-.826-5.652.038-2.08-3.19-2.08-3.228 0v.006zm-8.121 16.648c-.704 2.842-.265 5.982 1.361 8.443 1.492 2.261 3.815 3.921 6.449 4.554.846.2 1.75-.265 1.988-1.13.226-.821-.278-1.783-1.13-1.99a8.933 8.933 0 0 1-.8-.226c-.103-.032-.207-.078-.316-.11-.49-.174.116.058-.155-.058a9.384 9.384 0 0 1-1.381-.775 7.39 7.39 0 0 1-1.02-.866 13.78 13.78 0 0 1-.504-.555c-.161-.188-.02-.013-.11-.136a6.619 6.619 0 0 1-.238-.342c-.626-.944-.943-1.758-1.156-2.888-.013-.052-.064-.401-.039-.207a5.439 5.439 0 0 1-.038-.458 8.856 8.856 0 0 1-.02-.827c.013-.646.052-.905.22-1.57.206-.846-.271-1.751-1.13-1.99-.826-.226-1.775.278-1.988 1.131h.007zm237.26 331.047 38.529-111.57c2.208-6.402-2.537-13.075-9.308-13.075h-155.6a4.271 4.271 0 0 0-4.073 2.978l-40.614 127.572H46.441a3.55 3.55 0 0 0-3.55 3.552 3.55 3.55 0 0 0 3.55 3.553h257.018a19.324 19.324 0 0 0 18.261-13.016l-.007.006z"/><path fill="#fff" d="m151.172 485.619 39.961-125.995a4.153 4.153 0 0 1 3.957-2.894c2.821 0 4.815 2.752 3.944 5.433l-41.53 127.965a6.167 6.167 0 0 1-5.868 4.263H46.429a3.55 3.55 0 0 1-3.55-3.552 3.55 3.55 0 0 1 3.55-3.553h102.464a2.372 2.372 0 0 0 2.266-1.661l.013-.006z"/><path fill="#222" d="M46.441 496a5.173 5.173 0 0 1-5.164-5.168 5.173 5.173 0 0 1 5.164-5.168h102.464a.76.76 0 0 0 .729-.536l39.962-125.995a5.747 5.747 0 0 1 5.493-4.025 1.615 1.615 0 0 1 0 3.23c-1.11 0-2.078.711-2.414 1.77l-39.962 125.995a3.978 3.978 0 0 1-3.808 2.784H46.441a1.94 1.94 0 0 0-1.936 1.938c0 1.066.871 1.938 1.936 1.938a1.615 1.615 0 0 1 0 3.23V496z"/><path fill="#fff" d="m258.031 430.321 8.03 15.033 14.491-15.033-9.133-15.458-13.388 15.458z"/><path fill="#222" d="M392.884 496H-248.08a1.615 1.615 0 0 1 0-3.23h640.964a1.615 1.615 0 0 1 0 3.23z"/><path fill="#766DF1" d="M271.043 290.355a2.295 2.295 0 0 1-2.296 2.294l-6.267.007a60.207 60.207 0 0 1-1.061 2.694 1.886 1.886 0 0 0 .402 2.086l3.499 3.484c.899.896.902 2.345.004 3.241l-5.647 5.646a2.304 2.304 0 0 1-3.249.003l-3.476-3.456c-.575-.571-1.442-.692-2.181-.356-.444.204-.898.391-1.356.564-.76.287-1.283.982-1.283 1.792l.007 4.891a2.292 2.292 0 0 1-2.293 2.293l-7.991.014a2.297 2.297 0 0 1-2.303-2.286l-.007-4.943a1.88 1.88 0 0 0-1.203-1.758 54.431 54.431 0 0 1-1.502-.605 1.891 1.891 0 0 0-2.091.405l-3.489 3.493a2.3 2.3 0 0 1-3.247.007l-5.663-5.624a2.29 2.29 0 0 1-.007-3.242l3.464-3.466c.573-.574.694-1.439.354-2.176a20.976 20.976 0 0 1-.565-1.349c-.288-.757-.989-1.28-1.8-1.276l-4.908.014a2.296 2.296 0 0 1-2.303-2.287l-.021-7.974a2.296 2.296 0 0 1 2.293-2.296l4.956-.014c.781 0 1.478-.474 1.762-1.201.18-.463.395-.999.607-1.498a1.885 1.885 0 0 0-.406-2.085l-3.506-3.477a2.29 2.29 0 0 1-.011-3.241l5.636-5.653a2.3 2.3 0 0 1 3.247-.007l3.482 3.453c.576.571 1.443.692 2.181.353.469-.215.94-.412 1.422-.592.76-.287 1.284-.979 1.284-1.788v-4.895c0-1.266 1.03-2.29 2.299-2.29h7.991a2.294 2.294 0 0 1 2.296 2.29v4.943a1.89 1.89 0 0 0 1.2 1.761c.465.18 1.002.398 1.502.609.714.304 1.54.148 2.091-.402l3.493-3.487a2.3 2.3 0 0 1 3.249 0l5.654 5.636a2.286 2.286 0 0 1 0 3.241l-3.469 3.459c-.575.574-.697 1.439-.36 2.176.204.443.392.896.565 1.353.284.757.985 1.279 1.797 1.279h4.904a2.29 2.29 0 0 1 2.299 2.287l.007 7.974.014-.018zm-18.087-1.93a10.94 10.94 0 0 0-.191-4.853 11.616 11.616 0 0 0-2.813-5.006 10.824 10.824 0 0 0-.7-.671 11.042 11.042 0 0 0-3.35-2.034c-6.58-2.529-13.901 1.449-15.23 8.499a10.976 10.976 0 0 0-.02 3.909c.111.637.277 1.263.495 1.868a11.57 11.57 0 0 0 1.884 3.352 11.373 11.373 0 0 0 2.91 2.56c.558.343 1.155.637 1.779.875 6.583 2.529 13.901-1.453 15.229-8.499h.007z"/><path fill="#fff" d="M452.5 69.75c0 25.82 20.931 46.75 46.75 46.75H546V69.75C546 43.93 525.069 23 499.25 23S452.5 43.93 452.5 69.75zm0 93.5c0-25.819-20.931-46.75-46.75-46.75H359v46.75c0 25.819 20.931 46.75 46.75 46.75s46.75-20.931 46.75-46.75zm93.5 0c0 25.819-20.931 46.75-46.75 46.75H452.5v-46.75c0-25.819 20.931-46.75 46.75-46.75S546 137.431 546 163.25zm-187-93.5C359 43.93 379.931 23 405.75 23h46.75v46.75c0 25.82-20.931 46.75-46.75 46.75S359 95.57 359 69.75z"/></g><g clip-path="url(#b)"><path fill="#fff" d="M622.122 165.039H312.188c-10.508 0-19.041 8.499-19.041 18.965v310.683h348.015V184.004c0-10.466-8.532-18.965-19.04-18.965z"/><path fill="#222" d="M345.364 329.024h129.688c12.889 0 23.372-10.441 23.372-23.279v-65.112c0-12.838-10.488-23.279-23.372-23.279H345.364c-12.889 0-23.371 10.446-23.371 23.279v65.112c0 12.838 10.487 23.279 23.371 23.279zm129.688-109.178c11.505 0 20.865 9.322 20.865 20.782v65.112c0 11.46-9.36 20.783-20.865 20.783H345.364c-11.505 0-20.865-9.323-20.865-20.783v-65.112c0-11.46 9.36-20.782 20.865-20.782h129.688z"/><path fill="#fff" d="M481.293 439.855c12.688 0 23.652 10.246 23.652 22.889h29.538a3.587 3.587 0 0 0 3.595-3.58v-27.872c12.688 0 22.981-10.247 22.981-22.89s-10.288-22.889-22.981-22.889v-29.62a3.587 3.587 0 0 0-3.595-3.58h-104.03a3.587 3.587 0 0 0-3.594 3.58v103.266a3.587 3.587 0 0 0 3.594 3.581h27.378c0-12.639 10.773-22.89 23.467-22.89l-.005.005z"/><path fill="#222" d="M430.454 463.988h28.631v-1.248c0-11.73 10.172-21.636 22.213-21.636 12.042 0 22.4 9.906 22.4 21.636v1.248h30.791c2.672 0 4.848-2.167 4.848-4.829v-26.654c12.784-.649 22.975-11.215 22.975-24.102 0-12.888-10.196-23.454-22.975-24.103v-28.402c0-2.666-2.176-4.828-4.848-4.828h-104.03c-2.672 0-4.848 2.167-4.848 4.828v103.266c0 2.662 2.176 4.829 4.848 4.829l-.005-.005zm26.159-2.497h-26.159a2.339 2.339 0 0 1-2.341-2.332V355.893a2.34 2.34 0 0 1 2.341-2.332h104.03a2.34 2.34 0 0 1 2.341 2.332v30.869h1.253c11.977 0 21.723 9.707 21.723 21.636 0 11.929-9.746 21.641-21.723 21.641h-1.253v29.12a2.339 2.339 0 0 1-2.341 2.332h-28.32c-.697-12.528-11.801-22.884-24.871-22.884-6.497 0-12.663 2.507-17.366 7.056-4.431 4.289-7.003 9.871-7.319 15.828h.005z"/><path fill="#222" d="M339.624 406.111c0 12.638-10.287 23.558-22.98 23.558v29.421a3.587 3.587 0 0 0 3.594 3.58h27.984c0 12.638 10.287 22.889 22.976 22.889 12.688 0 22.981-10.246 22.981-22.889h29.738a3.588 3.588 0 0 0 3.595-3.58V355.474c0-1.978-1.61-3.58-3.595-3.58H320.238a3.586 3.586 0 0 0-3.594 3.58v27.268c12.688 0 22.98 10.731 22.98 23.374v-.005z"/><path fill="#222" d="M371.207 486.802c12.94 0 23.548-10.156 24.199-22.884h28.516c2.672 0 4.848-2.167 4.848-4.828V355.474c0-2.662-2.176-4.829-4.848-4.829H320.243c-2.672 0-4.848 2.167-4.848 4.829v28.516h1.253c11.776 0 21.728 10.132 21.728 22.126 0 11.994-9.947 22.31-21.728 22.31h-1.253v30.669c0 2.661 2.176 4.828 4.848 4.828h26.76c.652 12.733 11.26 22.884 24.199 22.884l.005-.005zm52.72-133.665a2.339 2.339 0 0 1 2.341 2.332v103.616a2.339 2.339 0 0 1-2.341 2.331h-30.992v1.249c0 11.929-9.746 21.636-21.728 21.636-11.981 0-21.722-9.707-21.722-21.636v-1.249h-29.237a2.338 2.338 0 0 1-2.341-2.331v-28.208c12.578-.694 22.98-11.754 22.98-24.771 0-6.472-2.516-12.613-7.083-17.297-4.307-4.414-9.912-6.976-15.892-7.29v-26.055a2.338 2.338 0 0 1 2.341-2.332h103.679l-.005.005z"/><path fill="#6AD9C5" d="m496.887 380.74-15.38 15.32-6.578-6.551a2.379 2.379 0 0 0-3.349 0l-6.562 6.536a2.356 2.356 0 0 0 0 3.335l14.654 14.596a2.598 2.598 0 0 0 3.664 0l23.462-23.369a2.354 2.354 0 0 0 0-3.335l-6.562-6.537a2.38 2.38 0 0 0-3.349 0v.005zM316.514 165.039h301.281c12.904 0 23.367 10.421 23.367 23.274v17.177H293.147v-17.177c0-12.853 10.463-23.274 23.367-23.274z"/><path fill="#222" d="M291.893 495.935h350.521V184.004c0-11.145-9.104-20.213-20.294-20.213H312.186c-11.189 0-20.293 9.068-20.293 20.213v311.931zm348.014-2.496H294.399V184.004c0-9.767 7.981-17.716 17.787-17.716H622.12c9.806 0 17.787 7.949 17.787 17.716v309.435z"/><path fill="#fff" d="M611.618 189.906c-3.555 0-6.437-2.87-6.437-6.411 0-3.541 2.882-6.412 6.437-6.412s6.437 2.871 6.437 6.412-2.882 6.411-6.437 6.411zm-23.397 0c-3.555 0-6.437-2.87-6.437-6.411 0-3.541 2.882-6.412 6.437-6.412s6.437 2.871 6.437 6.412-2.882 6.411-6.437 6.411zm-23.392 0c-3.555 0-6.437-2.87-6.437-6.411 0-3.541 2.882-6.412 6.437-6.412s6.437 2.871 6.437 6.412-2.882 6.411-6.437 6.411z"/><path fill="#222" d="M408.561 206.733h232.6a1.25 1.25 0 0 0 1.253-1.248 1.25 1.25 0 0 0-1.253-1.248h-232.6a1.25 1.25 0 0 0-1.253 1.248 1.25 1.25 0 0 0 1.253 1.248z"/><path fill="#fff" d="M346.343 177.083h196.815v12.818H346.343v-12.818z"/><path fill="#766DF1" d="m561.54 266.613-21.913 39.852 38.121 20.147 21.096-39.137-37.304-20.862z"/><path fill="#222" d="m578.892 397.507-9.335 97.245h56.384l19.938-44.94 1.494-52.305h-68.481z"/><path fill="#fff" d="m577.367 326.632-6.407 14.086c-9.159 20.133-39.008 16.024-42.342-5.832l-8.151-53.483-22.354-15.929s-2.482-3.715 1.609-5.557c0 0-1.329-4.409 3.003-5.013 0 0-.717-4.874 3.003-5.014l-18.83-10.116s-4.346-4.874 3.113-5.033l38.397 13.207-2.993-13.092a4.574 4.574 0 0 1 3.434-5.473 1.8 1.8 0 0 1 2.07 1.058l14.223 34.289 18.183 54.617 14.042 7.28v.005z"/><path fill="#222" d="M550.872 355.019c9.199 0 17.305-5.163 21.226-13.786l6.898-15.16-14.644-7.59-18.057-54.222-14.223-34.289a3.042 3.042 0 0 0-3.514-1.797c-3.123.729-5.084 3.849-4.372 6.965l2.492 10.906-36.477-12.549h-.225c-2.943.07-4.693.829-5.354 2.332-.943 2.147 1.093 4.519 1.328 4.784l.146.165 16.769 9.008a3.602 3.602 0 0 0-.271.294c-.982 1.179-1.188 2.776-1.193 3.86-1.278.424-2 1.173-2.396 1.788-.782 1.213-.802 2.601-.697 3.53-1.048.664-1.735 1.528-2.041 2.581-.616 2.142.642 4.115.788 4.335l.125.189.185.135 21.923 15.619 8.077 52.964c1.604 10.516 9.475 18.25 20.053 19.709 1.158.159 2.311.239 3.439.239l.015-.01zm24.86-27.827-5.915 13.007c-3.941 8.658-12.593 13.407-22.043 12.109-9.45-1.303-16.484-8.214-17.918-17.611l-8.232-54.003-22.569-16.083c-.236-.44-.587-1.339-.361-2.098.17-.584.692-1.073 1.544-1.458l.998-.449-.316-1.049c-.121-.414-.321-1.687.21-2.496.326-.5.903-.799 1.765-.919l1.248-.175-.18-1.243c-.075-.524-.131-2.227.566-3.056.181-.215.502-.499 1.244-.524l4.602-.17-22.67-12.179c-.466-.594-.963-1.538-.772-1.972.15-.345 1.002-.754 2.887-.824l40.312 13.866-3.489-15.284a3.336 3.336 0 0 1 2.496-3.98.55.55 0 0 1 .627.32l14.208 34.249 18.328 55.056 13.44 6.966h-.01z"/><path fill="#222" d="M510.968 275.052c.05 0 .105 0 .16-.01.361-.045 3.579-.505 4.833-2.487.541-.859.646-1.868.29-2.916-1.127-3.356-12.518-9.148-15.982-10.841a1.257 1.257 0 0 0-1.679.57 1.246 1.246 0 0 0 .571 1.672c6.653 3.256 14.168 7.775 14.714 9.393.141.424.06.639-.035.794-.491.779-2.281 1.243-3.023 1.338a1.249 1.249 0 0 0-1.088 1.393c.08.629.622 1.094 1.244 1.094h-.005z"/><path fill="#222" d="M515.063 271.287c.11 0 .225-.015.34-.045 3.921-1.104 5.049-3.266 5.299-4.884.351-2.242-.882-4.524-3.002-5.557l-14.434-7.011a1.256 1.256 0 0 0-1.674.574 1.242 1.242 0 0 0 .576 1.668l14.434 7.016c1.143.554 1.809 1.757 1.629 2.926-.206 1.303-1.384 2.272-3.504 2.866a1.254 1.254 0 0 0-.868 1.543c.156.549.657.909 1.209.909l-.005-.005z"/><path fill="#222" d="M518.311 264.002c.091 0 .186-.01.281-.03l.231-.055c2.155-.53 3.664-2.297 3.84-4.509.175-2.212-1.038-4.2-3.093-5.058l-13.366-5.603a1.255 1.255 0 0 0-1.639.664c-.271.634.03 1.368.667 1.633l13.365 5.602c1.264.53 1.634 1.668 1.564 2.562-.07.889-.616 1.957-1.945 2.282l-.19.045a1.249 1.249 0 0 0 .275 2.467h.01z"/><path fill="#766DF1" d="M559.229 280.189c-1.893-11.615 6.026-22.559 17.688-24.445 11.661-1.885 22.649 6.002 24.542 17.617 1.893 11.616-6.026 22.56-17.687 24.445-11.662 1.886-22.65-6.002-24.543-17.617z"/><path fill="#766DF1" d="m688.239 257.91-37.238-2.447-36.085-.554-30.947.554-5.079 142.044h111.149l-1.8-139.597z"/><path fill="#222" d="m690.041 397.507 1.699 97.245h-57.722l-12.629-63.535v-33.71h68.652z"/><path fill="#766DF1" d="M676.769 298.656c-10.915-4.503-16.098-16.966-11.577-27.838 4.521-10.871 17.034-16.034 27.949-11.531 10.915 4.503 16.098 16.967 11.577 27.838-4.521 10.872-17.034 16.035-27.949 11.531z"/><path fill="#766DF1" d="m704.268 269.789 21.677 44.165-38.637 19.629-21.381-44.88 38.341-18.914z"/><path fill="#222" d="M568.144 350.126h72.065c3.529 0 6.201-3.181 5.58-6.641l-8.518-47.282a5.66 5.66 0 0 0-5.58-4.649h-72.065c-3.529 0-6.201 3.181-5.58 6.642l8.518 47.281a5.66 5.66 0 0 0 5.58 4.649z"/><path fill="#222" d="M568.144 351.374h72.065a6.905 6.905 0 0 0 5.309-2.472 6.86 6.86 0 0 0 1.504-5.642l-8.517-47.281a6.909 6.909 0 0 0-6.813-5.678h-72.066c-2.055 0-3.99.899-5.309 2.472a6.865 6.865 0 0 0-1.504 5.642l8.518 47.282a6.907 6.907 0 0 0 6.813 5.677zm63.548-58.571a4.41 4.41 0 0 1 4.346 3.62l8.518 47.281a4.402 4.402 0 0 1-4.342 5.178h-72.065a4.405 4.405 0 0 1-4.347-3.62l-8.517-47.281a4.406 4.406 0 0 1 4.341-5.178h72.066z"/><path fill="#fff" d="M631.706 278.971c11.049 0 19.582-9.682 18.143-20.597l-3.97-30.165h-32.476v32.537c0 10.066 8.192 18.225 18.298 18.225h.005z"/><path fill="#222" d="M631.706 280.22c5.63 0 10.984-2.417 14.699-6.631a19.42 19.42 0 0 0 4.693-15.38l-4.116-31.253h-34.827v33.785c0 10.74 8.773 19.474 19.551 19.474v.005zm13.075-50.762 3.825 29.081a16.938 16.938 0 0 1-4.091 13.407 17.077 17.077 0 0 1-12.814 5.782c-9.399 0-17.045-7.615-17.045-16.977v-31.288h30.125v-.005z"/><path fill="#fff" d="M608.218 193.856s-13.981 18.799-6.472 35.487c7.51 16.688 44.132-1.133 44.132-1.133s2.532-36.417-6.287-38.743c-8.818-2.327-25.763-5.977-31.378 4.389h.005z"/><path fill="#222" d="M615.703 237.722c13.29 0 29.889-7.985 30.726-8.394l.652-.315.05-.719c.005-.089.632-9.287.165-18.65-.661-13.257-3.078-20.252-7.379-21.386-6.497-1.713-26.244-6.916-32.757 4.929-1.098 1.503-14.117 19.868-6.557 36.665 1.434 3.186 3.925 5.438 7.4 6.691 2.306.834 4.933 1.179 7.7 1.179zm28.976-10.331c-3.218 1.483-17.691 7.839-28.996 7.839-2.482 0-4.803-.304-6.828-1.033-2.853-1.029-4.803-2.787-5.966-5.363-7.129-15.834 6.201-34.05 6.337-34.234l.095-.15c3.72-6.876 13.521-8.109 29.954-3.775 5.595 1.473 6.282 22.989 5.404 36.721v-.005z"/><path fill="#222" d="M624.938 248.303c7.871-2.267 14.533-6.312 18.784-13.233 4.713-7.669 6.864-16.443 10.238-24.672 3.022-7.375 6.762-16.707 3.153-24.507-2.101-4.534-7.455-3.051-11.13-1.008-3.91-7.131-11.385-12.329-19.616-13.637-6.994-1.113-15.226-1.473-21.873 1.613-8.733 4.049-13.666 18.071-4.868 24.632 3.885 2.896 9.375 2.192 13.927 1.792 1.363-.119 16.383-2.302 16.283-2.696.867 3.286.707 7.45 3.073 10.166 1.233 1.418 3.384 2.247 5.128 1.483.502 4.924-1.102 16.683-7.073 18.54-2.372.734-4.718-.948-6.828-2.227-4.683-2.846-10.518-4.029-15.897-2.791-5.38 1.239-10.172 5.023-12.072 10.052-1.905 5.023-.637 11.15 3.429 14.775 6.537 5.832 17.692 3.93 25.347 1.723l-.005-.005z"/><path fill="#222" d="M624.602 247.099c5.048-1.468 9.911-3.77 13.761-7.405 4.276-4.039 6.833-9.497 8.939-14.895 1.148-2.941 2.17-5.932 3.238-8.908 1.043-2.916 2.216-5.777 3.349-8.658 2.131-5.413 4.316-11.555 3.158-17.447-.28-1.433-.697-3.096-1.604-4.274-.612-.794-1.409-1.188-2.436-1.328-.266-.035-1.018-.03-1.459.015-.451.045-1.073.184-1.609.339-1.184.34-2.246.819-3.329 1.413-.582.32-1.384.155-1.715-.449-3.995-7.22-11.35-11.929-19.466-13.157-4.432-.669-9.049-.979-13.506-.34-3.79.544-7.645 1.763-10.433 4.374-4.431 4.16-7.008 11.475-3.945 16.922.777 1.384 1.88 2.602 3.254 3.476 1.704 1.088 3.719 1.498 5.72 1.593 2.095.1 4.196-.095 6.281-.285.401-.035.802-.07 1.199-.12l.476-.06c.17-.02.2-.025-.01 0 .13-.02.265-.035.396-.055a381.84 381.84 0 0 0 7.545-1.113c2.181-.345 4.411-.619 6.552-1.169.1-.025.206-.064.311-.084.095-.02.155-.11-.03.02-.146.104-.161.074-.1.039.376-.224-.612.295-.577 1.029-.07-1.413 2.116-1.688 2.462-.329.641 2.491.701 5.118 1.584 7.549.737 2.033 2.707 4.19 5.073 3.226.827-.335 1.519.494 1.584 1.203.246 2.487-.005 5.039-.421 7.49-.471 2.797-1.278 5.653-2.752 8.104-1.454 2.417-3.935 4.684-6.974 4.33-2.18-.255-3.985-1.553-5.82-2.642a21.514 21.514 0 0 0-5.55-2.322c-3.79-.993-7.835-.928-11.515.47-3.173 1.203-6.036 3.455-7.816 6.346-3.584 5.822-1.88 13.852 4.232 17.227 2.892 1.598 6.276 2.027 9.54 1.977 3.414-.055 6.798-.649 10.101-1.483a88.498 88.498 0 0 0 2.297-.619c1.554-.444 2.215 1.963.666 2.407-3.379.969-6.828 1.713-10.332 2.042-3.544.33-7.254.215-10.653-.914-3.439-1.143-6.457-3.345-8.272-6.516-1.865-3.25-2.411-7.18-1.599-10.825 1.694-7.645 9.224-12.683 16.754-13.222 4.276-.305 8.628.734 12.403 2.721 1.8.949 3.474 2.412 5.499 2.841.371.08.772.1 1.148.04.196-.03.386-.095.572-.16.075-.025.145-.055.22-.08.196-.08-.25.13.076-.04a6.19 6.19 0 0 0 .712-.409c.3-.2.245-.16.546-.429.952-.859 1.524-1.748 2.126-2.952.606-1.203 1.052-2.541 1.413-3.929.687-2.637 1.008-5.138.973-7.88a16.386 16.386 0 0 0-.085-1.563l1.584 1.204c-3.133 1.278-6.382-1.069-7.68-3.825-1.294-2.751-1.319-5.797-2.061-8.693l2.462-.33c.055 1.099-1.153 1.348-1.976 1.528-1.098.235-2.205.419-3.313.609-2.868.48-5.746.914-8.623 1.328-2.562.365-5.119.674-7.711.809-2.255.115-4.577.06-6.772-.539a11.937 11.937 0 0 1-5.51-3.321c-5.264-5.572-3.905-14.295.426-19.983a18.747 18.747 0 0 1 3.92-3.859c1.69-1.224 3.65-2.038 5.64-2.642 4.733-1.433 9.816-1.538 14.709-1.088 2.362.219 4.758.499 7.064 1.073a29.247 29.247 0 0 1 6.327 2.402 28.938 28.938 0 0 1 10.101 8.678 25.175 25.175 0 0 1 1.695 2.677l-1.715-.45c2.126-1.168 4.547-2.137 7.009-2.137 2.532 0 4.747 1.288 5.84 3.595 2.863 6.057 1.529 12.998-.556 19.065-1.033 3.006-2.316 5.917-3.449 8.883-1.188 3.126-2.256 6.296-3.404 9.437-2.216 6.057-4.728 12.363-9.104 17.232-4.332 4.818-10.242 7.834-16.409 9.627-1.554.449-2.216-1.957-.667-2.407l.021-.005z"/><path fill="#fff" d="M642.86 210.189s7.374-9.607 12.212-2.482c3.008 4.429.431 10.366-1.945 14.221-2.061 3.335-6.643 4.294-9.701 1.838-.887-.71-1.599-1.663-1.925-2.942l1.364-10.63-.005-.005z"/><path fill="#222" d="M647.386 226.387a8.03 8.03 0 0 0 6.808-3.81c2.712-4.394 5.249-10.666 1.92-15.574-1.393-2.047-3.128-3.121-5.153-3.176-4.658-.145-8.914 5.368-9.094 5.598l-.206.264-1.439 11.2.061.23c.365 1.433 1.158 2.646 2.356 3.605a7.575 7.575 0 0 0 4.747 1.653v.01zm3.399-20.063h.101c1.193.035 2.22.714 3.148 2.082 2.582 3.805.351 9.098-1.975 12.868a5.547 5.547 0 0 1-3.77 2.541c-1.489.255-2.933-.104-4.076-1.023-.712-.574-1.183-1.249-1.439-2.062l1.289-10.037c1.178-1.433 4.135-4.369 6.727-4.369h-.005z"/><path fill="#fff" d="M639.115 334.766c-.256-1.308-.246-2.237-.246-2.237l-12.152 1.548c-2.747-1.153-1.529-3.635-.917-4.599a.219.219 0 0 0-.216-.334l-5.103.649c-6.367-1.728-2.622-5.917-2.622-5.917-4.748-1.089-1.549-5.208-1.549-5.208-1.535-1.029-1.489-2.811-1.294-3.875.095-.529.471-.959.978-1.133 3.514-1.234 19.792-7.545 24.449-7.106 0 0 9.18 6.067 15.451 15.479l3.038 2.597 28.385 8.958 38.637-19.629 15.446 37.375c6.432 15.569-9.455 31.013-24.926 24.228l-68.315-33.695c-4.352.165-8.202-2.841-9.034-7.101h-.01z"/><path fill="#222" d="M724.16 378.453c5.063 0 9.981-1.963 13.857-5.728 5.97-5.802 7.71-14.181 4.532-21.865l-15.963-38.628-39.389 20.013-27.648-8.724-2.712-2.316c-6.332-9.433-15.32-15.435-15.701-15.684l-.261-.175-.311-.03c-3.78-.355-13.686 3.041-22.875 6.406-.903.33-1.625.594-2.111.764a2.757 2.757 0 0 0-1.795 2.087c-.315 1.718.015 3.236.918 4.32-.481.913-.983 2.321-.497 3.685.296.834.893 1.483 1.77 1.947-.376.819-.647 1.897-.311 3.041.477 1.603 1.986 2.756 4.487 3.435l.241.065 3.524-.449c-.195.704-.261 1.493-.015 2.277.226.714.812 1.703 2.326 2.337l.311.13 11.175-1.424c.04.32.095.68.17 1.069.928 4.759 5.063 8.114 9.911 8.114h.075l68.09 33.58c2.683 1.178 5.465 1.753 8.202 1.753zm1.143-62.771 14.93 36.126c2.777 6.721 1.258 14.052-3.966 19.13-5.219 5.073-12.598 6.406-19.271 3.49l-68.571-33.82-.321.01c-3.79.145-7.039-2.416-7.755-6.091-.226-1.154-.226-1.983-.226-1.993v-1.423l-13.2 1.678c-.341-.185-.551-.405-.627-.649-.145-.455.076-1.224.567-1.997a1.473 1.473 0 0 0 0-1.573 1.477 1.477 0 0 0-1.429-.669l-4.853.619c-1.418-.42-2.306-1.009-2.506-1.668-.241-.799.461-1.848.732-2.152l1.373-1.568-2.03-.474c-.617-.14-1.389-.42-1.574-.929-.251-.684.391-1.848.742-2.302l.807-1.054-1.098-.744c-.912-.614-.917-1.757-.762-2.616a.24.24 0 0 1 .16-.185c.492-.17 1.224-.439 2.141-.779 4.763-1.748 17.135-6.281 21.346-6.281h.121c1.549 1.078 9.37 6.755 14.824 14.944l.095.145 3.364 2.876.246.075 28.871 9.113.456-.235 37.429-19.014-.015.01z"/><path fill="#222" d="M706.754 340.604c.536 0 1.037-.35 1.198-.889a1.252 1.252 0 0 0-.837-1.558l-24.144-7.25a1.248 1.248 0 1 0-.727 2.391l24.144 7.251c.12.035.24.055.361.055h.005zm-57.716 2.356c5.74 0 8.728-2.052 8.878-2.157a1.245 1.245 0 0 0 .301-1.737 1.261 1.261 0 0 0-1.74-.305c-.07.05-3.96 2.607-11.465 1.358a1.25 1.25 0 0 0-1.444 1.024 1.25 1.25 0 0 0 1.028 1.438c1.629.27 3.108.379 4.442.379zm-24.331-12.458c.085 0 .175-.01.266-.03l12.292-2.641a1.25 1.25 0 0 0 .963-1.483 1.254 1.254 0 0 0-1.489-.959l-12.293 2.642a1.247 1.247 0 0 0 .261 2.466v.005zm-6.847-5.378c.105 0 .205-.015.311-.04l16.157-4.109a1.242 1.242 0 0 0 .903-1.518 1.25 1.25 0 0 0-1.524-.899l-16.158 4.11a1.24 1.24 0 0 0-.902 1.518 1.25 1.25 0 0 0 1.213.938zm-1.55-5.208c.115 0 .231-.015.346-.05l14.649-4.214a1.247 1.247 0 1 0-.692-2.397l-14.649 4.215a1.244 1.244 0 0 0-.857 1.543c.16.544.662.903 1.203.903z"/><path fill="#fff" d="M634.016 496a1.25 1.25 0 0 0 1.233-1.493l-12.628-63.54a1.259 1.259 0 0 0-1.474-.983 1.25 1.25 0 0 0-.988 1.468l12.629 63.539a1.25 1.25 0 0 0 1.228 1.004V496z"/><path fill="#222" d="M551.713 285.732c.442 0 .873-.234 1.098-.649l3.033-5.512a1.244 1.244 0 0 0-.496-1.693 1.254 1.254 0 0 0-1.699.494l-3.033 5.513a1.243 1.243 0 0 0 .496 1.692c.19.105.396.155.601.155zm174.232 29.471a1.248 1.248 0 0 0 1.128-1.793l-7.79-15.874a1.254 1.254 0 0 0-1.675-.574 1.248 1.248 0 0 0-.576 1.668l7.79 15.874c.216.444.662.699 1.128.699h-.005zm-38.638 19.628a1.246 1.246 0 0 0 1.133-1.782l-9.35-19.629a1.254 1.254 0 0 0-1.669-.594 1.246 1.246 0 0 0-.597 1.663l9.35 19.628c.215.45.667.714 1.133.714zm-108.416 63.925H690.04c.691 0 1.253-.56 1.253-1.249 0-.689-.562-1.248-1.253-1.248H578.891a1.25 1.25 0 0 0-1.253 1.248c0 .689.561 1.249 1.253 1.249zm67.935-180.478c3.505 0 5.57-4.155 5.66-4.344.301-.62.04-1.369-.581-1.668a1.26 1.26 0 0 0-1.675.579c-.015.035-1.684 3.291-3.785 2.901a1.254 1.254 0 0 0-1.464.999 1.253 1.253 0 0 0 1.003 1.458c.291.055.572.08.842.08v-.005z"/><path fill="#fff" d="m602.408 321.939-4.532 8.433-8.166-8.433 5.148-8.674 7.55 8.674z"/><path fill="#222" d="M604.93 208.017c0 1.622.617 2.936 1.379 2.936s1.379-1.314 1.379-2.936c0-1.623-.617-2.936-1.379-2.936s-1.379 1.313-1.379 2.936zm11.155 0c0 1.622.616 2.936 1.378 2.936.762 0 1.379-1.314 1.379-2.936 0-1.623-.617-2.936-1.379-2.936s-1.378 1.313-1.378 2.936zm-9.958 12.388c-1.288-.734-1.774-2.267-1.489-3.67.306-1.493 1.484-2.581 2.472-3.655 1.99-2.172 3.8-4.769 3.474-7.855-.07-.669.627-1.248 1.253-1.248.737 0 1.183.574 1.254 1.248.305 2.922-1.018 5.673-2.773 7.925-.822 1.053-1.804 1.962-2.632 3.001-.406.509-1.052 1.663-.295 2.097 1.398.799.14 2.956-1.264 2.157z"/><path fill="#fff" d="M617.854 229.673c-.632 1.572-1.595 2.941-3.008 3.904-1.449.989-3.324 1.334-5.024.904-.636-.16-1.083-.904-.877-1.538.211-.654.862-1.043 1.544-.874l.261.06c.03.005.255.045.095.02-.18-.025.115.01.15.01.071 0 .141.005.211.01.175 0 .351-.005.531-.02.141-.01.096-.015-.015 0 .086-.015.176-.03.261-.05.155-.035.311-.075.466-.119.085-.025.171-.055.251-.085.025-.01.236-.095.1-.035-.155.065.115-.055.141-.07.065-.03.125-.065.19-.1.155-.085.306-.175.451-.275.055-.04.111-.08.166-.115-.141.1-.071.055.025-.025.115-.094.23-.199.336-.304a4.91 4.91 0 0 0 .315-.33l.166-.189c.085-.1.055-.07-.01.015.19-.26.371-.525.526-.804a6.22 6.22 0 0 0 .211-.405c.03-.06.055-.12.085-.185.145-.304-.095.24.03-.074.241-.605.847-1.094 1.544-.874.587.189 1.138.883.878 1.538v.01z"/><path fill="#222" d="M625.044 204.032c.35 0 .701-.145.952-.434a1.241 1.241 0 0 0-.13-1.758c-.201-.175-4.978-4.209-10.904-1.738a1.248 1.248 0 0 0-.672 1.633 1.257 1.257 0 0 0 1.639.669c4.472-1.867 8.147 1.194 8.302 1.323.236.2.527.3.813.3v.005zm-21.833 0c.311 0 .622-.115.862-.344 2.146-2.028 4.577-1.893 4.683-1.888a1.255 1.255 0 0 0 1.338-1.153 1.247 1.247 0 0 0-1.143-1.334c-.145-.015-3.619-.254-6.597 2.562a1.242 1.242 0 0 0-.045 1.763c.245.259.576.389.907.389l-.005.005zm-187.36-16.103h-92.108c-12.594 0-22.806 10.166-22.806 22.714 0 12.543 10.207 22.715 22.806 22.715h73.674c16.328 16.013 29.498 12.433 29.498 12.433-6.728-3.236-9.916-8.099-11.39-12.433h.326c12.593 0 22.805-10.167 22.805-22.715 0-12.543-10.207-22.714-22.805-22.714z"/><path fill="#fff" d="M404.24 217.025c-3.641 0-6.593-2.94-6.593-6.566 0-3.627 2.952-6.567 6.593-6.567s6.592 2.94 6.592 6.567c0 3.626-2.951 6.566-6.592 6.566zm-23.998 0c-3.641 0-6.593-2.94-6.593-6.566 0-3.627 2.952-6.567 6.593-6.567 3.64 0 6.592 2.94 6.592 6.567 0 3.626-2.952 6.566-6.592 6.566zm-24.004 0c-3.641 0-6.593-2.94-6.593-6.566 0-3.627 2.952-6.567 6.593-6.567s6.592 2.94 6.592 6.567c0 3.626-2.951 6.566-6.592 6.566zm-23.998 0c-3.641 0-6.593-2.94-6.593-6.566 0-3.627 2.952-6.567 6.593-6.567 3.64 0 6.592 2.94 6.592 6.567 0 3.626-2.952 6.566-6.592 6.566z"/><path fill="#FED67A" d="M454.681 271.167c-10.238 0-18.536-8.281-18.533-18.497.003-10.216 8.305-18.498 18.544-18.498 10.238 0 18.536 8.282 18.533 18.498-.003 10.216-8.305 18.497-18.544 18.497z"/><path fill="#222" d="M340.717 290.666h130.846c.692 0 1.253-.56 1.253-1.249a1.25 1.25 0 0 0-1.253-1.248H340.717a1.25 1.25 0 0 0-1.253 1.248c0 .689.561 1.249 1.253 1.249zm65.423 16.602h65.423a1.25 1.25 0 0 0 1.253-1.248 1.25 1.25 0 0 0-1.253-1.248H406.14a1.25 1.25 0 0 0-1.253 1.248 1.25 1.25 0 0 0 1.253 1.248z"/></g><path fill="#222" d="M272.334 496h502.375c.713 0 1.291-.622 1.291-1.388 0-.766-.578-1.388-1.291-1.388H272.334c-.712 0-1.291.622-1.291 1.388 0 .766.579 1.388 1.291 1.388z"/><path fill="#766DF1" d="m766.567 463.9 4.716 4.697 4.716-4.697-4.716-4.698-4.716 4.698z"/><path fill="#6AD9C5" d="m741.8 402.153 6.118 6.093 6.118-6.093-6.118-6.094-6.118 6.094z"/><path fill="#FED67A" d="m705.118 450.329 7.32 7.291 7.319-7.291-7.319-7.29-7.32 7.29z"/><defs><clipPath id="b"><path fill="#fff" d="M761.148 163.791H271.043V496h490.105z"/></clipPath></defs></svg>