    <svg width="147" height="146" fill="none" xmlns="http://www.w3.org/2000/svg" id="svg1151886686_509"><g clip-path="url(#svg1151886686_509_a)" fill="#fff"><path d="M96 48c0 26.51-21.49 48-48 48H0V48C0 21.49 21.49 0 48 0s48 21.49 48 48Zm0 96c0-26.51 21.49-48 48-48h48v48c0 26.51-21.49 48-48 48s-48-21.49-48-48Zm-96 0c0 26.51 21.49 48 48 48h48v-48c0-26.51-21.49-48-48-48S0 117.49 0 144Zm192-96c0-26.51-21.49-48-48-48H96v48c0 26.51 21.49 48 48 48s48-21.49 48-48Z"></path></g><defs><clipPath id="svg1151886686_509_a"><path fill="#fff" d="M0 0h147v146H0z"></path></clipPath></defs></svg>
