<svg version="1.1" id="vis_i3" xmlns="http://www.w3.org/2000/svg" x="0" y="0" viewBox="0 0 1280 1024" style="enable-background:new 0 0 1280 1024" xml:space="preserve"><style>#vis_i3 .st11{fill:#fff}#vis_i3 .st1{fill:#0a9396;fill:var(--c1)}#vis_i3 .st2{fill:#94d2bd;fill:var(--c2, var(--c1))}#vis_i3 .st3{fill:#ae2112;fill:var(--c3, var(--c2, var(--c1)))}#vis_i3 .st5{fill:#9a2226;fill:var(--c5, var(--c3, var(--c1)))}#vis_i3 .st6{fill:#bb3e04;fill:var(--c6, var(--c4, var(--c2, var(--c1))))}#vis_i3 .st8{fill:#bb3e04;fill:var(--c8, var(--c5, var(--c3, var(--c1))))}#vis_i3 .st9{fill:#bb3e04;fill:var(--c9, var(--c7, var(--c5, var(--c4, var(--c1)))))}#vis_i3 .st10{fill:#bb3e04;fill:var(--c10, var(--c8, var(--c6, var(--c4, var(--c2, var(--c1))))))}</style><path class="st0" style="fill:#f7f7f8" d="M0 0h1280v1024H0z"></path><path class="st11" d="m730.41 117.99-82.96.76-83.12-.76-84.24.72.94-4.28v-.27l-.73-3.31.73-3.31v-.27l-.73-3.31.75-3.41.79-9.87 5.13-8.41 6.39-7.5 9.07-3.79 9.49-2.27 70.89.76 70.68-.76 70.86.76 70.69-.76 70.85.76 9.77.77 8.38 5.15 7.47 6.41 3.77 9.11 2.28 9.59-.73 3.31v.27l.73 3.31-.73 3.31v.27l.73 3.31-.82 3.73-83.24.73-83.09-.75z"></path><path class="st11" d="m894.98 114.29-.67-3.03v-.82l.67-3.03-.67-3.03v-.82l.66-3.01-2.1-8.82-3.46-8.36-6.86-5.88-7.69-4.73-9.08-.71-70.72-.76-70.74.76-70.81-.76-70.73.76-70.57-.76-8.99 2.15-8.33 3.47-5.87 6.88-4.71 7.72-.76 9.44-.67 3.03.67 3.03v.82l-.67 3.03.67 3.03v.82l-.32 1.43 81.11-.69 83.07.76 83.01-.76 83.08.76 81.2-.71.28-1.21z"></path><path d="m674.28 354.44-17.66-16.63-16.32-17.46-17.22-16.2-16.32-17.45-16.25-15.43h-.6l-16.34 15.52-16.16 17.29-17.39 16.37-16.11 17.25L507 354.15l-26.66-.29.54-35.6-.76-50.01.76-50.28-.76-50.02.55-47.86.1-2.65 83.36-.71 83.12.76 82.96-.76 83.13.76 83.81-.73-.55 39.13.76 37.91-.76 38.24.76 37.9-.76 38.16.26 45.8h-95.64l-.56-6.09.74-4.57v-.2l-.74-4.58.75-4.62.01-.17-.34-3.2-.44-.41-19.86-.71-21.04.76-21.06-.76-40.81.01-.38.42.01.08-.15.15.52 3.78-.74 4.59-.03 9.27.01.04.01.22.72 6.71-4.82.05-18.74-.23zm55.77-148.08.75-1.07-.18-1.36-.57 2.43z"></path><path class="st11" d="m801.95 347.76.75-4.64-.74-4.59v-.2l.74-4.57-.53-4.94-21.46-.77-21.04.76-20.97-.76-23.41.01.07.48-2.88-.5-3.79.74h-.24l-3.79-.74-3.82.75h-.21l-4.56-.68.51 5.55-.01.16-.75 4.64.74 4.58v.2l-.74 4.58.75 4.94 6.91.25 1.08-.21h.24l1.63.32 3.66.13 2.33-.45h.21l3.52.52.04.27 22.68-.82 20.9.76 21.04-.76 21.67.77-.51-5.62-.02-.16z"></path><path class="st2" d="m767.54 375.55-64.21.76-64.29-.76-64.16.76-94.76-.39v-7.42l.24-15.91 71.97.78 64.57-.7 23.64.19 8.51.03 43.96.48 70.27-.76h133.57l.13 23.7-129.44-.76z"></path><path class="st5" d="m554.49 93.88.23-1.7-1.18-1.24-.3-.41-.89-1.64-3.5-1.14-1.68.81-.48.15-1.69.31-.81 1.51-.3.41-1.18 1.24.23 1.7v.51l-.25 1.85 2.17 2.99 1.83.34.48.15 1.55.74 1.55-.74.48-.15 1.69-.31.81-1.51.3-.41 1.18-1.24-.23-1.7-.01-.52z"></path><path class="st6" d="M508.43 93.88c.05.34-.18 1.85-.23 2.21.88.76 1.9 2.23 2.36 3.3l3.5 1.14c1.03-.62 2.8-1.19 3.99-1.3l2.17-2.99c-.27-1.18-.27-3.04 0-4.21l-2.25-3.1-3.77-1.23-3.64 1.19c-.46 1.07-1.48 2.54-2.36 3.3l.23 1.69z"></path><path d="m583.64 333.64-13.42.75-15.34-.12 8.29-7.7 6.24-7.34 7.12-6.08 6.28-7.36 7.42-6.46 7.41 6.46 6.05 7.13 7.33 6.29 6.1 7.19 8.52 7.96-15.22-.73-13.49.76-13.29-.75z"></path><path class="st2" d="M505.21 354.12c15.77-14.64 35.22-36.66 51.31-50.94 7.9-8.94 24.82-25.95 33.69-33.94 8.91 8.02 25.82 25.04 33.76 34.01 16.16 14.34 35.73 36.51 51.58 51.2-53.33-1.17-117.09.65-170.34-.33zm105.09-21.76 11.91.57.01-.02c-3.37-2.76-9.34-9.22-12.02-12.68l-7.33-6.29c-2.68-3.56-8.81-9.99-12.36-12.66h-.59c-3.56 2.63-9.68 9.15-12.38 12.68l-7.11 6.08c-2.74 3.5-8.83 10.1-12.25 12.91l.03.08c6.29.26 19.03-.15 25.33-.67 6.68.73 20.08.72 26.76 0z"></path><path class="st11" d="m802.25 328.68-41.33.73-42.94.04-3.7-.48-18.14.63.5 23.66h40.81l20.15-1.12 23.31-.01 21.04.75.3-24.2z"></path><path d="m482.84 368.5-3.8-.06.76-50.14-.76-50.09.76-50.2-.76-50.09.57-49.88 1.88-1.88 82.84-.71 83.07.76 83.01-.76 83.08.76 83.17-.73 1.91 1.93-.54 38.41.76 38-.76 38.14.76 38-.76 38.15-3.79-.07.76-38.07-.76-38 .76-38.14-.76-37.99.51-36.53-81.26.71-83.08-.76-83.01.76-83.08-.76-80.95.69-.55 47.96.76 50.1-.76 50.2.76 50.09-.74 50.2z"></path><path d="m693.18 355.91-70.38-.76-70.3.76-70.38-.76.04-3.81 70.34.76 70.3-.76 70.38.76 70.31-.76h133.06v3.81H763.51l-70.33.76z"></path><path d="m896.53 377.58-128.78-.76-64.21.76-64.28-.76-64.2.76-94.12-.38-1.89-1.9v-8.02h3.8v6.12l92.2.37 64.22-.76 64.28.76 64.2-.76 126.89.75-.37-65.66 3.8-.02.38 67.59-1.92 1.91z"></path><path class="st11" d="m577.43 245.71-.06-3.81 26.27-.44 12.82-1.91 12.17-4.81 12.24-4.74 11.21-7.22 11.46-6.9 3.65-3.47-.86-8.07v-.41l1.57-13.69 2.38-6.22 2.01-6.25.63-.91 7.53-5.93 1.61-.36 5.86 1.38 1.16.81 1.65 2.53.31.97.38 9.77-.17.87-5.59 12.29-.37.54-9.44 9.69-4.69 4.46.26 2.45 11.72 13.6 2.97 1.78 7.59.85 7.63-1.3 7.83-4.15 7.5-4.44 5.42-6.96 5.03-7.12 2.02-8.58 3.73.18 2.03 15.11 3.07 6.42 5.92 4.47 6.13 4.04 4.65.71 14.63 1.83 4.61-1.19.94 3.69-4.96 1.28-.71.04-15.04-1.88-5.11-.78-.75-.29-6.58-4.34-6.39-4.82-.57-.7-3.4-7.11-.17-.57-.75-5.6-5.29 7.48-5.69 7.31-.53.47-7.89 4.67-8.18 4.34-.57.19-8.19 1.39-.53.02-8.27-.92-.76-.26-3.59-2.15-.46-.39-12.31-14.28-.47-1.2-2.03 1.87-11.59 6.98-11.66 7.47-12.4 4.79-12.78 5-13.4 1.98-26.39.45zm92.68-41.58.53 4.97 2.54-2.41 9.15-9.4 5.26-11.57-.34-8.79-.95-1.45-4.24-1-6.35 5-1.87 5.79-2.33 6.09-1.4 12.77z"></path><path d="m674.53 355.53-33.81-.13-31.12-.26-102.66.27-1.33-3.27 16.65-16.19 16.17-17.3 17.39-16.37 16.16-17.29 17.13-16.27h2.61l17.03 16.17 16.31 17.45 17.22 16.2L658.61 336l17.23 16.23-1.31 3.3zm-64.92-4.19 31.13.26 28.98.11-13.8-13-16.33-17.46-17.22-16.2-16.32-17.46-15.65-14.85-15.74 14.95-16.16 17.3-17.39 16.37-16.15 17.28-13.33 12.97 97.98-.27z"></path><path d="M597.21 335.66H597l-13.28-.76-13.28.76-13.79-.11-1.27-3.3 7.15-6.64 6.29-7.38 7.12-6.08 6.26-7.35 6.97-6.07h2.49l7.16 6.27 6.05 7.13 7.33 6.29 6.09 7.17 7.15 6.65-1.38 3.3-13.55-.65-13.3.77zm-35.74-3.87 8.88.07 13.48-.76 13.28.76 13.48-.76 8.45.4-3.57-3.34-6.06-7.14-7.33-6.29-6.06-7.14-5.61-4.89-5.61 4.89-6.28 7.37-7.12 6.08-6.21 7.3-3.72 3.45zm156.46 22.99-20.89-.75-1.82-1.7-.46-4.31.01-.51.71-4.38-.71-4.38v-.61l.72-4.45-.44-4.82 1.89-2.08 42.01-.01 20.97.76 21.04-.76 20.89.75 1.82 1.7.46 4.31-.01.51-.71 4.38.71 4.38v.61l-.72 4.46.44 4.82-1.96 2.08-20.98-.75-21.04.76-20.9-.76-21.03.75zm-19.11-4.5 19.18.69 21.04-.76 20.9.76 21.04-.76 18.89.68-.26-2.91.02-.48.71-4.39-.71-4.38v-.61l.72-4.43-.26-2.42-19.18-.69-21.04.76-20.97-.76-39.87.01.27 2.99-.02.48-.71 4.39.71 4.38v.61l-.72 4.43.26 2.41z"></path><path d="m700.62 354.76-3.63-.63-1.56-1.59-.69-4.72.03-9.68.71-4.41-.63-4.66 2.16-2.14 3.88.58 3.59-.7h.72l3.55.69 3.56-.69.68-.01 3.63.63 1.56 1.59.69 4.72-.03 9.67-.71 4.42.63 4.64-2.16 2.14-3.88-.58-3.59.7h-.72l-3.55-.69-3.56.69-.68.03zm-1.64-4.15 1.93.33 3.58-.69h.72l3.55.69 3.55-.69.64-.01 1.7.25-.33-2.41.01-.56.74-4.55v-9.07l-.44-2.94-1.93-.33-3.58.69h-.72l-3.55-.69-3.55.69-.64.01-1.7-.25.33 2.42-.01.56-.73 4.54v9.07l.43 2.94zm199.4-217.52-3.79-.09.44-18.75v-6.63l-.75-3.43-1.44-12.57-3.42-8.25-6.86-5.88-7.69-4.73-9.08-.71-70.72-.76-70.74.76-70.81-.76-70.73.76-70.58-.76-8.99 2.15-8.33 3.47-5.86 6.88-4.71 7.72-.76 9.44-.7 3.17.74 10.26-.21 5.76-3.79-.14.2-5.66-.75-10.22.04-.55.73-3.32.74-9.5.27-.85 5.21-8.48 6.26-7.34.71-.52 9.18-3.8 9.83-2.29 70.77.76 70.73-.76 70.81.76 70.74-.76 70.95.77 9.6.75.84.28 8.45 5.22 7.32 6.28.52.72 3.69 8.92.13.51 1.46 12.74.78 3.75v6.89l-.43 18.79z"></path><path d="m513.81 104.39-4.95-1.61-1.08-.91-1.13-2.09-1.63-1.72-.51-1.57.32-2.36-.32-2.36.51-1.57 1.63-1.72 1.13-2.09 1.08-.91 4.95-1.61h1.17l4.95 1.61.95.69 3.06 4.22.35 1.37-.32 2.36.32 2.35-.35 1.37-3.06 4.22-1.19.75-2.33.43-2.14 1.03-1.41.12zm-3.05-5 3.5 1.14 1.68-.81.48-.15 1.83-.34 2.16-2.99-.25-1.85v-.51l.25-1.85-2.25-3.1-3.77-1.23-3.64 1.19-.89 1.64-.3.41-1.18 1.24.23 1.7v.51l-.23 1.7 1.18 1.24.3.41.9 1.65zm38.96 4.9h-1.64l-2.14-1.03-2.33-.43-1.19-.75-3.06-4.22-.35-1.37.32-2.36-.32-2.36.51-1.57 1.63-1.72 1.13-2.09 1.33-.97 2.33-.43 2.14-1.03 1.41-.09 4.95 1.61 1.08.91 1.13 2.09 1.63 1.72.51 1.57-.32 2.36.32 2.35-.51 1.57-1.63 1.72-1.13 2.09-1.33.97-2.33.43-2.14 1.03zm-4.67-5.06 1.83.34.48.15 1.55.74 1.55-.74.48-.15 1.69-.31.81-1.51.3-.41 1.18-1.24-.23-1.7v-.51l.23-1.7-1.18-1.24-.3-.41-.89-1.64-3.5-1.14-1.68.81-.48.15-1.69.31-.81 1.51-.29.41-1.18 1.24.23 1.7v.51l-.25 1.85 2.15 2.98z"></path><ellipse cx="480.23" cy="942.98" rx="224.9" ry="12.07"></ellipse><path d="M480.23 955.36c-110.71 0-225.22-4.63-225.22-12.38 0-7.75 114.51-12.38 225.22-12.38s225.22 4.63 225.22 12.38c-.01 7.75-114.52 12.38-225.22 12.38zm0-24.13c-134.34 0-224.59 6.08-224.59 11.75s90.25 11.75 224.59 11.75 224.59-6.08 224.59-11.75c0-5.68-90.25-11.75-224.59-11.75z"></path><path class="st3" d="M1030.08 186.74c-.95-.2-1.14-1.31-1.78-1.9-.5-.84-1.21-1.63-1.61-2.54-.38-.8-.14-1.71.01-2.51.2-.94.14-2.15 1.04-2.75 15.14-10.2 35.5-24.62 50.64-34.81 8.32-5.88 25.24-17.57 33.7-23.27 1.11-.66 2.52-.18 3.66.12 1.54-.21 2.07 1.44 2.87 2.41.47.94 1.47 1.75 1.5 2.88.08 1.03-.31 2.01-.44 3 1.24 1.07-17.4 12.42-17.73 13.03-14.89 10.54-35.59 24.46-50.47 35l-16.93 11.54c-.3.2-.65.32-1.02.32-1.17.03-2.29-.4-3.44-.52z"></path><path d="M1029.46 188.41c-1.18-.35-1.75-1.29-2.1-1.87-.08-.14-.21-.35-.27-.41l-.32-.39c-.17-.28-.36-.55-.56-.83-.39-.56-.84-1.18-1.15-1.92-.57-1.2-.33-2.44-.14-3.34l.04-.22c.04-.21.07-.39.1-.58.14-.96.34-2.41 1.7-3.31 7.57-5.1 16.6-11.36 25.34-17.43 8.71-6.04 17.72-12.29 25.28-17.38 8.38-5.93 25.41-17.68 33.7-23.27 1.72-1.03 3.55-.54 4.76-.22l.05.01c2.01-.06 3.06 1.55 3.64 2.44.14.22.28.44.44.63l.22.34c.09.19.27.43.45.68.51.7 1.2 1.65 1.23 2.95.07.84-.11 1.65-.28 2.37l-.12.55c.02.13.02.26.01.39-.1 1.51-1.27 2.79-14.07 11.16-1.72 1.13-3.49 2.29-4.09 2.73l-.05.08-.34.24c-7.44 5.27-16.48 11.48-25.22 17.48-8.76 6.02-17.81 12.24-25.26 17.51l-16.96 11.57c-.59.4-1.29.62-2 .63-.88.03-1.72-.15-2.46-.31-.39-.08-.78-.17-1.18-.21l-.19-.03c-.04.01-.12-.01-.2-.04zm.25-4.67c.3.33.52.68.69.97.06.09.13.22.19.31.43.06.83.15 1.23.23.6.13 1.16.25 1.65.23l17.01-11.55c7.44-5.26 16.5-11.5 25.27-17.52 8.66-5.95 17.61-12.1 25-17.33.43-.4 1.47-1.1 4.76-3.25 3.6-2.36 10.88-7.13 12.43-8.75.06-.39.13-.78.22-1.16.12-.54.23-1.01.2-1.41-.01-.29-.32-.71-.56-1.05-.21-.29-.45-.62-.66-.99-.2-.26-.39-.53-.56-.81-.18-.28-.49-.75-.64-.84l-.35.05-.65-.16c-.67-.18-1.59-.43-1.94-.22-8.2 5.53-25.19 17.26-33.59 23.2-7.58 5.1-16.58 11.34-25.28 17.38-8.75 6.07-17.8 12.34-25.39 17.46-.05.09-.12.57-.16.86-.04.27-.08.54-.13.79l-.04.21c-.08.41-.2.97-.11 1.16.2.45.5.88.82 1.34.2.27.4.56.59.85z"></path><path class="st3" d="M218.46 160.04c-.11 0-.22-.01-.33-.03l-3.28-.63c-.14-.03-.28-.07-.41-.13l-3.03-1.4c-.2-.09-.39-.23-.54-.39l-2.28-2.42c-.1-.1-.18-.22-.25-.34l-1.63-2.9c-.11-.2-.18-.42-.21-.64l-.41-3.3c-.02-.14-.02-.28 0-.43l.41-3.3c.03-.23.1-.44.21-.64l1.63-2.9c.07-.12.16-.24.25-.34l2.28-2.42c.15-.16.34-.3.54-.39l3.03-1.4c.13-.06.27-.11.41-.13l3.28-.63c.22-.04.45-.04.67 0l3.28.63c.14.03.28.07.41.13l3.03 1.4c.2.09.39.23.54.39l2.28 2.42c.1.1.18.22.25.34l1.63 2.9c.11.2.18.41.21.64l.41 3.3c.02.14.02.29 0 .43l-.41 3.3c-.03.22-.1.44-.21.64l-1.63 2.9c-.07.12-.16.24-.25.34l-2.28 2.42c-.16.16-.34.3-.54.39l-3.03 1.4c-.13.06-.27.1-.41.13l-3.28.63c-.12.02-.23.03-.34.03z"></path><path d="m218.46 137 3.28.63 3.03 1.4 2.28 2.42 1.63 2.9.41 3.3-.41 3.29-1.63 2.9-2.28 2.42-3.03 1.4-3.28.63-3.28-.63-3.03-1.4-2.28-2.42-1.63-2.9-.41-3.29.41-3.29 1.63-2.9 2.28-2.42 3.03-1.4 3.28-.64zm0-3.5c-.22 0-.45.02-.67.06l-3.28.63c-.28.05-.56.14-.82.26l-3.03 1.4c-.41.19-.78.45-1.09.78l-2.28 2.42c-.2.21-.37.44-.51.69l-1.63 2.9c-.22.39-.36.83-.42 1.28l-.41 3.3c-.04.28-.04.57 0 .86l.41 3.29c.06.45.2.88.42 1.28l1.63 2.9c.14.25.31.48.51.69l2.28 2.42c.31.33.68.59 1.09.78l3.03 1.4c.26.12.54.21.82.26l3.28.63c.44.08.89.08 1.33 0l3.28-.63c.28-.05.56-.14.82-.26l3.03-1.4c.41-.19.78-.45 1.09-.78l2.28-2.42c.2-.21.37-.44.51-.69l1.63-2.9c.22-.39.36-.83.42-1.28l.41-3.29c.04-.28.04-.57 0-.85l-.41-3.3c-.06-.45-.2-.88-.42-1.28l-1.63-2.9a3.42 3.42 0 0 0-.51-.69l-2.28-2.42c-.31-.33-.68-.59-1.09-.78l-3.03-1.4c-.26-.12-.54-.21-.82-.26l-3.28-.63c-.22-.05-.44-.07-.66-.07z"></path><path class="st2" d="M331.28 298.21c-.79-.25-.86-1.2-1.35-1.75-.35-.75-.89-1.48-1.15-2.28-.26-.71.02-1.45.22-2.12.25-.78.29-1.81 1.1-2.24 13.62-7.37 31.99-17.88 45.6-25.25 7.51-4.29 22.75-12.77 30.36-16.89.99-.47 2.14.05 3.08.4 1.32-.05 1.63 1.39 2.23 2.27.32.83 1.1 1.6 1.03 2.56-.02.88-.43 1.67-.61 2.5.96 1-15.7 9.06-16.03 9.55-13.44 7.68-32.05 17.74-45.48 25.42l-15.24 8.36c-.27.15-.58.21-.88.19-1.01-.07-1.91-.52-2.88-.72z"></path><path d="M330.62 299.57c-.97-.4-1.37-1.23-1.62-1.75-.06-.12-.15-.31-.19-.36l-.24-.36c-.12-.25-.26-.5-.4-.75-.29-.5-.61-1.07-.82-1.71-.39-1.06-.08-2.08.15-2.83l.05-.18c.05-.17.09-.32.13-.48.19-.8.48-2.01 1.71-2.66 6.81-3.68 14.95-8.24 22.82-12.64 7.85-4.39 15.97-8.93 22.77-12.61 7.56-4.32 22.9-12.85 30.36-16.89 1.54-.73 3.04-.17 4.04.21l.04.02c1.71.11 2.46 1.56 2.87 2.36.1.2.2.4.32.57l.16.31c.06.17.19.38.33.61.37.63.88 1.49.8 2.59-.01.71-.23 1.38-.43 1.98-.05.15-.1.3-.14.45 0 .11 0 .22-.02.33-.21 1.27-1.3 2.25-12.79 8.27-1.54.81-3.14 1.65-3.67 1.97l-.05.07-.3.17c-6.72 3.84-14.85 8.34-22.72 12.7-7.89 4.37-16.04 8.88-22.76 12.72l-15.26 8.38c-.53.29-1.14.42-1.74.37-.75-.05-1.44-.27-2.05-.46-.32-.1-.65-.21-.98-.27l-.16-.04-.21-.09zm.59-3.92c.23.3.38.61.5.87.04.08.09.2.14.28.36.09.69.19 1.02.29.49.16.96.3 1.38.33l15.3-8.36c6.71-3.84 14.88-8.36 22.77-12.73 7.8-4.32 15.86-8.78 22.52-12.58.39-.3 1.33-.8 4.28-2.35 3.23-1.7 9.77-5.13 11.21-6.37.08-.33.18-.65.28-.96.15-.45.27-.84.28-1.17.01-.25-.21-.63-.39-.93-.16-.27-.33-.56-.47-.89-.15-.24-.28-.48-.41-.73-.13-.25-.35-.68-.47-.76l-.3.01-.53-.19c-.55-.21-1.31-.49-1.62-.34-7.37 3.99-22.68 12.51-30.26 16.83-6.82 3.69-14.92 8.22-22.76 12.6-7.88 4.41-16.04 8.96-22.87 12.66-.05.07-.15.47-.2.71-.05.23-.11.45-.18.66l-.05.18c-.1.34-.24.8-.18.97.13.4.35.79.59 1.2.14.25.29.51.42.77z"></path><path class="st3" d="M130.02 434.79c-.14 0-.29.02-.43.05l-1.42.34c-.09.02-.18.05-.26.08l-1.36.55c-.27.11-.51.28-.7.5l-.95 1.1c-.06.07-.11.14-.16.22l-.77 1.23c-.15.25-.25.52-.27.81l-.11 1.44c-.01.09-.01.18 0 .27l.11 1.44c.02.29.11.57.27.81l.77 1.23c.05.08.1.15.16.22l.95 1.1c.19.22.43.39.7.5l1.36.55c.09.03.17.06.26.08l1.42.34c.28.07.58.07.86 0l1.42-.34c.09-.02.18-.05.26-.08l1.36-.55c.27-.11.51-.28.7-.5l.95-1.1c.06-.07.11-.14.16-.22l.77-1.23c.15-.25.25-.52.27-.81l.11-1.44c.01-.09.01-.18 0-.27l-.11-1.44c-.02-.29-.11-.57-.27-.81l-.77-1.23c-.05-.08-.1-.15-.16-.22l-.95-1.1a1.84 1.84 0 0 0-.7-.5l-1.36-.55c-.09-.03-.17-.06-.26-.08l-1.42-.34c-.14-.03-.28-.05-.43-.05z"></path><path d="m130.02 445.91 1.42-.34 1.36-.55.95-1.1.77-1.23.11-1.44-.11-1.44-.77-1.23-.95-1.1-1.36-.55-1.42-.34-1.42.34-1.36.55-.95 1.1-.77 1.23-.11 1.44.11 1.44.77 1.23.95 1.1 1.36.55 1.42.34zm0 3.6c-.29 0-.58-.03-.86-.1l-1.42-.34c-.18-.04-.36-.1-.53-.17l-1.36-.55a3.57 3.57 0 0 1-1.39-1l-.95-1.1c-.12-.14-.22-.28-.32-.43l-.77-1.23c-.31-.49-.49-1.05-.53-1.62l-.11-1.44c-.01-.18-.01-.36 0-.53l.11-1.44c.04-.57.23-1.13.53-1.62l.77-1.23c.1-.15.2-.3.32-.43l.95-1.1c.38-.44.86-.78 1.39-1l1.36-.55c.17-.07.35-.13.53-.17l1.42-.34c.57-.13 1.15-.13 1.72 0l1.42.34c.18.04.36.1.53.17l1.36.55c.54.22 1.02.56 1.39 1l.95 1.1c.12.14.22.28.32.43l.77 1.23c.31.49.49 1.05.53 1.62l.11 1.44c.01.18.01.36 0 .53l-.11 1.44c-.04.57-.23 1.13-.53 1.62l-.77 1.23c-.1.15-.2.3-.32.43l-.95 1.1c-.38.44-.86.78-1.39 1l-1.36.55c-.17.07-.35.13-.52.17l-1.42.34c-.29.06-.58.1-.87.1zM1118.14 943.81c0 7.03-81.3 12.72-181.59 12.72s-181.59-5.7-181.59-12.72c0-7.02 81.3-12.72 181.59-12.72 32.52 0 33.26-1.5 59.66-.45 1.42.06 33.04-2.46 34.44-2.4 1.56.07 17.3 7.54 17.3 7.54 50.11 2.26 70.19 3.55 70.19 8.03z"></path><path class="st2" d="M1198.91 701.34c-.11 0-.21-.01-.32-.03l-3.14-.6c-.14-.03-.27-.07-.39-.13l-2.9-1.34c-.2-.09-.37-.22-.52-.37l-2.19-2.32c-.09-.1-.18-.21-.24-.33l-1.56-2.78c-.11-.19-.18-.4-.2-.61l-.39-3.16c-.02-.14-.02-.27 0-.41l.39-3.16c.03-.22.1-.42.2-.61l1.56-2.78c.07-.12.15-.23.24-.33l2.19-2.32c.15-.16.32-.28.52-.37l2.9-1.34c.12-.06.26-.1.39-.13l3.14-.6c.21-.04.43-.04.64 0l3.14.6c.14.03.27.07.39.13l2.9 1.34c.2.09.37.22.52.37l2.19 2.32c.09.1.18.21.24.33l1.56 2.78c.11.19.17.4.2.61l.39 3.16c.02.14.02.27 0 .41l-.39 3.16c-.03.22-.1.42-.2.61l-1.56 2.78c-.07.12-.15.23-.24.33l-2.19 2.32c-.15.16-.32.28-.52.37l-2.9 1.34c-.13.06-.26.1-.39.13l-3.14.6c-.1.02-.21.03-.32.03z"></path><path d="m1198.91 679.26 3.14.6 2.9 1.34 2.19 2.32 1.56 2.78.39 3.16-.39 3.16-1.56 2.78-2.19 2.32-2.9 1.34-3.14.6-3.14-.6-2.9-1.34-2.19-2.32-1.56-2.78-.39-3.16.39-3.16 1.56-2.78 2.19-2.32 2.9-1.34 3.14-.6zm0-3.36c-.21 0-.43.02-.64.06l-3.14.6c-.27.05-.53.14-.78.25l-2.9 1.34c-.39.18-.75.44-1.04.75l-2.19 2.32c-.19.2-.35.42-.49.66l-1.56 2.78c-.21.38-.35.8-.4 1.23l-.39 3.16c-.03.27-.03.55 0 .82l.39 3.16c.05.43.19.85.4 1.23l1.56 2.78c.13.24.3.46.49.66l2.19 2.32c.3.31.65.57 1.04.75l2.9 1.34c.25.12.51.2.79.25l3.14.6c.42.08.86.08 1.28 0l3.14-.6c.27-.05.54-.14.79-.25l2.9-1.34c.39-.18.75-.44 1.04-.75l2.19-2.32c.19-.2.35-.42.49-.66l1.56-2.78c.21-.38.35-.8.4-1.23l.39-3.16c.03-.27.03-.55 0-.82l-.39-3.16c-.05-.43-.19-.85-.4-1.23l-1.56-2.78c-.13-.24-.3-.46-.49-.66l-2.19-2.32c-.3-.31-.65-.57-1.04-.75l-2.9-1.34c-.25-.12-.51-.2-.78-.25l-3.14-.6c-.23-.04-.44-.06-.66-.06z"></path><path class="st12" d="m899.91 294.68-.02-.01.03.03-.01-.02zm113.98 151.25 8.14-6.64 7.08-8.24 3.36-3.3-3.36 3.3-7.08 8.24-8.14 6.64-7.6 7.6.21-.15 7.39-7.45zm-35.23-49.19-8.79 13.34 8.79-13.34zm7.93 9.55-5.69-7.18-1.6-1.69 1.62 1.72 5.67 7.15zm-11.13 32.66-.35 5.27.25 1.06-.25-1.1.95-10.51.02-.08-.02.03-.6 5.33zm-50.31 40.2 5.29 2.91-5.29-2.91zm133.42 37.43.43 2.86 20.09-3.54-20.09 3.54-.43-2.86zm-108.11-74.36-9.12 16.52-2.77 4.2 2.77-4.2 9.12-16.52zm-12.2 21.2-.36.55.36-.55zm50.2-52.5-2.64 3.97-3.03 3.68v.01-.01l6.9-8.38-.16-.21-.64.48-.43.46zm-4.36 97.3 10.89 5.12.05.01-11.47-5.42.53.29z" style="fill:none"></path><path class="st1" d="m1114.19 437.58-2.82-3.35-11.61-15.7 11.61 15.7 2.82 3.35zm-33.49-42.55-.18-.25.16.22.02.03zm-44.09 28.64 5.95-9.17-5.95 9.17-4.15 4.08 4.15-4.08zm17.33-24.59-3.76 5.99-7.62 9.43 7.62-9.43 3.76-5.99zm14.6-20.56-4.18 6.67 4.18-6.67z"></path><path class="st7" d="m1128.35 452.47-16.02-19.01-14.85-20.08-15.81-19.11-13.99-19.01 1.25-1.99 7.57-9.36.11-.2 1.61-4.99.01-.32-1.13-4.9-.21-.33-4.57-3.54-2.96-1.59-.39-.05-6.34 1.46-.34.22-1.94 2.67-9.49 11.08-4.27-6.59-1.89-5.52-3.36-5.28-1.89-5.5-3.34-5.25-2.08-4.41 5.32.55h.11l2.54-.18 2.05.4.46-.12 1.6-1.36 1.89-.89.3-.38 1.01-4.34.38-1.97-.08-.42-2.23-3.52-.34-.25-2.15-.54-2.23-1.63-5.13-2.09-3.2-.45-2.19-1.61-.31-.11-4.26-.26-.4.13-1.66 1.41-1.89.89-.3.38-1.01 4.34-.36 1.89.12.46 1.37 1.64 1.86 5.27-6.21.91-.27.11-2.96 2.16-.2.25-.92 2.18-1.58 1.56-.17.39-.06 2.23-.9 2.03-.01.43.74 2.05 1.02 11.58 2.5 11.55 1.01 11.53.73 3.4-4.95 4.85-7.98 9.84-3.53 5.54-4.54 4.45-4.94 6-10.17-12.84-11.41-12.02-10.19-12.87-11.41-12.03-10.11-12.77-4.06-3.43-2.25-4 14.62-22.38 20.05-17.67 22.57-14.26 25.52-7.69 26.4-3.55 19.41 2.25 19.16 3.8 17.77 8.15 17.06 9.57 14.66 13.49 22.82 29.77 4.46 11.58 4.56 10.88 2.08 11.75 2.4 11.55-.18 11.92-5.39 38.65-18.08 33.62-14.02-20.15z" style="fill:#015f73;fill:var(--c7, var(--c4, var(--c2, var(--c1))))"></path><path class="st6" d="M1030.1 346.6c-.15-.18-2.12-4.07-2.34-4.02-3.7-1.91-9.88-2.99-13.84-4.31l-1.04-1.36.08-3.16c.74-.41 1.43-2.41 1.74-3.14l3.73-2.73c2.21-.3 6.63-1 8.82-1.4 1.97 1.08 5.97 3.16 7.99 4.14.9 2.38 3.76 7.05 5.23 9.15l2.2 6.4-2.45 1.53-5.5.75-4.62-1.85z"></path><path class="st6" d="M1041.97 332.5c-1.64.26-5.44-.06-7.1-.3-.32-.72-3.49-2.11-4.16-2.48l-3.48-1.86-.37-.06-2.83.48c-.1-.18-1.61-4.76-1.77-4.89l-1.7-2.03c.27-1.74 1.32-6.2 1.74-7.96 1.38-.48 3.6-1.89 4.61-2.96l5.5.33c.17.1 2.38 1.81 2.54 1.77l2.67.32 5.42 2.15c.09.06 2.4 1.79 2.45 1.74l2.5.62 3 4.74c-.27 1.72-1.31 6.17-1.73 7.91-1.4.48-3.63 1.91-4.65 2.99l-2.64-.51z"></path><path class="st2" d="M1018.55 388.96c-1.56-5.69-3.33-17.19-3.51-23.08l-2.5-11.55c-.26-2.06-.72-12.58-1.96-14.21l1.97-4.44c4.33 3.36 11.59 3.22 16.26 6.01.15.19 2.08 4.02 2.34 3.99l3.57 1.44.3.04 4.63-.63c.11.05 2.4-1.46 2.53-1.52l3.53 5.55 1.89 5.51 4.06 6.38c-2.45 2.36-12.21 16.1-14.43 19.11-3.98 4.56-14.3 16.5-17.45 21.47l-1.23-14.07zm-165.24-9.44 1.4 2.74c1.62.61 4.72 2.14 6.17 3.09 2.21-.42 7.55-.08 9.82.15l6.53-1.02c6.08.41 17 1.02 22.69-1.65.63-1.45 3.5-6.33 2.8-7.99-.72-1.4-2.67-5.26-3.92-6.22-5.25-1.13-12.83-2.61-18.21-2.08l-6.64-1.19-7.43.41c-2.1.27-8.56.99-10.43 1.92-1.52 1.47-2.97 6.92-3.52 8.91l.74 2.93z"></path><path class="st2" d="M890.48 286.03c-2.41-2.19-9.88-9.61-13.06-10.38l-4.02.23c-1.07.97-3.98 3.6-4.95 4.61l-.42 4.34c1.09 1.17 3.98 7.24 4.75 8.76l4.78 6.28 3.37 6.76c2.33 2.82 6.6 8.84 8.39 12.03.76.28 4.86 2 5.41 2.55.63.86 6.33 6.65 6.08 7.77-.4 3.36.03 10.26-3.33 12.35 1.61-.5 6.49 4.02 7.73 4.73.36.48 4.87 8.78 5.34 9.58 2.74 3.14 7.11 10.05 8.68 13.92 2.77 3.15 7.16 10.16 8.75 14.05l-3.29 1.69c-1.46-3.36-5.08-9.71-7.54-12.39-.39 2.71-2.11 8.22-3.11 10.8.71 3.01-.15 9.98-.66 13.02-.16 1.02-.08 6.63-.91 7.35-1.88 1.65-4.67 4.91-7 5.88-3.8.45-11.5.91-15.32.77-2.46-.73-8.27-.81-10.86-.67l-.02-3.72c2.6-.06 8.61-.19 11.05.67 3.56.12 10.7-.26 14.24-.7 1.26-1.04 3.7-3.24 4.84-4.41l.29-5.13-1.1-3.02-12.22-4.85c-5.65-.57-13.57-.07-19.19-.68l-6.53 1.02c-2.35-.24-7.73-.57-10.03-.12-1.81-.27-4.42-2.43-6.18-2.92-1.7 1.27-5.62 4.37-6.78 6.13l-.64 7 3.69 8.52c2.7 1.53 9.23 5.36 11.33 7.53l12.24 6.33 6.94 4.41 8 2.36c9.88 5.26 23.34 2.91 33.85 2.31l10.46-4.53 1.46 3.41-10.75 4.66c-.12.17-5.08.43-5.41.47 1.15 2.82 5.35 7.96 7.43 10.18l3.58 6.35c1.36 1.58 5.75 6.47 6.43 8.41 5.7-9.48 14.76-26.15 21.37-35.11 4.06-7.94 13.23-23.41 18.41-30.62-4.23-3.88-13.15-15.09-16.74-19.77l-11.41-12.03c-2.36-2.89-10.71-14.24-13.88-15.91-.25-.07-2.62-4.43-2.82-4.76l-3.25-3.61c-.25-.11-1.95-4.77-2.1-5.12l-2.84-4.31c-2.11-5.54-7.64-15.9-11.21-20.63-2.7-2.87-9.42-10.22-11.89-13.18l-5.3-3.89-4.13-4.77z"></path><path class="st2" d="M861.43 362.69c3.08-.53 9.78-1.03 12.96-1.03 2.42.52 8.01 1.52 10.43.98l11.69-.94c1.43-.47 5.47-4.34 6.64-5.31-.01-1.8-.13-6.08-.7-7.76l-4.8-3.56c-1.65-.01-4.77-.52-6.26-1.23-3.82-.52-16-.75-20.03-.84l-5.01.09c-2.05.86-4.11 1.67-6.2 2.43-.75 1.43-2.45 4.18-3.41 5.47.2 1.98.71 7.48 1.37 9.29l3.32 2.41z"></path><path class="st2" d="M971.35 385.45c-4.88-6.7-15.67-19.12-21.6-24.89l-10.22-12.91c-.14-.16-3.85-3.11-3.92-3.31-1.03-2.31-3.84-6.22-5.69-7.93-.17-.15-1.77-4.58-1.88-4.77l-2.88-4.37c-2.15-5.67-7.79-16.11-11.42-20.95l-7.88-8.55c-.15-.07-4.12-4.87-4.38-5.01l-5.2-3.81c-4.29-5.04-12.08-13.28-18.33-15.81l-5.55.32c-1.46 1.31-4.98 4.52-6.3 5.89l-.59 6.14c1.37 1.55 4.24 7.49 5.19 9.42l4.78 6.28 3.38 6.76c2.23 2.72 6.46 8.58 8.16 11.64l-2.73-.32-.18-.05-4.38-1.96-4.76-.55c-.22-.01-4.38-1.96-4.58-2.02-2.76-.19-8.29.02-11.04.39l-7.28 8.46.81 9.84 2.39 4.14c2.19.81 6.43 2.77 8.46 3.94-.93.42-4.26 1.64-5.28 2.01-.93 1.79-3.06 5.22-4.27 6.84.23 2.6.89 9.01 1.74 11.42l3.4 2.47c-.5-.06-4.26 1.21-4.81 1.37l-2.31 3.58-2.18 7.38c.29 2.09 1.77 5.87 2.9 7.65l.04.02c-2.09 1.5-6.22 4.96-7.68 7.08-1.43 10.1-.23 9.41 3.49 18.27 2.76 1.58 9.77 5.65 11.91 7.88 4.75 2.35 15.31 7.89 19.52 10.94 4.12 1.07 12.24 3.78 16.17 5.4 4.69.76 14.32.54 19.05-.02l3.84 6.82c2.7 2.7 6.97 8.67 8.54 12.16 2.56 2.59 6.81 8.37 8.29 11.7 7.05-10.69 15.95-28.17 23.63-38.54 4.25-8.39 13.99-24.53 19.44-32.19l-7.81-8.25zM913.74 377l-2.19 6.37c.48 2.66.3 7.9-.28 10.54l-.76-2.08-13.41-5.32 4.59-1.7 3.54-7.39-.08-3.23c-.96-1.97-3.36-6.45-5.07-7.84-1.51-.3-7.82-1.65-9.23-1.72 8.43-.04 8.85-2.05 14.78-7.16l-.17-5.93c2.31 5.24 8.03 11.19 10.23 16.46l-1.95 9z"></path><path class="st2" d="m854.6 324.39.68 8.25 1.69 2.93c2.11.74 6.33 2.83 8.31 3.93 7.51-.46 19.96-.14 27.42.85 4.95-2.98 3.8-5.95 4.37-10.89l-4.84-5.5-3.85-1.72c-.28-.04-5.08-.54-5.12-.68l-4.21-1.88c-.25-.04-5.09-.54-5.11-.68l-4.12-1.84c-2.32-.14-6.99-.02-9.29.3l-5.93 6.93z"></path><path class="st5" d="m1029.48 523.68-12.06-1.01-11.66-3.66-11.58-3.33-11.72-5.54-12.51-6.89-13.8-5.91-12.99-7.15-13.8-5.9-9.47-5.21 4.64-2.4 4.41-3.64.11-.13 10.19-15.46 9.12-16.52 10.29-15.62 9.12-16.52 10.56-15.99 2.76 2.9 1.7 1.8 10.24 12.93-2.5 1.89-.14.15-2.59 3.9-3 3.65-.09.14-6.15 13.74-.06.23-.59 5.11-.32 4.77.08.34 2.53 4.28 2.65 4.07.22.2 7.51 4.06.37.06 7.2-1.2.23-.09 6.26-4.04.06-.06.2-.14 7.34-7.39 8.07-6.59 7-8.15 7.39-7.26 5.87-9.05 7.61-9.41 6.56-10.47 7.62-9.42 6.02-9.6 14.3 19.42 15.77 19.06 14.85 20.07 15.99 18.96 13.72 19.81-1.06 1.97-27.11 27.96-34.98 16.91-38.2 6.72-12.18-1.35z" style="cursor: pointer;"></path><path class="st11" d="m982.07 453.77-2.91-4.48-2.84-4.8.98-10.81 6.38-14.25 12.33-15 4.41-4.32 3.58-5.55 8.06-9.95 5.63-5.51 2.07 9.57.97 10.98 3.43-4.71 12.08-14.09 11.02-15.13 12.08-14.09 2.36-3.23 7.65-1.76 3.52 1.87 5.29 4.09 1.39 6.03-1.87 5.8-7.67 9.49-6.56 10.47-7.62 9.42-6.56 10.46-7.63 9.43-5.83 9.04-7.54 7.41-6.97 8.15-8.15 6.66-7.57 7.6-6.85 4.42-8.18 1.37-8.48-4.58zM879.47 318.51l-.18-.05-6.92-.8 3.3-2.43-16.24-22.37-16.65-25.46-17.62-24.26-16.65-25.46-17.67-24.33 1.76-1.87.6-1.39 1.31-.29 2.63-2.18 18.95 26.34 17.63 27.05 18.61 25.87 17.62 27.05 21.55 29.96-12.03-5.38z"></path><path class="st3" d="m920.24 449.17 1.71-2.58 1.42 1.92-.92-1.64-.78-.92-.94 1.46-.49 1.76zm-2.02 4.8-1.38 2.13-.27.99 1.2-1.72.45-1.4zm-4.83 10.16-.3.46v.1l.22-.33.08-.23z"></path><path class="st11" d="M877.65 317.3 791.5 192.48l4.72-3.36 89.22 129.29-7.79-1.11z"></path><path d="m893.49 343.82-2.27-2.93 3.74-2.94.9-2.11.5-6.46-4.84-5.5-3.85-1.72-4.58-.53-.54-.15-4.21-1.88-4.57-.53-.54-.15-4.12-1.84-4.84-.09-4.45.4-5.95 6.92.68 8.25 1.69 2.93 3.69 1.52 5.38 2.81-1.7 3.3-5.3-2.77-4.04-1.66-.9-.79-2.22-3.84-.24-.78-.78-9.44.44-1.37 6.94-8.08 1.23-.63 5.49-.48 5.31.1.71.16 4.2 1.88 4.57.53.54.15 4.21 1.88 4.58.53.54.15 4.47 2 .63.47 5.62 6.39.46 1.38-.59 7.55-.14.59-1.21 2.83-.56.73-4.08 3.22z"></path><path d="m884.39 366.26-.29-3.71 11.71-.94 1.78-1.04 4.86-4.28-.15-5.07-.55-2.69-4.8-3.56-3.51-.3-2.76-.92-5.86-.49-14.17-.36-5.01.09-3.2 1.32-3 1.11-1.64 2.89-1.78 2.59.69 6.5.68 2.8 3.42 2.48-2.16 3.02-3.98-2.88-.71-1.07-.91-3.83-.78-7.31.32-1.26 2.12-3.09 1.84-3.27.97-.83 3.57-1.32 3.46-1.43.67-.14 5.44-.1 14.35.36 6.61.6 2.75.92 3.36.24.96.36 5.81 4.31.71 1.12.76 3.87.18 6.11-.63 1.45-5.94 5.18-2.3 1.34-.78.24-12.11.99z"></path><path d="m869.96 389.14-6.24-.44-3.8.32-1.07-.24-3.35-1.93-3.55-1.52-.92-.86-1.95-3.93-.9-3.63.02-.98 2.1-7.13.22-.48 2.14-3.31 1-.76 4.05-1.25 7.84-1.04 7.71-.42.42.03 6.64 1.19 3.81-.21.34.01 8 1.05 6.95 1.41 1.01.59 2.32 2.69 2.72 5.09.22.84.07 2.93-.18.85-3.37 7.03-1.03.94-5.1 1.88-.55.11-12.68.58h-.22l-6.16-.44-6.51 1.03zm-6.12-4.16 6.16.44 6.53-1.02 6.27.44 12.28-.56 4.13-1.53 2.85-5.95-.05-2.04-2.4-4.51-1.51-1.71-6.28-1.27-7.64-1-3.86.21-.43-.03-6.64-1.19-7.43.41-7.47.99-2.96.93-1.63 2.53-1.88 6.38.73 2.93 1.4 2.74 3.23 1.4 2.94 1.69 3.66-.28z"></path><path d="m889.45 410.63-.37-.04-3.44-.68-7.05.05-.02-3.72 7.24-.05.37.03 3.44.68 6.98-.05 7.26-.65 2.57-2.22 2.27-2.19.29-5.13-1.1-3.02-12.22-4.85-8.27-.46.2-3.71 8.55.47.55.12 3.31 1.26 10 4.02 1.05 1.09 1.52 4.16.11.75-.35 6.25-.57 1.24-2.87 2.76-3.09 2.67-1.04.44-8.08.72-7.24.06z"></path><path d="M904.38 435.62h-.27l-8.44-.68-.5-.11-7.87-2.95-8.06-2.37-.47-.21-7.09-4.5-12.53-6.52-3.48-2.87-8.05-4.75-.76-.86-4.12-9.51-.15-.91.74-8.07.45-1.06 2.91-3.29 6.07-4.8 2.28 2.92-5.94 4.69-2.15 2.47-.64 7 3.69 8.52 7.89 4.69 3.44 2.84 12.24 6.33 6.94 4.41 8 2.36 7.69 2.88 8.05.65 18.11-1.22 10.46-4.53 1.46 3.41-10.75 4.66-.61.15-18.54 1.23z"></path><path d="m933.77 463.95-2.78-4.92-4.97-5.82-3.58-6.35-4.96-5.81-3.67-6.5 3.21-1.83 3.58 6.34 4.96 5.81 3.58 6.35 4.97 5.82 2.87 5.08-3.21 1.83z"></path><path d="m921.03 480.23-3.13-.99-5.44-2.27-1.02-1.06-1.06-2.8-.11-.47-.85-8.44.29-1.2 2.45-3.79 1.19-4.37.23-.52 2.53-3.92 3.82-8.57 3.37 1.52-4.02 8.95-2.45 3.79-1.19 4.37-.23.52-2.26 3.49.76 7.54.69 1.82 4.63 1.94 2.17.68 1.92-.99 4.06-3.4 10.15-15.4 9.12-16.52 10.29-15.62 9.11-16.52 10.33-15.68 3.07 2.06L969.17 410l-9.12 16.52-10.29 15.62-9.12 16.52-10.34 15.69-.36.4-4.76 3.93-2.77 1.43-1.38.12z"></path><path d="m990.4 411.89-10.19-12.87L968.8 387l-10.19-12.87-11.41-12.03-10.13-12.79-3.76-3.12-.43-.52-2.39-4.24-3.25-3.61-.35-.58-1.75-4.54-2.84-4.31-5.02-11.08-6.18-9.54-7.79-8.45-4.08-4.72-5.32-3.9-4.12-4.76-9.12-8.35-3.95-2.03-4.02.23-3.43 3.12-1.52 1.48-.41 4.34 1.37 2.01 3.37 6.75 4.78 6.28 3.37 6.75 4.7 6.13 4.07 6.51-3.06 2.08-18.72-26.04-17.56-26.95-18.68-25.97-17.56-26.96-17.41-24.21-1.06.88-.67.15-.27.63-.65.69 16.52 22.76 16.57 25.36 17.69 24.36 16.58 25.36 17.69 24.36-2.98 2.19-17.74-24.44-16.58-25.36-17.69-24.36-16.57-25.36-17.69-24.37.67-2.76 1.07-.54.38-.88 1.3-1.07.66-.15.27-.63 1.03-.99 1.05-.41 2.16.64 18.72 26.03 17.56 26.96 18.68 25.97 11.08 17.01.36-3.8.55-1.15 2.05-2.01 3.96-3.61 1.13-.48 5.17-.3.94.2 4.61 2.37.4.28 9.53 8.74 4.04 4.67 5.32 3.9 4.18 4.84 8.05 8.78 6.48 10.04 5.02 11.07 2.92 4.46 1.7 4.41 3.4 3.84 2.32 4.12 3.91 3.3 10.2 12.88 11.41 12.03 10.19 12.87 11.41 12.02 10.24 12.93-2.88 2.35zm-66.41-26.68-3.64-7.2-5.04-6.71-3.63-7.19-5-6.63-4.8-8.66 3.22-1.81 4.73 8.54 5.05 6.73 3.63 7.19 5.04 6.71 3.71 7.35-3.27 1.68z"></path><path d="m990.25 459.45-1.17-.19-8.14-4.4-.67-.62-2.87-4.42-2.72-4.61-.25-1.12.96-10.51.15-.59 6.3-14.07.26-.42 12.39-15.06 4.43-4.34 3.45-5.42 8.16-10.06 4.58-4.48 2.57 2.67-4.5 4.4-7.88 9.74-3.65 5.67-4.52 4.42-12.04 14.64-6.07 13.56-.87 9.6 2.37 4.02 2.57 3.95 7.18 3.87 6.86-1.14 6.2-4 7.47-7.51 8.08-6.6 6.9-8.06 7.42-7.29 5.75-8.93 7.62-9.42 6.56-10.46 7.62-9.42 6.56-10.47 7.47-9.24 1.52-4.71-1.04-4.5-4.42-3.42-2.53-1.34-5.87 1.35-1.87 2.57-12.08 14.09-11.02 15.13-12.08 14.09-11.03 15.14-12.13 14.15-2.79-2.43 12.08-14.1 11.03-15.14 12.08-14.09 11.02-15.13 12.08-14.09 2.14-2.95 1.08-.71 7.21-1.66 1.27.17 3.54 1.9 5.07 3.92.67 1.05 1.3 5.65-.04.99-1.78 5.53-.32.6-7.62 9.43-6.56 10.47-7.62 9.42-6.56 10.46-7.63 9.43-5.95 9.17-7.51 7.38-7.08 8.24-8.13 6.64-7.71 7.7-6.69 4.32-.69.27-7.87 1.32z"></path><path d="m1017.77 402.01-1.15-13.07-2.5-11.55-1.02-11.53-2.5-11.55-1-11.42-.79-2.2.05-1.39.9-2.02.06-2.22.55-1.27 1.57-1.55.86-2.04.61-.78 3.47-2.54.82-.34 4.25-.62 4.18-.72 1.17.19 3.79 2.03 3.8 1.91.84.86 1.79 3.79 3.42 5.37 1.89 5.5 3.36 5.28 1.89 5.51 3.17 4.88-3.09 2.03-3.49-5.48-1.89-5.51-3.36-5.29-1.89-5.5-3.28-5.09-1.57-3.32-3.27-1.65-3.28-1.75-3.61.62-3.84.56-2.69 1.97-.8 1.91-.41.6-1.3 1.28-.05 1.84-.16.7-.74 1.68.62 1.72.1.47 1.02 11.54 2.5 11.55 1.02 11.53 2.5 11.55 1.16 13.18-3.68.35z"></path><path d="m1034.34 349.58-.93-.12-4.26-1.72-.93-.83-1.86-3.38-2.76-1.24-4.31-1.08-6.22-1.78-.96-.66-.91-1.2 2.93-2.26.54.71 5.57 1.6 4.72 1.21 3.47 1.56.86.8 1.84 3.35 3.2 1.29 4.33-.59 1.11-.69 1.95 3.15-1.44.9-.73.26-5.21.72zm105.28 122.25-12.99-18.76-15.96-18.93-14.85-20.08-15.77-19.06-13.8-18.75 2.96-2.21 13.74 18.67 15.77 19.05 14.84 20.07 16.05 19.04 13.04 18.83-3.03 2.13zM1043.4 334.1l-2.28-.44-2.32.16h-.32l-4.35-.45.38-3.7 4.19.43 2.4-.17.48.03 1.66.32 1.29-1.09.41-.26 1.51-.71.92-3.94.33-1.74-1.94-3.07-1.78-.44-.64-.3-2.18-1.6-4.84-1.91-2.67-.32-.87-.34-1.93-1.41-3.81-.23-1.4 1.19-.41.26-1.51.71-.92 3.94-.3 1.59 1.08 1.3.33.57 1.56 4.42-3.48 1.25-1.45-4.1-1.44-1.72-.4-1.55.48-2.54 1.14-4.89 1.02-1.26 2.1-.99 1.78-1.51 1.3-.43 5.08.31.98.35 1.98 1.45 2.88.41 5.69 2.31 2.08 1.52 2.14.53 1.11.8 2.74 4.32.26 1.35-.49 2.54-1.14 4.89-1.02 1.26-2.1.99-1.78 1.51-1.53.4zm11.74 189.1-1.75-11.77-3.23-11.68-1.75-11.76-3.23-11.68-1.77-11.87 3.65-.55 1.75 11.76 3.23 11.68 1.75 11.76 3.23 11.68 1.77 11.88-3.65.55z"></path><path d="m1150.47 346.04-.72-1.88-9.24-17.14-13.46-12.59-14.17-13.05-16.72-9.38-17.42-7.99-18.78-3.73-19-2.2-25.91 3.49-25.02 7.54-22.13 13.99-19.65 17.32-14.44 22.09-3.08-2.04 14.57-22.31.33-.38 20.19-17.76 22.46-14.19.45-.21 25.68-7.72 26.73-3.54 19.45 2.26 19.47 3.92 17.82 8.18 17.32 9.78 14.34 13.2 13.69 12.8.37.48 9.54 17.72.77 1.99-3.44 1.35z"></path><path d="m1040.73 526.15-12.03-1.32-12.41-1.08-11.55-3.63-11.87-3.43-11.13-5.24-13.1-7.21-13.8-5.91-12.99-7.15-13.8-5.9-13.07-7.2 1.77-3.26 12.99 7.15 13.8 5.9 12.99 7.15 13.8 5.9 13.08 7.2 10.89 5.12 11.5 3.3 11.4 3.58 11.86.99 11.82 1.3 37.53-6.6 34.28-16.57 26.57-27.4 18.1-33.67 5.31-38.06.18-11.49-2.36-11.36-2.04-11.47-4.48-10.69-4.26-11.06 3.44-1.34 4.24 11.01 4.65 11.23 2.06 11.62 2.43 11.92-.2 12.04-5.37 38.51-.21.63-18.39 34.19-.3.41-26.97 27.83-.52.38-34.81 16.82-.48.15-38.04 6.69-.51.02z"></path><path d="m921.81 444.34-10.55 19.68 1.15 8.11 5.53 5.3 6.94.06 3.81-2.34 3.74-5.55 1.42-9.18-5.84-7.21-6.2-8.87zm-15.47-93.77 5.67 12.77 4.95 7.12-1.55 7.14-2.07 6.01.4 4.91-1.1 8.4-3.31-4.69-10.82-5.3-2.76-1.36 6.47-2.49 1.7-11.33-8.72-7.15 3.34-.77 4.13-4.26 1.85-5.35 1.82-3.65z"></path><path class="st2" d="M969.57 127.04c-.14 0-.29.02-.43.05l-1.42.34c-.09.02-.18.05-.26.08l-1.36.55c-.27.11-.51.28-.7.5l-.95 1.1c-.06.07-.11.14-.16.22l-.77 1.23c-.15.25-.25.52-.27.81l-.11 1.44c-.01.09-.01.18 0 .27l.11 1.44c.02.29.11.57.27.81l.77 1.23c.05.08.1.15.16.22l.95 1.1c.19.22.43.39.7.5l1.36.55c.09.03.17.06.26.08l1.42.34c.28.07.58.07.86 0l1.42-.34c.09-.02.18-.05.26-.08l1.36-.55c.27-.11.51-.28.7-.5l.95-1.1c.06-.07.11-.14.16-.22l.77-1.23c.15-.25.25-.52.27-.81l.11-1.44c.01-.09.01-.18 0-.27l-.11-1.44c-.02-.29-.11-.57-.27-.81l-.77-1.23c-.05-.08-.1-.15-.16-.22l-.95-1.1a1.84 1.84 0 0 0-.7-.5l-1.36-.55c-.09-.03-.17-.06-.26-.08l-1.42-.34c-.14-.03-.29-.05-.43-.05z"></path><path d="m969.57 138.16 1.42-.34 1.36-.55.95-1.1.77-1.23.11-1.44-.11-1.44-.77-1.23-.95-1.1-1.36-.55-1.42-.34-1.42.34-1.36.55-.95 1.1-.77 1.23-.11 1.44.11 1.44.77 1.23.95 1.1 1.36.55 1.42.34zm0 3.59c-.29 0-.58-.03-.86-.1l-1.42-.34c-.18-.04-.36-.1-.53-.17l-1.36-.55a3.57 3.57 0 0 1-1.39-1l-.95-1.1c-.12-.14-.22-.28-.32-.43l-.77-1.23c-.31-.49-.49-1.05-.53-1.62l-.11-1.44c-.01-.18-.01-.36 0-.53l.11-1.44c.04-.57.23-1.13.53-1.62l.77-1.23c.1-.15.2-.3.32-.43l.95-1.1c.38-.44.86-.78 1.39-1l1.36-.55c.17-.07.35-.13.53-.17l1.42-.34c.57-.13 1.15-.13 1.72 0l1.42.34c.18.04.36.1.53.17l1.36.55c.54.22 1.02.56 1.39 1l.95 1.1c.12.14.22.28.32.43l.77 1.23c.31.49.49 1.05.53 1.62l.11 1.44c.01.18.01.36 0 .53l-.11 1.44c-.04.57-.23 1.13-.53 1.62l-.77 1.23c-.1.15-.2.3-.32.43l-.95 1.1c-.38.44-.86.78-1.39 1l-1.36.55c-.17.07-.35.13-.52.17l-1.42.34c-.29.07-.58.1-.87.1z"></path><path class="st3" d="M160.39 314.4c-.95-.22-1.12-1.34-1.74-1.94-.48-.85-1.18-1.66-1.56-2.58-.37-.81-.11-1.71.06-2.51.22-.94.18-2.15 1.09-2.73 15.34-9.89 35.98-23.9 51.32-33.79 8.44-5.72 25.59-17.06 34.16-22.59 1.12-.64 2.52-.13 3.66.19 1.55-.18 2.04 1.49 2.82 2.47.45.94 1.43 1.78 1.44 2.91.06 1.03-.35 2-.5 2.99 1.22 1.09-17.64 12.07-17.98 12.67-15.1 10.24-36.07 23.74-51.16 33.98l-17.16 11.2c-.3.2-.66.3-1.02.3-1.18.02-2.28-.43-3.43-.57z"></path><path d="M159.73 316.06c-1.17-.38-1.72-1.33-2.06-1.91-.08-.14-.2-.35-.26-.41l-.31-.4c-.16-.28-.35-.56-.54-.84-.38-.56-.81-1.2-1.12-1.94-.55-1.21-.28-2.44-.08-3.34l.05-.22c.05-.21.08-.39.11-.58.16-.96.39-2.4 1.77-3.28 7.67-4.94 16.83-11.03 25.69-16.92 8.83-5.87 17.96-11.93 25.63-16.88 8.5-5.76 25.75-17.17 34.16-22.59 1.74-1 3.56-.47 4.77-.12l.05.02c2.02-.02 3.03 1.61 3.59 2.51.14.23.27.45.42.64l.22.34c.09.19.26.43.44.69.49.71 1.17 1.68 1.17 2.98.05.84-.15 1.65-.32 2.36-.04.18-.09.36-.13.55.01.13.02.26 0 .39-.13 1.51-1.33 2.76-14.29 10.88-1.74 1.09-3.54 2.22-4.14 2.64l-.05.08-.34.23c-7.55 5.12-16.7 11.15-25.56 16.98-8.87 5.84-18.05 11.88-25.6 17l-17.19 11.22c-.6.39-1.3.59-2.01.59-.88.01-1.72-.18-2.45-.36-.39-.09-.78-.19-1.18-.23l-.19-.03c-.08 0-.17-.03-.25-.05zm.34-4.67c.3.34.5.69.67.98.05.09.13.22.19.31.43.07.83.16 1.22.25.59.14 1.15.27 1.65.26l17.23-11.21c7.54-5.12 16.73-11.16 25.62-17.01 8.77-5.78 17.84-11.75 25.34-16.82.43-.39 1.49-1.07 4.82-3.15 3.64-2.29 11.02-6.91 12.6-8.5.07-.39.15-.78.25-1.16.13-.54.25-1.01.22-1.4 0-.29-.3-.72-.54-1.06-.21-.3-.44-.63-.64-1.01-.19-.27-.37-.54-.54-.82-.18-.29-.47-.76-.62-.86l-.35.04-.65-.17c-.67-.19-1.58-.46-1.94-.25-8.3 5.36-25.53 16.75-34.04 22.52-7.68 4.95-16.8 11.01-25.62 16.87-8.87 5.89-18.04 11.98-25.74 16.95-.05.09-.13.57-.18.86-.04.27-.09.54-.15.79l-.05.21c-.09.41-.22.97-.13 1.16.19.46.48.89.8 1.35.21.28.41.57.58.87z"></path><path class="st11" d="m1137.53 283.22-.01.05.15-.04-.15.04.15-.04-.15.04 4.59 12.72 7.05 11.54 9.68 9.45 11.38 7.31 12.83 4.29-.04.15.04-.15-.04.15.04-.15-.05.15.05.01-.04-.15.04.15-.04-.15.04.15-12.83 4.29-11.38 7.31-9.68 9.45-7.05 11.54-4.59 12.72.15.04-.15-.04.15.04-.15-.04.15.05.01-.05-.15.04.15-.04-.15.04.15-.04-4.59-12.72-7.05-11.54-9.68-9.45-11.38-7.31-12.83-4.29.04-.15-.04.15.04-.15-.04.15.05-.15-.05-.01.04.15-.04-.15.04.15-.04-.15 12.83-4.29 11.38-7.31 9.68-9.45 7.05-11.54 4.59-12.72-.15-.04.15.04-.15-.04.11-.05-.11.04z"></path><path d="M1137.63 376.39c-.08 0-.16 0-.24-.01a2.284 2.284 0 0 1-2.16-2.29v-.06l-4.22-11.7-6.78-11.1-9.31-9.09-10.94-7.03-12.54-4.19c-.34-.11-.65-.3-.89-.53l-.04-.04c-.42-.43-.66-1.01-.66-1.61v-.16c0-.45.13-.89.38-1.26.03-.05 0 0 0 0 .29-.44.72-.76 1.22-.92l12.54-4.19 10.94-7.03 9.31-9.09L1131 295l4.22-11.7v-.06a2.28 2.28 0 0 1 .79-1.73l.03-.02c.22-.19.47-.34.74-.43l.11-.04c.93-.32 1.95-.01 2.55.76.34.41.53.93.53 1.47v.06l4.22 11.7 6.78 11.1 9.31 9.09 10.94 7.03 12.54 4.19c.34.11.64.29.88.53l.08.08c.11.12.22.25.3.4.21.35.32.76.32 1.17v.16c0 .38-.1.75-.27 1.08-.11.2-.25.39-.41.55-.26.26-.57.45-.92.56l-12.54 4.19-10.94 7.03-9.31 9.09-6.78 11.1-4.22 11.7v.06c0 1.11-.79 2.06-1.89 2.26-.13 0-.28.01-.43.01zm-38.47-47.73 6.54 2.19c.18.06.35.14.51.25l11.38 7.31c.13.08.25.18.36.29l9.68 9.45c.14.13.26.28.36.45l7.05 11.54c.08.13.15.27.2.42l2.35 6.51 2.35-6.51c.05-.15.12-.29.2-.42l7.05-11.54c.1-.16.22-.31.36-.45l9.68-9.45c.11-.11.23-.21.36-.29l11.38-7.31c.16-.1.33-.19.51-.25l6.54-2.19-6.54-2.19c-.18-.06-.35-.14-.51-.25l-11.38-7.31a1.99 1.99 0 0 1-.36-.29l-9.68-9.45a1.98 1.98 0 0 1-.36-.45l-7.05-11.54c-.08-.13-.15-.27-.2-.42l-2.35-6.51-2.35 6.51c-.05.15-.12.29-.2.42l-7.05 11.54c-.1.16-.22.31-.36.45l-9.68 9.45c-.11.11-.23.21-.36.29l-11.38 7.31c-.16.1-.33.19-.51.25l-6.54 2.19z"></path><path class="st3" d="M385.89 184.56c-.12 0-.25.01-.37.04l-1.22.29c-.08.02-.15.04-.22.07l-1.16.47c-.23.09-.44.24-.6.43l-.81.94c-.05.06-.1.12-.14.19l-.66 1.05c-.13.21-.21.45-.23.69l-.09 1.24c-.01.08-.01.15 0 .23l.09 1.24c.02.25.1.48.23.69l.66 1.05c.04.07.09.13.14.19l.81.94c.16.19.37.33.6.43l1.16.47c.07.03.15.05.22.07l1.22.29c.24.06.5.06.74 0l1.22-.29c.08-.02.15-.04.22-.07l1.16-.47c.23-.09.44-.24.6-.43l.81-.94c.05-.06.1-.12.14-.19l.66-1.05c.13-.21.21-.45.23-.69l.09-1.24c.01-.08.01-.15 0-.23l-.09-1.24c-.02-.25-.1-.48-.23-.69l-.66-1.05a1.33 1.33 0 0 0-.14-.19l-.81-.94c-.16-.19-.37-.33-.6-.43l-1.16-.47c-.07-.03-.15-.05-.22-.07l-1.22-.29a1.5 1.5 0 0 0-.37-.04z"></path><path d="m385.89 194.09 1.22-.29 1.16-.47.81-.94.66-1.05.09-1.24-.09-1.24-.66-1.05-.81-.94-1.16-.47-1.22-.29-1.22.29-1.16.47-.81.94-.66 1.05-.09 1.24.09 1.24.66 1.05.81.94 1.16.47 1.22.29zm0 3.08c-.25 0-.49-.03-.74-.09l-1.22-.29c-.15-.04-.31-.09-.45-.14l-1.16-.47c-.46-.19-.87-.48-1.19-.86l-.81-.94c-.1-.12-.19-.24-.27-.37l-.66-1.05c-.26-.42-.42-.9-.46-1.39l-.09-1.24a3.53 3.53 0 0 1 0-.46l.09-1.24c.04-.49.19-.97.46-1.39l.66-1.05c.08-.13.17-.25.27-.37l.81-.94c.32-.38.73-.67 1.19-.86l1.16-.47c.15-.06.3-.11.45-.14l1.22-.29c.48-.12.99-.12 1.47 0l1.22.29c.15.04.31.09.45.14l1.16.47c.46.19.87.48 1.19.86l.81.94c.1.12.19.24.27.37l.66 1.05c.26.42.42.9.46 1.39l.09 1.24c.01.15.01.31 0 .46l-.09 1.24c-.04.49-.19.97-.46 1.39l-.66 1.05c-.08.13-.17.26-.27.37l-.81.94c-.32.38-.73.67-1.2.86l-1.16.47c-.15.06-.3.11-.45.14l-1.22.29c-.22.06-.47.09-.72.09z"></path><path class="st2" d="M185.25 831.99c-6.74-11.53-16.94-26.69-23.75-38.16h-.39c-9.59 15.49-21.13 33.95-30.97 49.27l-4.34-2.11c5.92-17.18 13.26-37.65 19.47-54.74l-.24-.3c-18.14 2.21-39.84 4.76-58.01 6.66l-1.07-4.71c17.2-6.11 37.86-13.17 55.16-18.99l.08-.37c-13.06-12.71-28.59-27.97-41.43-40.89l3-3.79c15.55 9.55 34.01 21.21 49.4 31.02l.34-.17c1.87-18.09 4.2-39.7 6.38-57.74h4.83c2.18 18.04 4.51 39.66 6.38 57.74l.35.17c15.39-9.82 33.85-21.47 49.4-31.02l3 3.79c-12.83 12.92-28.37 28.18-41.42 40.89l.08.37c17.31 5.82 37.96 12.88 55.16 18.98l-1.07 4.71c-18.17-1.9-39.87-4.45-58.01-6.66l-.24.3c6.22 17.09 13.55 37.55 19.47 54.74l-4.34 2.11c0 .01-7.22-11.1-7.22-11.1z"></path><path d="M199.47 858.67c-3.24-5.54-6.82-11.09-10.29-16.44-3.7-5.73-7.52-11.64-10.97-17.62-2.32-3.69-4.66-7.37-7.03-11.04-3.71-5.77-7.53-11.72-11.1-17.69-3.57 5.98-7.39 11.92-11.1 17.7-2.33 3.63-4.74 7.38-7.04 11.07-3.42 5.92-7.24 11.83-10.93 17.55-3.47 5.37-7.06 10.92-10.31 16.48l-3.27-1.59c2.34-5.96 4.47-12.19 6.52-18.21 2.2-6.45 4.48-13.12 7.04-19.53 1.45-4.03 2.9-8.25 4.31-12.33 2.23-6.47 4.53-13.13 7-19.62-6.93.96-13.99 1.7-20.85 2.42-4.31.45-8.76.92-13.1 1.43-6.79 1.04-13.83 1.76-20.65 2.46-6.39.65-13 1.33-19.39 2.27l-.8-3.55c6.15-1.9 12.39-4.13 18.41-6.29 6.45-2.31 13.13-4.7 19.77-6.71 4.14-1.42 8.27-2.87 12.39-4.34 6.49-2.3 13.17-4.67 19.82-6.8-5.06-4.78-10.04-9.78-14.87-14.65-3.05-3.06-6.19-6.23-9.3-9.28-5.06-4.63-10.02-9.65-14.83-14.52-4.5-4.55-9.14-9.25-13.86-13.62l2.26-2.85c5.34 3.6 10.99 7.05 16.45 10.38 5.83 3.56 11.87 7.25 17.59 11.15 3.64 2.3 7.46 4.65 11.15 6.92 5.86 3.6 11.9 7.31 17.73 11.16.61-6.91 1.45-13.9 2.26-20.7.51-4.28 1.05-8.7 1.51-13.02.49-6.81 1.35-13.79 2.18-20.54.78-6.33 1.58-12.88 2.08-19.28h3.64c.5 6.38 1.3 12.92 2.08 19.23.83 6.76 1.69 13.74 2.19 20.62.46 4.26.99 8.69 1.5 12.97.82 6.79 1.66 13.79 2.27 20.71 5.83-3.85 11.87-7.56 17.73-11.16 3.68-2.26 7.49-4.6 11.18-6.93 5.66-3.86 11.69-7.54 17.52-11.1 5.47-3.34 11.13-6.8 16.49-10.41l2.26 2.85c-4.71 4.36-9.35 9.06-13.83 13.6-4.81 4.86-9.77 9.89-14.88 14.56-3.07 3.01-6.23 6.19-9.28 9.26-4.83 4.87-9.81 9.87-14.87 14.65 6.65 2.12 13.33 4.49 19.81 6.8 4.14 1.48 8.28 2.93 12.44 4.36 6.58 1.99 13.24 4.38 19.69 6.68 6.04 2.16 12.29 4.4 18.45 6.3l-.8 3.55c-6.38-.94-12.98-1.61-19.35-2.27-6.82-.7-13.87-1.42-20.72-2.47-4.35-.5-8.71-.98-13.07-1.43-6.85-.72-13.91-1.46-20.84-2.41 2.47 6.49 4.77 13.15 7 19.61 1.42 4.13 2.86 8.26 4.33 12.37 2.53 6.35 4.81 13.01 7.01 19.46 2.06 6.04 4.2 12.28 6.54 18.25 0-.01-3.27 1.58-3.27 1.58zm-37.81-67.3c3.97 6.81 8.35 13.63 12.59 20.23 2.38 3.7 4.75 7.41 7.08 11.13 3.44 5.95 7.24 11.83 10.91 17.52l1.24 1.91-.73-2.15c-2.19-6.4-4.45-13.02-6.97-19.35-1.5-4.17-2.96-8.39-4.36-12.48-2.55-7.4-5.19-15.06-8.07-22.38l1.97-2.47c7.83 1.16 15.94 2.02 23.78 2.84 4.33.46 8.81.93 13.18 1.44 6.83 1.04 13.83 1.76 20.61 2.45l2.17.22-2.07-.74c-6.4-2.29-13.03-4.66-19.58-6.65-4.21-1.43-8.45-2.94-12.54-4.39-7.42-2.64-15.1-5.36-22.66-7.69l-.7-3.09c5.8-5.35 11.52-11.11 17.05-16.69 3.06-3.08 6.23-6.27 9.36-9.34 5.08-4.65 10.02-9.65 14.79-14.48l1.53-1.55-1.95 1.19c-5.79 3.54-11.78 7.2-17.42 11.04-3.75 2.38-7.57 4.72-11.27 6.99-6.7 4.12-13.64 8.38-20.19 12.8l-2.84-1.37c-.6-7.84-1.57-15.88-2.51-23.65-.53-4.36-1.04-8.72-1.52-13.08-.5-6.85-1.35-13.79-2.18-20.5l-.28-2.25-.28 2.3c-.83 6.71-1.68 13.64-2.17 20.42-.47 4.4-1 8.84-1.52 13.13-.94 7.77-1.9 15.8-2.5 23.64l-2.84 1.37c-6.55-4.42-13.48-8.68-20.18-12.8-3.7-2.28-7.53-4.63-11.24-6.98-5.7-3.88-11.69-7.54-17.49-11.08l-1.91-1.17 1.56 1.58c4.77 4.83 9.71 9.82 14.74 14.43 3.17 3.11 6.33 6.29 9.38 9.36 5.54 5.57 11.26 11.33 17.05 16.68l-.7 3.09c-7.57 2.33-15.25 5.05-22.67 7.69-4.1 1.46-8.34 2.96-12.5 4.38-6.61 2-13.24 4.38-19.65 6.67l-2.03.73 2.22-.23c6.77-.69 13.77-1.41 20.53-2.44 4.42-.52 8.89-.99 13.2-1.45 7.84-.82 15.95-1.68 23.79-2.84l1.97 2.47c-2.88 7.32-5.52 14.98-8.08 22.39-1.41 4.09-2.87 8.32-4.35 12.44-2.54 6.38-4.81 13.01-7 19.42l-.72 2.11 1.26-1.95c3.67-5.68 7.47-11.56 10.87-17.45 2.34-3.76 4.76-7.52 7.1-11.16 4.24-6.6 8.62-13.42 12.59-20.23l3.15.02z"></path><path class="st3" d="m777.02 546.31 2.01-1.86.18-.38.16-2.44-.71-5.66-.09-.25-1.65-2.5-2.15-2.45-.37-.19-3.13-.31-4.69-.74 3.49-4.71 2.31-2.28.17-.36.3-3.21.69-3.12-.07-.42-3.51-5.94-2.63-2.87-.35-.18-7.46-.95-.39.09-3.26 2.09-4.12 1.32-2.21-4.38 5.25-3.76.14-.14 3.71-5.08.11-.3.56-6.06-.08-.35-1.43-2.45-4.86-5.94-.38-.2-3.6-.4-3.8-.48-.32.05-4.56 2.08-2.63-4.16 4.24-3.56 2.7-1.8.23-.3 2.12-6.22.03-.27-.64-4.98-.14-.32-3.34-3.79-.24-.17-6.55-2.43-.38-.01-6.75 2.1-.17.08-4.7 3.28-5.29 1.95-5 3.42-17.34 8.26 8.69-18.44.89-3.39-.09-.46-1.91-2.6-2.37-2.53-.43-.17-3.21.15-3.63.68-.27.14-5.35 4.66-6.26 3.52-5.73 4.91-6.27 3.5-5.73 4.82-13.08 8.99-12.33 10.28-13.08 8.99-12.32 10.28-14.81 10.18-2.33-7.96-7.69-20.99-6.35-21.68-7.73-21.11-5.57-13.25 47.39-.78 45.32.74 45.08-.74 43.18-.55 47.98.6-.55 23.79.75 22.69-.75 22.92.75 22.67-.68 20.97-11.2 4.44-15.99 6.73 6.27-8.35z"></path><path class="st5" d="m797.36 522.54-.75-22.67.75-22.92-.75-22.68.52-22.16-.4-.41-46.3-.57-43.17.55-45.1.74-45.32-.74-45.1.74-.03-1.77-2.3.48-5.54-13.19-.13-.2-9.16-9.14 49.88-.5 47.79-.74 48 .74 47.73-.74 47.9.74 6.48.25 5.36 3.59 5.07 3.99 2.24 6.05 1.73 6.13-.75 22.64.75 22.39-.75 22.64.75 22.4-.71 21.54-12.05 1.42-.16.04-7.2 2.86.72-21.5zm-127.28-98.23 1.45-.47.29-.21.9-1.24.11-.35v-1.53l-.11-.35-.9-1.24-.3-.21-1.41-.46-.4.02-2.46 1.02-.31.47v2.27l.11.35.9 1.24.29.21 1.45.47.39.01z"></path><path class="st3" d="m667.31 424.83-1.6-2.2v-4.03l4.16-1.73 2.61.85 1.6 2.2v2.72l-1.6 2.2-2.59.84-2.58-.85z"></path><path class="st8" d="m229.67 639.19-8.88-4.61-9.8-8.05c-5.78-10.52-8.73-18.19-8.36-30.42 4.85-29.32 15.85-66.62 22.77-95.45l67.59 16.2c-1.11 8.17-4.81 24.23-7.27 32.11l-2.97 16.55c-1.94 7.36-6.4 25.61-5.96 33.13l3.83 11.66-3.45 8.66c-4.01 4.53-12.67 12.94-17.36 16.73l-15.27 4.02-14.87-.53z"></path><path class="st6" d="M419.37 646.72c-39.73-.69-91.45.62-131.28-.36.43-14.74.26-44.29-.37-59 1.08-17.94.09-47.75.17-65.64l-64.76-15.52c4.54-14.39 12.65-43.59 16.35-58.23 3.33-5.53 7.23-14.62 9.79-20.48 1.7-2.17 19.35-21.4 21.84-23.88l22.17-15.86c12.32-5.92 37.69-15.79 50.79-19.65 10.96-1.14 34.56-3.34 45.41-3.07 9.1.86 27.41 1.09 36.53.53 9.1.86 27.46 1.09 36.58.53l28.96 4.93 27.9 9.29 24.62 16.06 20.8 20.76c4.83 11.64 15.23 36.15 19.05 48.07 2.09 8.87 8.55 28.14 11.8 36.55l-83.95 19.42c1.19 7.34 2.8 22.32 2.45 29.64 1.1 9.29 1.9 27.93 1.58 37.28 1.09 9.21 1.9 27.76 1.58 37.02.57 1.8 2.86 8.98 2.75 10.82l2.12 5.33.66 5.46c-29.03-.63-74.1.27-103.54 0z"></path><path class="st8" d="m576.18 660.05-23.57-11.65-18.55-18.61c-.25-.82-9.37-25.46-8.68-25.4-3.44-11.1-6.33-29.73-7.77-41.35-2.57-10.53-6.14-32.04-7.2-42.84l84.9-19.64c1.31 3.33 3.65 10.19 4.53 13.63 6.96-4.33 19.51-13.9 25.6-19.39l13.08-8.99c5.93-5.37 18.63-15.02 25.4-19.27 2.63-2.62 8.56-6.8 11.96-8.31 2.64-2.66 8.57-6.89 11.99-8.43 5.63-5.09 6.13-5.87 14.12-5.97 1.55 1.48 4.27 4.74 5.44 6.54-.11 2.96-5.92 14.39-7.2 17.2-.95.87-3.94 3.54-4.46 4.7 5.22-3.87 17.28-7.99 22.22-12.28l5.28-1.95 5.03-3.44 7.61-2.37 7.58 2.81 4.01 4.55.77 5.96-2.46 7.21c-4.68 3.11-11.07 8.8-16 11.65 3.46-.93 11.67-4.68 14.99-6.25l8.65 1.03c1.63 1.94 6.21 7.32 7.16 9.61l-.66 7.15-4.18 5.73c-2.78 2.01-11.18 8.23-14.25 9.49 2.2-.28 6.56-1.98 8.56-2.95.14-.07 5.22-1.63 5.34-1.73l3.62-2.32 8.78 1.12c2.27 1.78 5.72 7.58 7.1 10.11-.52 1.85-1.1 5.63-1.19 7.54-1.44 1.23-3.88 4.07-4.91 5.66 1.51.29 4.87.66 6.42.79 1.34 1.36 3.67 4.32 4.61 5.98.36 2.19 1.01 7.31.57 9.48-1.33 1.05-3.46 3.46-4.4 4.85-4.5 2.88-15.4 9.8-20.14 11.77-3.68 3.72-18.57 11.6-23.35 14.17-10.17 6.23-30.47 20.41-40.11 27.59-20.69 12.93-46.13 34.49-66.24 48.28-25.9 10.24-22.09 9.24-50 8.54z" style="cursor: pointer;"></path><path class="st6" d="m384.61 338.41-1.03-6.98 10.36-5.54 11.05-7.95-2.25 7.32-3.71 8.44-.05.17-.46 3.97-2.56 3.05-2.21 3.67-3.57 1.75-5.67 3.98.1-11.88z"></path><path class="st6" d="m368.13 359.53 2.38-3.6 2.2-3.92 3.94-1.85 3.83-2.16 5.2-1.08 1.47 10.01-.09 9.4-15.76.41-3.84.37.67-7.58z"></path><path class="st5" d="m383.22 328.93.09-9.49.7-7.13.76-3.86 5.36-5.28 5.12-3.73 6.32-.28 6.31.35 5.08 3.76 4.67 4.24 1.46 3.64-5.55 3.99-9.69 5.18-9.13 6.57-10.96 5.86-.54-3.82z"></path><path class="st5" d="m416.62 308.36-.16-.22-7.04-6.39 8.17-3.06 3.86-.28.22-.06 3.52-1.68 5.77-.42 2.91 3.39-1.35 3.65-9.87 5.28-4.62 3.32-1.41-3.53z"></path><path class="st8" d="m425.92 366.8-18.19.48c-2.55-.1-19.79-1.26-21.89-.91.33-4.48-.18-13.32-1.17-17.71 1.94-1.6 6.13-4.11 8.3-5.2.83-1.67 2.95-4.65 4.25-5.99.17-.04.52-3.84.57-4.01.98-2.22 4.32-9.51 4.76-11.78l3.12-3.73 7.1-3.8 5.83-4.2c1.78 5.43 7.05 15.98 9.97 20.93l.01-.01c.01.08.56 1.04.59 1.12l-.11.09c1.95 5.82 7.32 16.93 10.49 22.21l5.42 13.56-19.05-1.05z"></path><path class="st9" d="m1122.39 780.71-6.11-7.7-5.91-8.06-2.84-9.41-2.53-9.61-.51-9.27 5.48-4.6 3.45-4.02 4.97-1.68 4.7-1.85 5.15.89 10.76 4.17 3.67 5.6 3.17 5.87-.29 6.66-.84 6.54-7.47 15.31-6.34 16.49-8.51-5.33z"></path><path class="st11" d="m989.94 894.89-19.59-4.21-19.08-5.61-18.09-3.89-5.19-4.53-10.85-9.96 7.63-10.99 11.67-19.4 13.05-18.79 11.66-19.39 14.04-20.2 21.96 18.35 8.21 5.02 8.93 3.51.28.04 9.22-.97 9.23-2.64.24-.14 6.89-6.52 14.36-12.06 13.44-13.23 14.32-12.03 13.44-13.23 9.97-8.37.54 9.89 2.51 9.66 2.74 9.08.09.19 5.71 7.79 5.89 7.43.15.14 8.08 5.04-7.75 15.88-6.15 15.99-7.4 15.15-1.62 5.68-2.76 4.81-5.44 16.29-5.29 12.56-3.97 13.27-4.64 11.03-8.89-2.71-5.07-2.35-.15-.05-5.54-.96-5.07-2.35-.19-.05-10.86-1.23-11.12-.17-.2.03-10.57 3.39-10.26 3.92-.18.11-8.79 7.55-19.54-5.77z"></path><path class="st9" d="m1077.83 891.6-5.09-2.36-5.54-.96-.16-.05-5.12-2.37-11.31-1.28-11.39-.17-10.83 3.46-10.66 4.07-8.52 7.33-19.02-5.6-3.27-.7-4.37 2.45-15.91 16.94-5.58 7.41-3.23 8.54-3.67 8.56-1.19 9.68 12.36-.24 38.37.75 6.35-1.65 6.16-1.9 4.59-4.77 3-3.35 10.93 5.99 10.02 2.08 10.3.07 9.14-4.74 8.07-6.38 4.2-9.39 5.33-12.67 3.97-13.27 1.14-2.7-9.07-2.78z"></path><path class="st11" d="m888.89 946.3-38.04.74-14.2-.28-7.3-17.68-10.18-15.63-.14-.15-14.64-11-16.77-8.17-.21-.06-29.83-2.64v-44.92l.15-11.6 25.56-.6 24.74.74 24.58-.74 24.8.74 24.74-.56 2.23 11.11 3.34 10.06.12.21 6.85 7.79 7.96 7.02.21.12 10.06 3.28 19 5.59 19.59 4.21 19.09 5.61 16.97 3.65-4.31 3.37-15.6 16.61-5.45 7.22-.08.15-3.15 8.31-3.58 8.34-.05.17-1.14 9.24-26.99.53-38.33-.78z"></path><path class="st9" d="m812.51 946.3-17.09-2-14.92-8.63-12.57-11.79-7.02-15.73-3.57-17.99 30.51 2.7 17.04 8.26 15.13 11.38 10.36 15.84 7.61 18.45-25.48-.49z"></path><path class="st1" d="m951.28 759.89-22.58-18.86-23.45-17.66-22.21-18.55-.74-43.02.75-43.51-3.9-21.93-6.01-21.47-12.02-18.78-17-14.43-21.95-3.94-18.55 2.18-17.39 6.9-24.12 10.14-7.08 3.55-6.35 4.85-16.88 9.27-18.27 11.88-21.86 15.73-22.5 15.21-21.12 16.78-22.43 16.15-.14.08-23.12 8.7-.22.04-23.92-.35-22.45.63-9.49-.56-8.14-1.87-10.68-4.08-5.34-7.45-50.41-1.27-.34 1.24-25.82.37-26.21-.37h-52.26l-26.06.37-26.97-.37h-26.1l.5 18.04v34.87l-.75 17.57.75 17.53 3.5 19.41 11.71 16.07 33.11 20.62 19.34 3.82.98.01 15.87-.11 16.71-.24 17.01-.73 16.63-5.46 6.8-5.62 5.92-6.97h.54l9.55 11.5 14.63 4.62 14.98 2.9 15.16.06 15.26.93h14.99l22.36-.74 26.36-1.15 25.66-6.36 25.01-8.55 22.83-13.31L665 748.98l19.38-14.99 15.67-10.68 10.01 11.88 11.99 11.01 11.38 11.8 12.74 10.24 13.52 10.96-.26 24.09-1.81 32.86 25.6-.61 24.81.74 24.58-.74 8.15.24v.07l4.36.06 12.23.37 25-.57.71-43.89-.41-23.58 6.62 25.35 3.83 15.54 5.24 15.02 3.84 15.55 4.42 9.68 4.42 9.82 7.05 8.32 7.75-11.16 11.67-19.4 13.05-18.79 11.67-19.39 14-20.15-24.93-18.74zm-189.14-55.37-12.5 2.44-12.47 3.92-12.83 2.47-12.51 3.93-4.88 1.12 17.34-13.42 20.48-13.96 18.84-13.75-1.47 27.25z"></path><path class="st3" d="m670.43 424.15 1.69-.55 1.05-1.44v-1.77l-1.05-1.44-1.69-.55-1.69.55-1.05 1.44v1.77l1.05 1.44 1.69.55z"></path><path d="m759.67 780.35-13.75-11.14-12.89-10.38-11.31-11.76-12.1-11.13-10.51-12.47 2.85-2.4 10.43 12.38 11.93 10.96 11.31 11.76 12.62 10.14L762 777.46l-2.33 2.89zm295.73 164.42-10.45-.11-9.87-2.05-.52-.19-11.87-6.51 1.79-3.26 11.62 6.37 9.41 1.96 9.43.06 8.38-4.35 7.4-5.86 3.93-8.78 5.28-12.55 3.97-13.27 5.29-12.58 3.97-13.27 5.3-12.6 5.49-16.43 2.73-4.76 1.6-5.6 7.45-15.25 6.15-15.99 7.44-15.24 6.15-15.98 7.34-15.04.78-6.04.26-5.87-2.79-5.17-3.18-4.84-9.79-3.79-4.22-.73-4.16 1.64-4.33 1.46-3.14 3.66-14.33 12.04-13.44 13.23-14.32 12.03-13.44 13.23-14.38 12.08-7.05 6.67-.76.44-9.72 2.78-9.73 1.03-.87-.12-9.41-3.69-8.55-5.23-22.55-18.84-23.41-17.62-22.63-18.9-23.4-17.62-22.62-18.89 2.39-2.85 22.54 18.83 23.4 17.62 22.62 18.9L976 776.55l22.52 18.81 8.07 4.91 8.54 3.33 9.12-.96 8.81-2.54 6.81-6.43 14.41-12.1 13.44-13.23 14.32-12.03 13.44-13.23 14.27-11.99 3.15-3.71.83-.56 4.73-1.6 4.56-1.79 1-.1 5.28.95 10.52 4.07.89.72 3.63 5.54 3.07 5.69.22.96-.3 6.61-.83 6.42-.17.58-7.44 15.24-6.15 15.98-7.44 15.24-6.15 15.99-7.41 15.17-1.68 5.77-2.76 4.8-5.35 16.12-5.29 12.57-3.97 13.27-5.29 12.58-3.97 13.27-5.34 12.68-4.13 9.24-.54.7-8.2 6.45-8.95 4.64-.87.19z"></path><path d="m1011.27 901.22-2.43-2.82 8.53-7.33.55-.33 10.53-4.02 10.83-3.47.6-.09 11.44.18 11.18 1.27.57.16 4.95 2.29 5.38.94.46.15 5.06 2.34 8.19 2.49-1.09 3.56-8.56-2.62-4.95-2.29-5.38-.94-.46-.15-4.9-2.27-10.79-1.22-10.86-.16-10.44 3.34-10.13 3.87-8.28 7.12zm119.41-114.21-8.31-5.19-.47-.42-6.08-7.68-5.83-7.96-.28-.56-2.82-9.37-2.57-9.9-.49-8.89 3.72-.21.48 8.71 2.44 9.29 2.72 9 5.6 7.64 5.84 7.37 8.04 5.01-1.99 3.16zm-216.34 88.84-3.06-2.12 12.99-18.69 11.67-19.4 13.05-18.79 11.67-19.39 13.04-18.78 3.06 2.12-12.98 18.68-11.67 19.39-13.05 18.79-11.67 19.4-13.05 18.79z"></path><path d="m1004.11 948.28-38.21-.74-38.14.74-38.28-.74-38.14.74-38.46-.76-16.93-1.98-.72-.24-15.09-8.78-12.43-11.65-.43-.6-7.06-15.95-3.35-17.06v-44.79l.16-11.83 3.73.05-.16 11.8v44.58l3.24 16.32 6.7 15.02 12 11.25 14.23 8.23 16.45 1.93 38.12.74 38.14-.74 38.28.74 38.14-.74 38.03.74 5.92-1.54 5.55-1.71 4.08-4.24 3.95-4.42 1.93-5.36-.26-6.79-.93-6.61-4.02-5.33-4.54-4.87-6.46-2.02-19.05-5.6-19.58-4.21-19.08-5.61-19.59-4.21-19.15-5.63-10.31-3.36-.65-.37-8.26-7.29-7.12-8.09-.37-.64-3.47-10.44-2.12-10.56 1.83-2.23h.75v1.71l1.08-.22 2.1 10.45 3.25 9.75 6.79 7.72 7.72 6.79 9.89 3.22 19.04 5.6 19.59 4.21 19.08 5.61 19.58 4.21 19.14 5.63 6.96 2.18.8.51 5.07 5.45 4.37 5.79.36.86 1.02 7.36.28 7.24-.11.7-2.17 6.04-.36.61-4.24 4.74-4.47 4.63-.79.49-6.09 1.87-6.24 1.62-.52.08z"></path><path d="m835.8 946.68-7.09-17.17-9.99-15.28-14.59-10.97-16.42-7.96-28.78-2.55.33-3.71 29.12 2.58.65.18 17.19 8.37 15 11.27.44.47 10.43 16.01 7.15 17.34-3.44 1.42zm118.1 1.26-.74-.11.27-1.83-1.11-.14 1.12-9.08.14-.5 3.61-8.41 3.21-8.48.25-.46 5.63-7.46 15.83-16.85.45-.35 4.08-2.28 1.82 3.24-3.83 2.15-15.56 16.57-5.28 7.02-3.15 8.3-3.53 8.24-1.09 8.81-2.12 1.62zM241.22 642.07l-11.71-1.03-.76-.24-10.49-5.98-9.08-7.46-.48-.61-5.4-10.88-2.23-9.02-.3-9.07.03-.41 5.88-30.43 8.27-29.75 7.11-29.98 8.84-29.7 7.89-29.8.17-.42 2.71-4.9 4.68-9.9 2.03-5.1.3-.5 3.58-4.31 18.72-20.04 22.41-15.98 25.04-10.93 26.15-8.8 27.12-2.59 18.27-.48h.15l18.18 1 18.2-.48h.15l18.19 1 18.21-.48.36.03 29.13 4.98 27.78 9.25.43.21 24.8 16.22 20.67 20.63.4.6 11.27 26.87 7.76 21.18 6.35 21.68 7.69 20.99 6.35 21.69 7.69 20.99-3.5 1.28-7.73-21.11-6.35-21.69-7.69-20.99-6.35-21.68-7.69-20.99-11.1-26.45-20.28-20.23-24.14-15.74-27.41-9.13-28.53-4.85-18.1.48h-.15l-18.19-1-18.2.48h-.15l-18.18-1-18.13.48-26.72 2.56-25.45 8.61-24.64 10.76-21.76 15.56-18.24 19.57-3.32 4-1.97 4.93-4.78 10.11-2.65 4.81-7.85 29.63-8.82 29.65-7.1 29.94-8.26 29.75-5.8 30 .29 8.66 2.08 8.23 4.99 9.97 8.65 7.11 9.73 5.52 11.09.97 14.5-2.18 5.92-3.95 10.46-10.42 12.29-18.14 3.67-4.1 2.78 2.48-3.59 4.01-12.39 18.27-11 10.91-6.41 4.28-.76.29-15.58 2.3z"></path><path d="m291.1 646.12-3.73-.05.37-29.4-.75-29.32.75-29.49-.75-29.31.75-29.5-.14-5.23-1.43-13-1.39-4.91-.07-.52.04-5.13-1.37-10.21 3.69-.5 1.41 10.6-.04 5 1.42 5.11 1.46 13.38.14 5.4-.75 29.5.75 29.31-.75 29.49.75 29.3-.36 29.48zm311.77 15.55-26.04-.38-.8-.19-23.35-11.55-.49-.35-18.38-18.44-.43-.69-8.85-24.73-4.63-20.97-2.99-21.12-4.34-20.9-2.76-21.15-4.15-21.22.22-7.08-.43-7.07.04-.52 1.54-6.86.51-7.34 2.99-11.71 3.61.92-2.94 11.54-.5 7.26-1.51 6.74.42 7.07-.22 6.96 4.1 20.71 2.77 21.2 4.32 20.81 3 21.17 4.56 20.64 8.6 24 17.87 17.93 22.69 11.22 25.26.37 22.94-8.63 22.3-16.05 21.24-16.87 22.44-15.16 21.94-15.79 18.34-11.92 16.9-9.28 6.4-4.88 6.92-3.47 12.84-8.05 1.91-2.49 1.77-1.64.14-2.23-.68-5.21-1.59-2.41-1.84-2.09-2.9-.29-3.16-.5-7.04 3.16-3.87 2.63-.52.25-4.5 1.33-8.5 4.03-1.6-3.36 8.9-4.2 4.36-1.29 4.05-2.72 7.7-3.45 1.05-.14 3.6.57 3.52.34 1.21.62 2.57 2.94 1.9 2.87.29.78.78 6.18-.2 3.15-.59 1.25-2.19 2.03-1.79 2.39-.5.46-13.36 8.36-6.84 3.43-6.31 4.82-16.97 9.31-18.09 11.76-21.92 15.77-22.42 15.15-21.14 16.8-22.57 16.25-.43.23-23.5 8.85-.68.14z"></path><path d="m506.66 795.53-15.26-.93-15.42-.09-15.09-2.93-14.42-4.55-.87-.59-8.75-10.54-5.43 6.35-6.66 5.51-.6.33-16.46 5.4-.5.09-16.98.73-16.71.24-16.68.12-.38-.03-19.28-3.81-.62-.25-32.91-20.49-.52-.48-11.55-15.86-.33-.76-3.49-19.48-.75-17.62.75-17.46v-34.85l-.49-17.77 1.89-1.91 52.38.72 52.21-.74 52.32.74 52.22-.74 52.32.74-.05 3.72-52.27-.74-52.22.74-52.32-.74-52.21.74-50.49-.7.44 15.89v34.98l-.74 17.46.74 17.25 3.37 18.69 11.09 15.22 32.32 20.12 18.76 3.7 16.47-.12 16.64-.24 16.67-.72 15.86-5.21 6.26-5.18 6.52-7.69 2.85.02 9.82 11.83 13.8 4.35 14.61 2.83 15 .06 15.25.93h14.83l22.34-.74 26.12-1.13 25.31-6.27 24.68-8.43 22.52-13.13L664.03 747l19.43-15.04L703.94 718l19.41-15.03 20.48-13.95 31.59-23.06 3.39-3.39.45-.33 4.38-2.3 1.73 3.29-4.12 2.16-3.51 3.48-7.88 5.8-23.89 17.39-20.43 13.92-19.42 15.03-20.48 13.96-19.41 15.02-21.73 15.27-23.09 13.42-25.08 8.57-25.94 6.39-26.32 1.14-22.42.75h-14.99z"></path><path d="m857.94 837.52-24.79-.74-24.58.74-24.81-.74-24.9.59-1.9-1.96 1.77-32.11.35-31.84 1.85-31.96.35-31.84 1.73-32.24 3.72.2-1.73 32.17-.35 31.85-1.85 31.96-.35 31.84-1.66 30.18 22.98-.55 24.8.74 24.58-.74 24.81.74 22.48-.51.67-41.42-.75-43.33.75-43.45-.75-43.32.74-43.27-3.83-21.57-5.87-20.99-11.62-18.16L843.56 544l-20.93-3.76-17.85 2.1-17.03 6.76-24.11 10.14-1.45-3.43 24.14-10.15 17.3-6.86.47-.12 18.37-2.16.55.02 21.7 3.9.88.41 16.8 14.26.36.42 11.92 18.62.22.5 6.01 21.52 3.91 22.2-.75 43.39.75 43.32-.75 43.45.75 43.33-.7 43.27-1.82 1.83-24.36.56zm-88.22-307.34-2.99-2.21 3.04-4.07 2.1-2.07.31-3.17.63-2.83-3.4-5.76-2.26-2.43-6.99-.9-2.99 1.92-.44.21-5.24 1.68-4.96 2.12-6.76 1.6-.86-3.62 6.6-1.56 4.75-2.05 5.09-1.63 3.36-2.15 1.25-.28 8.32 1.07 1.13.58 3.1 3.39 3.88 6.56.21 1.35-.76 3.43-.33 3.5-.55 1.15-2.48 2.45-2.76 3.72z"></path><path d="m731.88 519.83-2.17-3.02 10.06-7.2 5.26-2.88 9.51-6.83 3.54-4.86.52-5.68-1.35-2.31-4.55-5.52-6.97-.83-9.07 4.14-6.38 2.22-5.24 2.28-1.49-3.41 5.43-2.37 6.36-2.21 9.31-4.26 1.01-.15 4.11.52 4.09.45 1.23.67 5.3 6.47 1.72 2.95.25 1.11-.62 6.78-.35.93-4.02 5.51-.42.41-10.04 7.19-5.26 2.87-9.77 7.03z"></path><path d="m715.42 495.84-2.06-3.1 11.45-7.59 11.5-7.75 5.47-4.58 2.49-1.66 2-5.87-.6-4.64-3.1-3.52-6.2-2.3-6.44 2-4.98 3.4-5.27 1.95-4.87 3.37-13.68 6.51-6.09 3.97-2.03-3.12 6.41-4.16 13.65-6.5 5.09-3.48 5.27-1.95 4.6-3.21.51-.25 7.32-2.28 1.2.03 7.23 2.68.75.52 3.78 4.3.45.99.73 5.63-.08.84-2.34 6.88-.73.95-2.93 1.95-5.45 4.57-11.59 7.81-11.46 7.61z"></path><path d="m602.01 516.1-2.11-3.06 13.08-8.99 12.32-10.28 13.08-8.99 12.33-10.28 13.08-8.99 5.82-4.9 6.26-3.49 5.73-4.91 6.26-3.52 5.41-4.71.87-.42 4.12-.77 3.93-.18 1.44.58 2.85 3.04 2.33 3.17.3 1.56-1.09 4.16-6.07 12.87-.42.57-3.37 3.15-2.58 3.84-.82.67-7.55 3.18-.94.13-3.8-.45-7.97-.09.04-3.72 8.27.1 3.41.4 6.59-2.77 2.66-3.87 3.26-3.05 5.85-12.4.71-2.79-1.74-2.37-2.03-2.16-2.94.14-3.23.62-5.48 4.72-6.26 3.52-5.74 4.92-6.27 3.49-5.61 4.75-13.08 8.99-12.33 10.28-13.08 8.99-12.32 10.28-13.17 9.04zM442.57 367.22l-4.75-11.88-6.18-11.45-4.75-11.88-6.19-11.46-4.64-11.6-4.15-3.77-4.38-3.24-5.44-.31-5.44.24-4.37 3.18-4.68 4.61-.59 3-.68 6.91-.09 9.19 1.4 9.47-.09 9.28 1.4 9.47-.09 9.43-3.73-.03.09-9.28-1.4-9.47.09-9.28-1.4-9.47.1-9.59.72-7.25.71-3.65.52-.97 5.4-5.29 4.93-3.59 1.01-.35 6.1-.27h.19l6.09.34 1 .36 5.05 3.75 4.54 4.12.48.69 4.76 11.89 6.19 11.46 4.75 11.88 6.18 11.45 4.79 11.98-3.45 1.38z"></path><path d="m817.81 540.81-3.72-.12.75-22.52-.75-22.4.75-22.64-.75-22.39.74-22.34-1.59-5.66-1.96-5.3-4.45-3.5-4.7-3.14-5.73-.22-47.83-.74-47.81.74-47.92-.74-47.8.74-49.12.5-.04-3.72 49.1-.5 47.85-.74 47.92.74 47.81-.74 47.93.74 6.29.24.97.31 5.32 3.56 4.91 3.87.59.82 2.21 6 1.69 6.01.07.56-.75 22.51.75 22.39-.75 22.64.75 22.4-.73 22.64z"></path><path d="m799.72 542.7-3.72-.12.65-20.03-.75-22.67.75-22.92-.75-22.68.5-21.35-45.41-.56-43.17.55-45.16.74-45.24-.74-45.12.74-.06-3.72 45.18-.74 45.24.74 45.11-.74 43.23-.55 47.34.59 1.84 1.9-.54 23.13.74 22.69-.75 22.92.75 22.67-.66 20.15zM386.95 350.46l-2.15-3.04 4.64-3.26 3.09-1.51 1.93-3.21 2.21-2.63.4-3.41.15-.53 3.73-8.47.91-2.96.35-.65 2.91-3.49 2.86 2.38-2.67 3.2-.91 2.91-3.66 8.32-.43 3.69-.42.98-2.47 2.94-1.96 3.31-.79.72-3.46 1.69-4.26 3.02z"></path><path d="m385.99 333.24-1.76-3.28 9.69-5.18 9.13-6.56 9.69-5.18 9.13-6.57 9.19-4.91.52-1.4-1.14-1.33-4.06.3-3.3 1.58-.67.18-3.74.27-7.18 2.69-1.31-3.48 7.43-2.78.52-.11 3.65-.27 3.3-1.58.67-.18 5.35-.39 1.55.65 2.47 2.88.33 1.85-1.14 3.08-.87 1-9.7 5.19-9.13 6.57-9.69 5.18-9.13 6.57-9.8 5.21zm314.65 389.29 12.37-2.85 12.47-3.92 12.83-2.47 12.48-3.92 12.97-2.54.58-12.58.42-12.31.05-5.56-13.29 8.43-25.73 18.69-25.15 19.03zM421.26 337.82l-4.02-.58-4.04-.65-1.11-.62-2.64-3.06 2.82-2.43 2.2 2.55 6.87 1.04 3.19-1.11 2.96-2.38 2.34 2.9-3.21 2.58-.55.31-3.92 1.37-.89.08zm248.59 88.97-2.2-.71-.93-.67-1.36-1.87-.36-1.09v-3.42l1.15-1.72 3.57-1.48 1.29-.05 2.2.71.93.67 1.36 1.87.36 1.09v2.31l-.36 1.09-1.36 1.87-.93.67-2.2.72-1.16.01zm-.47-4.07 1.05.34 1.05-.34.65-.89v-1.11l-.65-.89-.97-.32-1.78.74v1.57l.65.9zM511.95 532.65l.34 18.27 1.54 18.6.05 18.66 1.54 18.6.05 18.68 4.93 16.4.68 5.7 5.35 7.46 11.54 4.41 8.52 1.96 9.8.58 22.57-.63-12.23-7.27-11.74-5.69-8.85-5.88-9.75-13.16-4.62-7.38-3.3-18.09-4.75-17.75-3.3-18.07-4.75-17.75-3.62-17.65zm-227.24-13.74-2.52 14.07-4.43 16.29-2.98 16.62-5.24 21.86-.88 12.92 4.37 13.28 2 2.83 2.16 2.21 11.68-18.46.74-20.07-.75-60.35-4.15-1.2zm599.37 242.96 8.13 31.14 3.8 15.43 5.24 15.02 3.81 15.44 4.33 9.48 4.28 9.5 6.74 7.96 9.75 8.94 5.6 4.89v1.88l-13.53-4.42-8.82-2.17-12.32-4.59-13.25-13.83-4.83-18.25 1.07-76.42z"></path><path class="st11" d="m847.6 833.46-3.73-.05.65-47.08-.84-46.39.65-46.51-.84-46.39.65-46.24-3.25-11.71-6.67-9.86-10.83-5.02-11.83-1.44-10.99 5.05-30.69 19.42-29.91 20.69-30.85 19.53-29.9 20.69-31.04 19.63-32.11 15.57-.63.18-35.52 3.54-.5-.02-35.19-5.97-.61-.22-31-17.67-.4-.31-25.21-25.38 2.65-2.62 25.03 25.2 30.49 17.38 34.62 5.87 34.94-3.49 31.72-15.38 30.7-19.43 29.9-20.69 30.85-19.53 29.91-20.69 31.08-19.65 11.58-5.32 1-.16 12.65 1.53.56.16 11.56 5.36.76.65 7.13 10.54.25.54 3.4 12.26.07.52-.65 46.45.84 46.39-.65 46.51.84 46.39-.64 47.17z"></path><path d="m370.54 366.58-3.71-.32.58-6.68.3-.87 2.31-3.48 2.04-3.65.83-.78 3.78-1.78 3.64-2.06.54-.2 4.45-.92.76 3.64-4.17.86-3.57 2.01-3.31 1.56-1.85 3.31-2.09 3.15-.53 6.21zm140.29 152.36 84.06-19.44.84 3.63-84.06 19.44-.84-3.63zm-286.51-11.32.87-3.62 62.34 14.94-.87 3.62-62.34-14.94zm64.92 136.62h261.33v3.72H289.24v-3.72z"></path><path class="st3" d="M914.15 537.12c-.12 0-.25.01-.37.04l-1.22.29c-.08.02-.15.04-.22.07l-1.16.47c-.23.09-.44.24-.6.43l-.81.94c-.05.06-.1.12-.14.19l-.66 1.05c-.13.21-.21.45-.23.69l-.09 1.24c-.01.08-.01.15 0 .23l.09 1.24c.02.25.1.48.23.69l.66 1.05c.04.07.09.13.14.19l.81.94c.16.19.37.33.6.43l1.16.47c.07.03.15.05.22.07l1.22.29c.24.06.5.06.74 0l1.22-.29c.08-.02.15-.04.22-.07l1.16-.47c.23-.09.44-.24.6-.43l.81-.94c.05-.06.1-.12.14-.19l.66-1.05c.13-.21.21-.45.23-.69l.09-1.24c.01-.08.01-.15 0-.23l-.09-1.24c-.02-.25-.1-.48-.23-.69l-.66-1.05a1.33 1.33 0 0 0-.14-.19l-.81-.94c-.16-.19-.37-.33-.6-.43l-1.16-.47c-.07-.03-.15-.05-.22-.07l-1.22-.29c-.12-.02-.25-.04-.37-.04z"></path><path d="m914.15 546.65 1.22-.29 1.16-.47.81-.94.66-1.05.09-1.24-.09-1.24-.66-1.05-.81-.94-1.16-.47-1.22-.29-1.22.29-1.16.47-.81.94-.66 1.05-.09 1.24.09 1.24.66 1.05.81.94 1.16.47 1.22.29zm0 3.08c-.25 0-.49-.03-.74-.09l-1.22-.29c-.15-.04-.31-.09-.45-.14l-1.16-.47c-.46-.19-.87-.48-1.19-.86l-.81-.94c-.1-.12-.19-.24-.27-.37l-.66-1.05c-.26-.42-.42-.9-.46-1.39l-.09-1.24a3.53 3.53 0 0 1 0-.46l.09-1.24c.04-.49.19-.97.46-1.39l.66-1.05c.08-.13.17-.25.27-.37l.81-.94c.32-.38.73-.67 1.19-.86l1.16-.47c.15-.06.3-.11.45-.14l1.22-.29c.48-.12.99-.12 1.47 0l1.22.29c.15.04.31.09.45.14l1.16.47c.46.19.87.48 1.19.86l.81.94c.1.12.19.24.27.37l.66 1.05c.26.42.42.9.46 1.39l.09 1.24c.01.15.01.31 0 .46l-.09 1.24c-.04.49-.19.97-.46 1.39l-.66 1.05c-.08.13-.17.26-.27.37l-.81.94c-.32.38-.73.67-1.2.86l-1.16.47c-.15.06-.3.11-.45.14l-1.22.29c-.23.06-.47.09-.72.09z"></path><path class="st11" d="m622.61 932.46-7.42-15.85-1.23-13.59 5.64-18.28 6.29-15.02-132.35 1.16-9.66 34.47 7.86 19.75 7.76 10.74 123.8-1.39-.69-1.99zm0-78.16-7.42-15.85-1.23-13.59 5.64-18.28 6.29-15.02-132.35 1.16-9.66 34.47 7.86 19.75 7.76 10.74 123.8-1.39-.69-1.99z"></path><path class="st2" d="m392.06 851.1-3.79-16.12-.72-16.54 5.26-15.7 8.74-15.49 16.07-.18-8.74 16.03-5.19 15.41-.03.22.69 15.91 3.69 15.84.09.2 9.75 14.22-16.24.18-9.58-13.98z"></path><path class="st6" d="M641.97 787.55c-72.25-.91-154.03-.16-225.76-.47l-8.54 15.66-5.26 15.69.72 16.54 3.79 16.12 9.47 13.82c41.52-.5 99.23 1.03 141.59-.1-.33-2.2.08-8.58.23-10.86-15.14.28-42.67.85-57.81-.06l-.44-.26-5.78-9.69c.01-.29-3.97-10.98-3.88-11.27.04-6.12 1.55-17.87 3.39-23.71l7.14-10.8.46-.24c45.12 1.39 95.59-.69 140.73.74l-.05-11.11z"></path><path class="st2" d="m366.58 865.37-9.67-14.12-3.79-16.12-.72-16.54 5.26-15.7 8.71-15.44 8.18.09 8.1-.09-8.91 15.8-5.2 15.41-.03.22.69 15.91 3.69 15.84.09.2 9.91 14.46-10.47.12-5.84-.04z"></path><path class="st10" d="m650.53 931.55-30.74-.76-29.89.74-30.19-.74-29.87.75-29.7-.13-.46-.27-5.5-10.22-3.87-11.08-.03-.24.76-12.02 2.54-11.49.09-.2 7.14-10.8.46-.24 29.93.73 27.32-.67-.59-10.91-43.07.47-23.08-.25-46.02-.5-44.04.48-3.26 3.48-6.85 12.14-5.26 15.7.72 16.54 3.79 16.12 9.51 13.88 43.09-.47 47.38.51 21.47.23 68.77-.75 69.48.75-.03-10.78z"></path><path class="st6" d="m371.77 851.26-3.79-16.12-.72-16.54 5.26-15.7 8.7-15.43 21.77-.24-8.95 15.86c-.03.22-5.28 15.41-5.23 15.63l.69 15.91 3.69 15.84c.03.29 9.84 14.34 9.95 14.59l-21.74.24-9.63-14.04z"></path><path class="st6" d="m315.63 865.04-8.16-.09-11.3-13.78-5.73-15.67.73-16.64 4.29-16.09c1.5-1.98 11.09-14 12.01-15.97l60.32.67-8.9 15.78c-.03.22-5.28 15.41-5.23 15.63l.69 15.91 3.69 15.84c.05.34 9.94 14.47 10.06 14.75l-52.47-.34zm279.61-.11c.31-1.91-.14-8.61-.25-10.63 9.74-.66 33.99-.02 44 .34.35 2.69.5 8.12.03 10.78l-43.78-.49z"></path><path class="st10" d="m622.31 874.82-27.64.68.63-11.64h2.34l55.82.6-.03 5.51.07 5.61-31.19-.76zm-316.76 66.76-9.4-13.52-5.72-15.64.73-16.64 4.29-16.08 12.01-15.94 8.27.05 52.06.56-8.92 15.8-5.2 15.41-.03.22.7 15.91 3.69 15.84.09.2 9.94 14.5-62.51-.67z"></path><path class="st3" d="m366.54 942.24-9.64-14.07-3.79-16.12-.72-16.54 5.26-15.7 8.73-15.46 10.47.11 25.01-.27-9.01 15.98-5.2 15.41-.03.22.69 15.91 3.69 15.84.09.2 9.79 14.28-27.15.29-8.19-.08z"></path><path d="m638.43 866.65-66.52-.75-66.47.75-66.55-.75-66.48.75-64.64-.42-1.42-.68-11.08-13.51-.31-.54-5.65-15.45-.11-.73.78-16.84 4.24-15.9.33-.66L304.58 789l1.64-2.58 1.58-.86 66.71.75 66.67-.75 66.75.75 66.68-.75 66.75.75 1.83 1.85.04 9.88-1.9 1.86-28.16-.74-28.04.75-28.24-.75-28.05.75-27.21-.72-6.86 10.38-2.53 11.42-.72 11.65 3.83 10.97 5.45 9.07 26.72.72 27.64-.75 27.84.75 27.64-.75 27.81.75 1.8 1.72.4 5.35v.3l-.36 4.2-1.86 1.68zm-199.54-4.47 66.55.75 66.47-.75 64.84.73.2-2.33-.26-3.52-26.04-.7-27.64.75-27.84-.75-27.64.75-27.84-.75-1.54-.9-6.24-10.45-4.02-11.51-.1-.73.79-12.46 2.64-11.9.26-.63 7.62-11.53 1.59-.83 28.14.75 28.05-.75 28.24.75 28.04-.75 26.36.69-.02-6.11-64.89-.72-66.68.75-66.75-.75-66.67.75-65.72-.73-1.23 1.92-9.85 12.68-4.09 15.34-.7 15.87 5.42 14.8 10.32 12.6 63.74.42 66.49-.75z"></path><path d="m622.81 855.71-7.04-9.94-.3-.68-2.64-12.2-.72-12.17.1-.73 4.17-11.77 5.82-10.7 2.28-.85.34-.4h.01l.34-.4.73.29-.31.8.5-.3.4.68-.34.4v.01l-1.12 1.33.41.22-5.75 10.57-3.87 11 .69 11.65 2.49 11.4 6.82 9.63-3.01 2.16zm-257.61 9.85-9.25-13.5-.28-.63-3.79-16.29-.71-16.37.1-.67 5.34-15.85 8.04-14.26 2.09-.88.46-.54h.02l.45-.53.79.22-.31 1.13.71-.33.35.75-.45.54.01.01-1.12 1.33.25.14-7.95 14.1-5.04 15.03.69 15.85 3.63 15.44 9.05 13.21-3.08 2.1z"></path><path d="m380.06 865.56-9.25-13.5-.28-.63-3.79-16.29-.71-16.37.09-.67 5.35-15.85 8.04-14.26 2.09-.88.46-.54h.02l.45-.53.79.22-.31 1.13.71-.33.35.75-.45.54v.01l-1.12 1.33.25.14-7.96 14.1-5.03 15.03.69 15.85 3.63 15.44 9.05 13.21-3.07 2.1zm20.3-.16-9.25-13.5-.28-.63-3.79-16.29-.71-16.37.09-.68 5.35-15.85 8.04-14.26 2.09-.88.46-.54h.02l.45-.54.79.22-.31 1.13.71-.33.35.75-.45.54.01.01-1.12 1.33.25.14-7.96 14.1-5.03 15.03.69 15.85 3.63 15.44 9.05 13.21-3.08 2.12z"></path><path d="m415.23 865.4-9.25-13.5-.28-.63-3.79-16.29-.71-16.37.1-.68 5.33-15.83 8.15-14.95 3.26 1.79-8.07 14.8-5.04 15.05.69 15.85 3.63 15.44 9.05 13.21-3.07 2.11zm73.89.16-9.25-13.5-.28-.63-3.79-16.29-.72-16.37.1-.67 5.34-15.85 8.69-15.41 3.23 1.84-8.61 15.25-5.04 15.03.69 15.85 3.63 15.44 9.05 13.21-3.04 2.1z"></path><path d="m649.93 943.57-68.82-.75-68.77.75-68.85-.75-68.78.75-68.86-.75-1.5-.8-9.39-13.61-5.65-15.45-.11-.73.78-16.84 4.24-15.9.31-.64 11.77-15.63 1.5-.74 69.01.75 68.97-.75 69.05.75 68.98-.75 69.05.75 1.83 1.87-.03 4.85.06 4.98-1.9 1.89-30.46-.75-30.35.75-30.53-.75-30.35.75-29.51-.72-6.86 10.38-2.53 11.42-.72 11.65 3.84 11.01 5.19 9.62 29.22.13 29.98-.75 30.13.75 29.95-.75 30.11.75 1.81 1.86.03 9.55-1.84 1.85zM443.5 939.1l68.85.75 68.77-.75 66.98.72-.02-5.85-28.21-.7-29.95.75-30.13-.75-29.94.75-30.38-.13-1.62-.97-5.91-10.99-4.02-11.51-.1-.73.79-12.46 2.64-11.9.26-.63 7.62-11.52 1.59-.83 30.44.75 30.35-.75 30.53.75 30.35-.75 28.63.7-.04-3.08.02-3.03-67.16-.73-68.98.75-69.05-.75-68.97.75-68.11-.74-10.99 14.59-4.09 15.35-.7 15.87 5.44 14.88 8.48 12.21 67.86.73 68.77-.75z"></path><path d="m622.81 932.62-7.04-9.94-.3-.68-2.64-12.2-.72-12.17.1-.73 4.17-11.77 5.82-10.7 2.28-.85.34-.4h.01l.34-.4.73.28-.31.8.5-.3.4.68-.34.4v.01l-1.12 1.33.41.22-5.75 10.57-3.87 11 .69 11.65 2.49 11.39 6.82 9.63-3.01 2.18zm-257.61 9.85-9.25-13.5-.28-.63-3.79-16.29-.71-16.37.1-.67 5.34-15.86 8.04-14.26 3.23 1.84-7.95 14.1-5.04 15.03.69 15.85 3.63 15.44 9.05 13.21-3.06 2.11zm33.97 0-9.25-13.5-.28-.63-3.79-16.29-.71-16.37.1-.67 5.35-15.86 8.04-14.26 3.23 1.84-7.96 14.1-5.03 15.03.69 15.85 3.63 15.44 9.05 13.21-3.07 2.11zm89.95 0-9.25-13.5-.28-.63-3.79-16.29-.72-16.37.1-.67 5.34-15.86 8.04-14.26 3.23 1.84-7.96 14.1-5.04 15.03.69 15.85 3.63 15.44 9.05 13.21-3.04 2.11zm10.38-144 25.18.56 24.86-.75 24.86.75 24.86-.75 24.8.74-4.35 6.35-5.81 10.94-22.75-4.2-22.93-2.72-22.7-4.19-22.93-2.72-23.09-4.01z"></path><path d="m499.5 874.39 25.18.56 24.86-.75h49.72l24.8.74-8.43 13.27-1.72 4.02-22.75-4.2-22.93-2.72-22.7-4.2-22.93-2.72-23.1-4z"></path><path class="st5" d="m591.02 899.93-3.3-4.33-11.38-10.6-.58-.02-3.13 2.44-7.51 7.52-7.32 5.25-1.24-11.56.74-13.45-.74-13.64.74-13.44-.73-13.85 13.48-.78 12.84.74 13.69-.66-.67 14.56.74 13.84-.74 13.64.74 13.84-2.27 13.58-3.36-3.08z"></path><path d="m555.34 834.7 3.71-.2.07 1.36-3.71.2-.07-1.36z"></path><path d="m594.06 904.41-4.05-3.77-3.29-4.33-10.72-9.95-2.63 2.05-7.34 7.37-6.74 7.51-3.23-1.15-.72-13.62.74-13.45-.74-13.64.74-13.44-.61-11.4-11.02-.64-12.7.74-.22-3.72 13.02-.75 12.71.74 12.91-.74 12.71.74 12.98-.62 1.94 1.95-.64 13.91.74 13.86-.74 13.64.74 13.84-.72 13.6-3.12 1.27zm-1.21-6.16.81.75.5-9.56-.74-13.84.74-13.64-.74-13.83.55-11.96-11.04.53h-.2l-12.7-.74-10.88.63.6 11.52-.74 13.44.74 13.64-.74 13.45.47 8.84 3.82-4.25 7.67-7.68 3.97-3.09 2.4.1 12.21 11.37 3.3 4.32z"></path><path class="st5" d="m1028.14 655.5-8.54-13.56-3.32-6.15h-.3l-3.29 6.1-9.24 13.75-4.27-2.14 5.46-15.39 2.77-6.4-.19-.23-6.79 1.24-16.07 1.85-2.44.23-1.02-4.67 17.42-6.02 6.78-1.84.07-.29-5.2-4.48-11.53-11.34-1.1-1.29 2.93-3.7 1.51.77 13.63 8.55 5.69 4.11.27-.13.3-6.9 2.07-14.74h4.77l2.07 14.73.3 6.91.27.13 5.65-4.09 7.13-3.63 4.21-2.73 2.98 3.76-3.45 3.29-5.3 6.23-5.3 4.57.07.32 21.92 6.96 2.35.85-1.06 4.65-2.3-.22-23.01-3.18-.2.26 2.74 6.31 5.42 15.17.43 1.66-4.25 2.06-1.04-1.34z"></path><path d="m996.22 670-3.25-1.57 3.14-7.62 2.03-7.81 5.39-15.08 2.02-4.66-4.93.9-16.14 1.86-16.48 1.59-.79-3.49 15.48-5.65 15.29-5.24 4.93-1.34-3.76-3.24-11.65-11.46-5.14-6.06-6.18-5.52 2.24-2.82 6.8 4.74 7.23 3.69 13.64 8.56 4.16 3.01.23-5.13 3.33-23.7.51-8.28h3.6l.51 8.28 3.35 23.87.21 4.97 4.3-3.08 7.11-3.62 20.47-13.32 2.23 2.82-17.64 16.8-5.36 6.28-3.89 3.35 20.26 6.44 15.57 5.68-.79 3.49-16.42-1.57-21.19-2.93 2.04 4.7 5.47 15.33 1.98 7.66 3.14 7.63-3.25 1.57-4.06-7.19-4.89-6.43-8.54-13.58-2.43-4.5-2.46 4.54-13.38 19.91c.04-.02-4.04 7.22-4.04 7.22zm33.92-15.6.98 1.28-.4-1.56-5.36-14.99-3.27-7.53 1.91-2.5 24.3 3.36 2.3.22-2.26-.82-23.27-7.39-.63-3.08 6.23-5.37 5.27-6.18 3.54-3.37-4.32 2.8-7.07 3.6-6.66 4.83-2.87-1.38-.36-8.23-2.06-14.61-2.06 14.62-.36 8.22-2.87 1.38-6.79-4.91-13.47-8.45-1.42-.72 1.03 1.21 11.39 11.21 6.24 5.37-.71 3.11-8.1 2.19-17.34 6 2.4-.23 15.99-1.84 8.14-1.49 1.98 2.49-3.32 7.65-5.43 15.31 9.17-13.65 3.92-7.26h3.18l3.97 7.34c.02-.04 8.46 13.37 8.46 13.37z"></path></svg>
