<svg xmlns="http://www.w3.org/2000/svg" width="584" height="496" fill="none"><mask id="a" width="584" height="496" x="0" y="0" maskUnits="userSpaceOnUse" style="mask-type:alpha"><path fill="#D9D9D9" d="M0 0h584v496H0z"/></mask><g mask="url(#a)"><mask id="b" width="590" height="496" x="-6" y="0" maskUnits="userSpaceOnUse" style="mask-type:alpha"><path fill="#766DF1" fill-rule="evenodd" d="M220 0c-11.046 0-20 8.954-20 20v308c0 11.046-8.954 20-20 20H14c-11.046 0-20 8.954-20 20v108c0 11.046 8.954 20 20 20h255c11.046 0 20-8.954 20-20V368c0-11.046 8.954-20 20-20h255c11.046 0 20-8.954 20-20V20c0-11.046-8.954-20-20-20H220z" clip-rule="evenodd"/></mask><g mask="url(#b)"><path fill="#766DF1" fill-rule="evenodd" d="M220 0c-11.046 0-20 8.954-20 20v308c0 11.046-8.954 20-20 20H48c-11.046 0-20 8.954-20 20v108c0 11.046 8.954 20 20 20h221c11.046 0 20-8.954 20-20V368c0-11.046 8.954-20 20-20h255c11.046 0 20-8.954 20-20V20c0-11.046-8.954-20-20-20H220z" clip-rule="evenodd"/><path fill="#fff" d="M243-13.5C243 9.42 224.42 28 201.5 28H160v-41.5c0-22.92 18.58-41.5 41.5-41.5S243-36.42 243-13.5zm0 83c0-22.92 18.58-41.5 41.5-41.5H326v41.5c0 22.92-18.58 41.5-41.5 41.5S243 92.42 243 69.5zm-83 0c0 22.92 18.58 41.5 41.5 41.5H243V69.5c0-22.92-18.58-41.5-41.5-41.5S160 46.58 160 69.5zm166-83c0-22.92-18.58-41.5-41.5-41.5H243v41.5C243 9.42 261.58 28 284.5 28S326 9.42 326-13.5z"/><path fill="#222" d="m608.747 263.867 27.336 29.417-47.03 12.774 19.694-42.191zm-302.805-57.826c19.501-3.717 40.405-8.293 55.908-21.098 7.265-5.997 12.36-13.523 15.737-21.861 3.068-7.571 4.956-15.453 7.589-23.138 2.516-7.34 5.765-14.789 11.613-20.518 4.274-4.184 9.486-7.182 15.084-8.444 4.148-.933 8.673-.779 12.865.175 4.877 1.11 8.874 2.881 13.244 5.275 9.816 5.369 18.186 12.335 26.784 19.264 8.427 6.792 16.871 13.837 26.533 19.135 7.949 4.357 17.413 7.578 26.931 5.211 12.84-3.192 22.548-15.145 26.134-26.467 5.099-16.093.671-32.7 1.177-48.934.269-8.57 2.229-16.883 6.792-24.565 4.952-8.327 12.226-15.466 20.759-20.735a68.508 68.508 0 0 1 13.183-6.336c2.807-.99 1.762-5.154-1.073-4.157-19.241 6.78-35.895 21.553-41.822 40.104-5.181 16.225-.798 32.884-1.281 49.259-.236 7.895-1.723 15.892-6.186 22.896-3.242 5.083-7.892 9.737-13.123 12.567-3.75 2.031-7.479 2.962-11.78 2.857-2.261-.056-3.662-.271-6.028-.858a38.136 38.136 0 0 1-6.036-2.048c-9.864-4.248-17.978-10.761-26.097-17.238-8.806-7.026-17.405-14.355-26.992-20.484-8.178-5.228-17.716-9.933-28.087-9.883-13.255.071-24.763 8.56-31.029 19.199-8.348 14.173-8.997 30.919-17.688 44.924-10.47 16.871-30.778 24.322-49.906 28.772-4.741 1.103-9.512 2.055-14.293 2.964-2.952.562-1.866 4.716 1.072 4.158l.016.004z"/><path fill="#FED67A" d="M512.775 170.613c3.798-6.438 1.658-14.735-4.78-18.532-6.437-3.797-14.734-1.657-18.531 4.78-3.798 6.437-1.658 14.734 4.78 18.532 6.437 3.797 14.734 1.657 18.531-4.78z"/><path fill="#fff" d="m535.933 212.639 5.163 3.045 3.045-5.162-5.162-3.045-3.046 5.162z"/><path fill="#FED67A" d="m418.886 186.815 3.772 2.225 2.225-3.772-3.772-2.225-2.225 3.772z"/><path fill="#fff" d="m558.999 156.485 9.485 5.595 5.596-9.485-9.485-5.595-5.596 9.485z"/><path fill="#FED67A" d="m363.758 49.82 8.062 7.502 7.502-8.062-8.061-7.502-7.503 8.062z"/><path fill="#fff" d="m217.001 177.062 8.061 7.502 7.503-8.062-8.062-7.502-7.502 8.062z"/><path fill="#222" d="m478.872 334.477 115.174-29.707a16.567 16.567 0 0 0 12.369-14.585l5.996-67.687c.338-3.812-3.198-6.815-6.907-5.858L490.33 246.347a16.569 16.569 0 0 0-12.368 14.585l-5.997 67.687c-.338 3.812 3.199 6.815 6.907 5.858z"/><path fill="#6AD9C5" d="m473.878 335.765 115.174-29.707a16.568 16.568 0 0 0 12.369-14.585l5.996-67.688c.338-3.811-3.199-6.814-6.907-5.858l-115.174 29.708a16.567 16.567 0 0 0-12.369 14.585l-5.996 67.687c-.338 3.812 3.199 6.815 6.907 5.858z"/><path fill="#fff" d="M472.807 331.608a1.231 1.231 0 0 1-1.121-.256 1.225 1.225 0 0 1-.438-1.062l5.996-67.688a12.3 12.3 0 0 1 9.167-10.806l115.174-29.707c.544-.141.935.1 1.121.256.187.156.485.505.438 1.062l-5.996 67.687a12.304 12.304 0 0 1-9.167 10.807l-115.174 29.707zM339.269 134.67l.83 46.571-43.593 11.199 7.261-66.51 35.502 8.74z"/><path fill="#222" d="m341.186 182.073-45.918 11.796 7.561-69.27 37.497 9.227.86 48.247zm-43.447 8.941 41.273-10.603-.799-44.897-33.515-8.247-6.959 63.747z"/><path fill="#FED67A" d="M300.052 249.957c9.273-15.736 3.998-36.046-11.782-45.365-15.781-9.318-36.091-4.115-45.365 11.621-9.274 15.736-3.999 36.047 11.782 45.365 15.78 9.318 36.091 4.115 45.365-11.621z"/><path fill="#FED67A" d="m238.976 226.339-14.13 72.055 62.712 9.727 15.791-66.222-64.373-15.56z"/><path fill="#fff" d="m287.437 308.056-4.36 22.241 32.113 45.202-41.733 10.721-34.435-29.25c-14.519-11.776-20.986-30.868-16.603-49.018l2.321-9.616 62.698 9.724-.001-.004z"/><path fill="#222" d="m316.966 376.149-43.779 11.247-34.861-29.612c-14.75-11.966-21.41-31.634-16.952-50.092l2.556-10.573 64.773 10.048-4.484 22.886 32.747 46.096zm-43.243 8.889 39.691-10.196-31.478-44.305 4.234-21.597-60.618-9.402-2.09 8.661c-4.263 17.658 2.109 36.468 16.232 47.928l34.032 28.906-.003.005z"/><path fill="#FED67A" d="m251.294 206.653 40.015-29.108 45.238-8.276 38.676 9.298 44.223 170.782-120.578 30.979-47.574-173.675z"/><path fill="#FED67A" d="M399.294 228.218c9.274-15.736 3.999-36.047-11.782-45.365-15.781-9.318-36.091-4.115-45.365 11.621-9.274 15.736-3.999 36.047 11.782 45.365 15.781 9.318 36.091 4.115 45.365-11.621z"/><path fill="#FED67A" d="m399.817 195.612 22.997 39.04-49.287 32.344-28.364-34.85 54.654-36.534z"/><path fill="#fff" d="m422.836 234.525 21.01 38.148 25.163-32.693a23.962 23.962 0 0 0 4.065-21.096l-7.887-28.093s4.969-5.161 8.241 1.729c3.674 7.741 5.711 11.556 5.711 11.556l18.001-39.334c.642-1.403 1.768-2.559 3.202-3.127 1.847-.732 4.012-.476 3.802 4.955a6.275 6.275 0 0 1-.252 1.522l-5.956 20.241s5.58.054 6.135 6.487c0 0 4.709 3.378 4.514 7.397 0 0 4.749 4.486 3.671 7.489 0 0 .439 19.358-9.073 28.004l-37.196 74.89c-10.541 21.223-39.697 23.895-54.041 4.957l-38.39-50.694 49.275-32.337.005-.001z"/><path fill="#222" d="M445.763 330.299a33.26 33.26 0 0 1-5.264.909c-11.449 1.049-22.44-3.813-29.399-13.006l-39.083-51.613 51.2-33.605 20.784 37.731 24.165-31.397c4.376-5.689 5.83-13.22 3.881-20.148l-8.053-28.684.426-.443c.101-.106 2.544-2.603 5.45-2.119 1.851.306 3.372 1.7 4.53 4.138a393.046 393.046 0 0 0 4.682 9.565l17.088-37.337c.786-1.716 2.127-3.019 3.781-3.675 1.747-.693 2.892-.29 3.539.174 1.282.914 1.85 2.819 1.735 5.828a7.023 7.023 0 0 1-.296 1.781l-5.6 19.031c2.257.526 5.195 2.347 5.764 6.819 1.163.935 4.448 3.892 4.569 7.52 1.182 1.197 4.585 4.985 3.67 8.102.022 2.139-.059 19.93-9.278 28.496l-37.105 74.711c-4.314 8.683-12.02 14.863-21.187 17.218l.001.004zm-70.656-63.163 37.695 49.776c6.509 8.598 16.789 13.141 27.493 12.159 10.705-.983 19.952-7.319 24.736-16.953l37.283-75.068.151-.136c9.047-8.221 8.727-26.996 8.722-27.186l-.002-.199.066-.186c.636-1.77-2.013-5.038-3.396-6.343l-.363-.342.023-.494c.166-3.377-4.023-6.439-4.066-6.468l-.402-.288-.044-.495c-.453-5.252-4.606-5.49-5.077-5.498l-1.407-.029.389-1.352 5.956-20.242c.123-.413.19-.839.206-1.256.116-2.987-.541-3.782-.829-3.987-.391-.278-1.034-.112-1.509.072-1.14.453-2.072 1.367-2.626 2.579l-18.9 41.297-1.022-1.909c-.019-.039-2.096-3.924-5.737-11.603-.836-1.761-1.818-2.747-2.929-2.933-1.25-.211-2.489.595-3.127 1.106l7.704 27.442c2.127 7.579.542 15.819-4.245 22.039l-26.16 33.988-21.244-38.568-47.348 31.075.009.002z"/><path fill="#222" d="M496.041 196.646a1.076 1.076 0 0 1-1.289-1.369l2.674-8.512a1.07 1.07 0 0 1 1.346-.697c.564.179.88.782.7 1.352l-2.673 8.512c-.114.366-.41.624-.754.713l-.004.001zm6.738 7.178a1.064 1.064 0 0 1-.493.012 1.083 1.083 0 0 1-.826-1.275l1.703-8c.125-.578.693-.95 1.27-.823.577.127.946.698.825 1.275l-1.703 7.999a1.065 1.065 0 0 1-.781.813l.005-.001zm4.351 9.528a1.109 1.109 0 0 1-.46.017 1.076 1.076 0 0 1-.86-1.253l1.855-10.146a1.067 1.067 0 0 1 1.247-.857c.581.108.966.67.86 1.252l-1.855 10.146a1.07 1.07 0 0 1-.786.845l-.001-.004zm-58.188 69.134a1.076 1.076 0 0 1-1.206-.524l-8.193-14.832a1.076 1.076 0 0 1 .418-1.46 1.075 1.075 0 0 1 1.458.423l8.193 14.832a1.078 1.078 0 0 1-.67 1.561z"/><path fill="#fff" d="M364.897 94.379c-2.01-3.932-8.366-6.241-10.807-9.445-3.467-4.551-7.114-8.325-10.2-11.185-4.758-4.406-10.758-7.269-17.173-8.129-55.81-7.475-22.843 60.327-22.843 60.327l27.595 19.661c16.921 6.009 34.719-6.367 35.418-24.316.318-8.241-1.547-15.801-4.495-22.484-.471-1.068 3.032-3.402 2.51-4.426l-.005-.004z"/><path fill="#222" d="M347.016 147.372c-5.179 1.33-10.674 1.104-15.904-.753a1.076 1.076 0 0 1-.656-1.372 1.07 1.07 0 0 1 1.367-.653c7.648 2.714 15.906 1.649 22.661-2.932 6.88-4.662 11.007-12.105 11.329-20.418.283-7.335-1.197-14.741-4.407-22.009-.515-1.168.483-2.29 1.45-3.373.309-.346.799-.898.975-1.21-1.06-1.871-3.358-3.43-5.585-4.935-1.97-1.336-3.837-2.596-5.011-4.137-2.939-3.862-6.331-7.576-10.076-11.048-4.648-4.306-10.383-7.02-16.583-7.85-13.334-1.786-22.519.676-27.297 7.319-11.479 15.96 5.385 51.117 5.557 51.473a1.077 1.077 0 0 1-.491 1.436 1.08 1.08 0 0 1-1.435-.497c-.722-1.489-17.596-36.666-5.372-53.665 5.276-7.335 15.137-10.09 29.315-8.193 6.645.89 12.784 3.796 17.758 8.405 3.838 3.555 7.312 7.364 10.324 11.322.959 1.258 2.683 2.427 4.502 3.66 2.534 1.715 5.153 3.488 6.41 5.948.599 1.17-.413 2.304-1.394 3.404-.325.367-.85.955-1.01 1.262 3.287 7.511 4.801 15.17 4.504 22.775-.348 8.998-4.82 17.059-12.269 22.106a27.66 27.66 0 0 1-8.668 3.927l.006.008z"/><path fill="#222" d="M344.057 73.201s-.211-24.68-32.925-23.539c-23.956.836-44.427 17.371-51.024 40.448-3.365 11.777-5.155 26.355-2.118 42.695 1.809 9.738.763 19.787-3.185 28.851 0 0 9.347 21.409 73.251 4.247l-15.628-60.344s26.368-.807 27.52-30.787c0 0 2.087-.199 4.109-1.57z"/><path fill="#222" d="M325.367 167.721c-25.26 6.489-44.832 7.673-58.211 3.518-10.674-3.314-13.227-8.918-13.329-9.158l-.187-.432.185-.429c3.83-8.803 4.906-18.562 3.113-28.224-2.669-14.357-1.947-28.887 2.141-43.19 6.805-23.81 27.707-40.371 52.014-41.221 11.571-.402 20.477 2.31 26.475 8.067 7.399 7.099 7.558 16.16 7.564 16.54l.006.57-.474.323a10.958 10.958 0 0 1-3.68 1.589c-.852 15.394-8.418 22.985-14.68 26.653-5.162 3.027-10.198 3.925-12.516 4.188l15.576 60.144-1.022.276c-.997.27-1.992.53-2.972.781l-.003.005zm-69.368-6.123c.76 1.221 3.782 5.182 12.122 7.692 9.016 2.71 26.13 4.205 56.802-3.674.606-.156 1.217-.313 1.829-.479l-15.698-60.615 1.339-.042c.062-.002 6.469-.254 12.897-4.05 8.556-5.053 13.13-13.7 13.589-25.707l.036-.938.929-.087s1.52-.164 3.104-1.077c-.172-2.03-1.169-8.975-6.89-14.449-5.562-5.32-13.936-7.825-24.888-7.445-23.377.816-43.484 16.756-50.035 39.67-3.994 13.981-4.7 28.179-2.095 42.205 1.84 9.908.789 19.918-3.043 28.988l.002.008zm-30.947 137.871a1.08 1.08 0 0 1-1.32-1.254l5.068-25.841c.115-.58.676-.96 1.259-.843.579.117.96.681.845 1.265l-5.068 25.841a1.06 1.06 0 0 1-.78.831l-.004.001zm73.691 81.269c-.57.147-1.153-.2-1.301-.773l-31.898-123.621a1.07 1.07 0 0 1 .764-1.306 1.07 1.07 0 0 1 1.301.773l31.898 123.621a1.07 1.07 0 0 1-.764 1.306z"/><path fill="#fff" d="M326.483 104.526s-11.965-11.804-15.377-4.229c-3.412 7.569-.324 22.4 5.96 23.013 6.285.618 13.03-4.834 13.03-4.834l-3.613-13.95z"/><path fill="#222" d="M321.683 123.949c-1.523.391-3.128.586-4.721.431-2.093-.203-3.976-1.664-5.457-4.217-3.211-5.549-3.845-14.849-1.379-20.316.769-1.712 2.043-2.776 3.66-3.076 5.209-.96 12.618 6.168 13.445 6.986a1.072 1.072 0 1 1-1.502 1.531c-2.032-1.999-8.061-7.046-11.55-6.403-.929.172-1.617.78-2.102 1.849-2.178 4.834-1.577 13.411 1.283 18.353.778 1.345 2.069 2.98 3.804 3.151 5.762.565 12.191-4.553 12.253-4.604a1.073 1.073 0 0 1 1.507.163 1.073 1.073 0 0 1-.158 1.51c-.22.176-4.246 3.394-9.084 4.637l.001.005z"/><path fill="#222" d="M323.99 113.613c-4.847 1.245-8.75-1.764-8.927-1.901a1.072 1.072 0 1 1 1.321-1.69c.045.037 3.665 2.777 7.768 1.292a1.078 1.078 0 0 1 .737 2.023c-.3.108-.6.199-.895.274l-.004.002zm49.745 154.412a1.069 1.069 0 0 1-1.099-.365l-13.644-16.769a1.074 1.074 0 0 1 .153-1.512 1.07 1.07 0 0 1 1.509.158l13.645 16.768a1.075 1.075 0 0 1-.56 1.719l-.004.001zm49.377-32.394a1.068 1.068 0 0 1-1.19-.497l-7.693-13.063a1.07 1.07 0 1 1 1.842-1.085l7.692 13.062a1.07 1.07 0 0 1-.651 1.583zm-60.771-117.393c-6.248 1.606-10.609-2.54-10.663-2.593a1.074 1.074 0 0 1-.021-1.52 1.071 1.071 0 0 1 1.515-.02c.23.221 5.608 5.249 12.927-.06a1.077 1.077 0 0 1 1.262 1.743c-1.764 1.28-3.45 2.042-5.017 2.445l-.003.005zm-17.709-25.062a1.078 1.078 0 0 1-1.332-1.19c1.211-9.062 9.072-9.443 9.151-9.445a1.081 1.081 0 0 1 1.114 1.037 1.068 1.068 0 0 1-1.027 1.112c-.258.013-6.143.362-7.111 7.588a1.069 1.069 0 0 1-.795.898zm9.64 3.394c.741-.416.5-2.252-.538-4.103-1.039-1.85-2.481-3.014-3.222-2.599-.741.415-.5 2.252.538 4.102 1.038 1.85 2.48 3.014 3.222 2.6zm153.295 189.98-22.132 5.686-.019-1.372c-.148-12.22 9.061-24.556 20.535-27.504l1.324-.34.288 23.531.004-.001zm-19.976 2.912 17.813-4.577-.231-19.056c-9.526 3.149-17.07 13.282-17.578 23.632l-.004.001z"/><path fill="#FED67A" d="m510.291 288.91-.134-17.358.515-.133c9.207-2.316 16.796 3.785 16.915 13.598.119 9.862-7.309 19.821-16.558 22.197-9.25 2.376-16.876-3.715-16.995-13.577l-.006-.554 16.262-4.177.001.004z"/><path fill="#6AD9C5" d="m485.617 11.146-47.989 12.328c-7.504 1.928-12.009 9.593-10.06 17.119l12.463 48.125c1.949 7.525 9.614 12.064 17.119 10.136l11.891-3.055 11.13 10.211c2.77 2.542 7.225 1.384 8.401-2.176l4.7-14.26 11.867-3.048c7.504-1.928 12.009-9.593 10.06-17.118l-12.464-48.126c-1.948-7.525-9.613-12.064-17.118-10.136z"/><path fill="#fff" d="m470.515 49.68-17.848-12.398a3.654 3.654 0 0 0-5.37 1.38l-9.6 19.45c-.509 1.027.427 2.18 1.535 1.895l7.391-1.898 5.639 21.775a3.807 3.807 0 0 0 4.627 2.74l8.74-2.246a3.789 3.789 0 0 0 2.719-4.627l-5.639-21.775 7.391-1.899c1.108-.284 1.367-1.745.423-2.399l-.008.002zm34.579 2.23-9.601 19.449a3.654 3.654 0 0 1-5.37 1.38L472.276 60.34c-.944-.654-.685-2.115.423-2.4l7.391-1.898-5.639-21.776a3.789 3.789 0 0 1 2.719-4.626l8.74-2.246a3.807 3.807 0 0 1 4.627 2.74l5.639 21.775 7.391-1.899c1.108-.284 2.044.869 1.535 1.896l-.008.002z"/><path fill="#FED67A" d="M496.759 146.837a2.148 2.148 0 0 1-2.615-1.543l-2.184-8.468a2.147 2.147 0 0 1 4.157-1.073l2.185 8.469a2.148 2.148 0 0 1-1.543 2.615zm13.385 1.456a2.159 2.159 0 0 1-1.464-.142 2.152 2.152 0 0 1-1.009-2.865l3.782-7.888a2.15 2.15 0 0 1 2.862-1.009 2.154 2.154 0 0 1 1.009 2.866l-3.783 7.888a2.147 2.147 0 0 1-1.401 1.151l.004-.001zm9.3 9.732a2.147 2.147 0 0 1-1.418-4.037l7.97-3.599a2.146 2.146 0 1 1 1.767 3.912l-7.97 3.599a2.168 2.168 0 0 1-.35.121l.001.004zm9.267 15.816a2.13 2.13 0 0 1-1.117-.014l-8.417-2.378a2.146 2.146 0 1 1 1.169-4.132l8.417 2.378a2.147 2.147 0 0 1-.048 4.145l-.004.001zm-11.51 15.684a2.147 2.147 0 0 1-2.314-.875l-4.904-7.239a2.146 2.146 0 1 1 3.556-2.407l4.904 7.239a2.148 2.148 0 0 1-1.242 3.282zm-36.325-4.069a2.146 2.146 0 0 1-2.029-3.622l6.295-6.071a2.146 2.146 0 0 1 2.978 3.089l-6.295 6.071a2.143 2.143 0 0 1-.953.534l.004-.001zm.977-18.44a2.05 2.05 0 0 1-.393.061l-8.725.588a2.151 2.151 0 0 1-2.288-1.995 2.155 2.155 0 0 1 1.995-2.288l8.725-.588a2.151 2.151 0 0 1 2.288 1.995 2.148 2.148 0 0 1-1.603 2.223l.001.004zm3.89-12.886a2.136 2.136 0 0 1-1.805-.346l-7.057-5.168a2.148 2.148 0 1 1 2.538-3.465l7.057 5.167a2.147 2.147 0 0 1-.733 3.812z"/><path fill="#222" d="M537.063 236.581a.986.986 0 1 1-1.91.493.986.986 0 0 1 1.91-.493z"/><path fill="#FED67A" d="m586.973 248.044-44.47 11.471.769-10.942 44.47-11.47-.769 10.941z"/><path fill="#222" d="m586.614 259.745-41.556 10.719a1.074 1.074 0 1 1-.536-2.078l41.556-10.719a1.074 1.074 0 1 1 .536 2.078zm-1.179 13.859-41.557 10.719a1.074 1.074 0 0 1-.536-2.079l41.557-10.719a1.074 1.074 0 0 1 .536 2.079zm-23.341 19.575-19.394 5.002a1.074 1.074 0 0 1-.536-2.079l19.394-5.002a1.075 1.075 0 0 1 .536 2.079zm81.199-.646L235.066 397.828a1.074 1.074 0 1 1-.536-2.079l408.227-105.295a1.074 1.074 0 0 1 .536 2.079z"/><path fill="#fff" d="M210 454.5c0 11.874-9.626 21.5-21.5 21.5H167v-21.5c0-11.874 9.626-21.5 21.5-21.5s21.5 9.626 21.5 21.5zm0 43c0-11.874 9.626-21.5 21.5-21.5H253v21.5c0 11.874-9.626 21.5-21.5 21.5s-21.5-9.626-21.5-21.5zm-43 0c0 11.874 9.626 21.5 21.5 21.5H210v-21.5c0-11.874-9.626-21.5-21.5-21.5s-21.5 9.626-21.5 21.5zm86-43c0-11.874-9.626-21.5-21.5-21.5H210v21.5c0 11.874 9.626 21.5 21.5 21.5s21.5-9.626 21.5-21.5z"/></g><path fill="#fff" d="m87 372.559 4.572 4.559 4.572-4.559L91.572 368 87 372.559zm-31 93.375 7.957 7.934 7.956-7.934L63.957 458l-7.956 7.934z"/><path fill="#6AD9C5" d="m52 347.907 9.935 9.907 9.936-9.907L61.936 338 52 347.907zm25 76 9.936 9.907 9.935-9.907L86.936 414 77 423.907z"/><path fill="#FED67A" d="M114.116 318.573c1.674-10.093-5.174-19.629-15.297-21.298-10.122-1.669-19.684 5.16-21.358 15.254-1.674 10.093 5.174 19.629 15.297 21.298 10.122 1.669 19.685-5.16 21.358-15.254z"/><path fill="#fff" d="m195.925 359.089-26.979-16.58s.644-31.391-4.558-27.649c-5.201 3.739-5.591 17.759-5.591 17.759l-20.073-14.807-29.892 15.56 19.94 17.579 27.86 18.24 47.801 33.331-8.501-43.43-.007-.003z"/><path fill="#222" d="m205.584 404.289-48.609-33.932-28.685-18.78-.041-.038-20.802-18.338 31.354-16.318 19.287 14.226c.263-3.796 1.372-13.68 5.841-16.894.954-.686 1.743-.449 2.13-.246 1.189.622 2.843 2.888 3.474 15.322.288 5.651.238 11.189.215 12.778l26.891 16.527 8.945 45.693zm-76.33-53.97 28.612 18.729 45.413 31.701-8.06-41.17-27.071-16.637.009-.452c0-.063.127-6.52-.209-13.126-.612-12.032-2.168-13.755-2.628-13.995-.053-.029-.164-.086-.465.129-4.825 3.468-5.259 17.004-5.262 17.14l-.041 1.514-20.897-15.414-28.434 14.798 19.033 16.779v.004z"/><path fill="#6AD9C5" d="m324.072 359.409 8.644 135.801H228.164l2.453-100.264 20.083-32.269 21.54-15.927 51.832 12.659z"/><path fill="#fff" d="m272.239 346.75-13.671-23.047 27.649-7.456 16.313 24.95-28.329 20.522-1.962-14.969z"/><path fill="#222" d="m273.588 363.141-2.111-16.128-14.118-23.803 29.211-7.876 17.04 26.062-30.019 21.745h-.003zm-13.804-38.945 13.22 22.292.023.161 1.787 13.651 26.644-19.299-15.585-23.84-26.089 7.035z"/><path fill="#fff" d="M259.698 297.315c-5.227 3.468-8.793 8.929-9.81 15.105-1.293 7.86-2.311 19.185.532 27.27 4.783 13.612 29.873-5.87 29.873-5.87l10.565-10.562s5.467-30.326-7.519-33.392c-7.578-1.789-17.058 3.082-23.641 7.449z"/><path fill="#222" d="M257.415 345.306c-.973 0-1.895-.114-2.754-.367-2.393-.701-4.07-2.38-4.986-4.99-2.881-8.199-1.898-19.568-.564-27.659 1.043-6.346 4.745-12.045 10.152-15.632 6.739-4.472 16.416-9.412 24.263-7.56 13.56 3.202 8.343 33.034 8.114 34.302a.794.794 0 0 1-.919.638.789.789 0 0 1-.64-.916c.054-.297 5.189-29.625-6.919-32.485-7.29-1.722-16.542 3.041-23.018 7.339-5.042 3.347-8.494 8.66-9.467 14.574-1.303 7.911-2.273 18.998.498 26.88.748 2.131 2.038 3.439 3.936 3.995 8.27 2.425 24.536-10.101 24.701-10.227a.793.793 0 0 1 1.112.139c.27.344.206.84-.139 1.109-.628.487-14.105 10.86-23.366 10.863l-.004-.003zm-8.818 25.803a.79.79 0 0 1-.763-.999l2.174-7.904 21.759-16.091a.792.792 0 1 1 .945 1.271l-21.319 15.765-2.028 7.377a.793.793 0 0 1-.764.581h-.004z"/><path fill="#fff" d="M104.303 293.494h-8.514v45.756h8.514v-45.756z"/><path fill="#222" d="M105.096 340.037H94.998v-47.333h10.098v47.336-.003zm-8.513-1.58h6.929v-44.173h-6.93v44.176-.003z"/><path fill="#fff" d="M259.876 310.261h-4.888v12.09h4.888v-12.09z"/><path fill="#222" d="M260.668 323.141h-6.473v-13.67h6.473v13.67zm-4.888-1.581h3.303v-10.509h-3.303v10.509z"/><path fill="#222" d="m104.303 334.879 150.684-13.489v-10.168l-150.684-13.489v37.146z"/><path fill="#222" d="M103.512 335.745V296.87l.862.076 151.407 13.555v11.616l-.723.066-151.546 13.565v-.003zm1.585-37.15v35.421l149.099-13.347v-8.726l-149.099-13.348z"/><path fill="#6AD9C5" d="M302.531 384.156c11.896 0 21.54-9.617 21.54-21.479 0-11.863-9.644-21.48-21.54-21.48-11.897 0-21.541 9.617-21.541 21.48 0 11.862 9.644 21.479 21.541 21.479z"/><path fill="#6AD9C5" d="m292.362 343.738-38.71 21.752 20.549 36.833 38.139-20.522-19.978-38.063z"/><path fill="#fff" d="m253.653 365.49-15.844 9.194-33.702-45.355c-14.083-20.55-34.283-29.34-59.246-29.286l-11.718.025c-1.632.004-3.242.468-4.577 1.404-1.832 1.28-3.017 3.249 2.517 5.104l8.31 2.44-5.299 1.596c-2.048.616-3.832 1.947-4.897 3.799-1.018 1.77-1.217 3.79 2.26 4.615a9.49 9.49 0 0 0 3.043.199l15.933-1.413-14.618 4.384c-2.013.603-3.765 1.902-4.83 3.71-1.129 1.922-1.189 4.008 4.139 3.806l19.236-3.161-11.677 9.567c-1.277 1.046-2.171 2.513-2.418 4.144-.295 1.947.437 3.704 5.525 1.198 8.846-4.359 17.131-10.598 17.131-10.598s.587 10.556 15.468 11.663l22.703 60.117c7.027 17.523 27.905 24.893 44.422 15.68l28.678-15.996-20.548-36.83.009-.006z"/><path fill="#222" d="M230.212 423.088c-3.617 0-7.243-.607-10.726-1.836a32.109 32.109 0 0 1-19.122-18.316l-22.533-59.665c-7.654-.693-11.505-3.916-13.394-6.53a12.77 12.77 0 0 1-2.076-4.485c-2.517 1.811-9.227 6.466-16.216 9.911-2.853 1.407-4.7 1.685-5.813.876-.767-.559-1.052-1.536-.846-2.898.272-1.786 1.23-3.433 2.697-4.634l9.398-7.699-16.374 2.69h-.051c-2.833.11-4.551-.402-5.252-1.568-.542-.901-.409-2.054.4-3.426 1.144-1.944 3.02-3.388 5.283-4.068l7.189-2.155-8.203.727a10.335 10.335 0 0 1-3.296-.218c-1.722-.411-2.828-1.154-3.287-2.213-.435-1.005-.26-2.206.523-3.565 1.144-1.991 3.046-3.467 5.353-4.162l2.758-.829-5.763-1.69c-2.9-.974-4.393-2.105-4.592-3.471-.152-1.055.466-2.079 1.841-3.04 1.442-1.009 3.182-1.543 5.03-1.546l11.718-.025c12.853-.022 24.304 2.326 34.048 6.994 10.218 4.899 18.916 12.513 25.854 22.636l33.261 44.761 15.927-9.245 21.325 38.224-29.369 16.382a32.217 32.217 0 0 1-15.696 4.08l.004.003zm-66.577-93.753.082 1.48c.025.401.77 9.88 14.735 10.919l.504.038 22.882 60.589c3.258 8.126 9.885 14.472 18.174 17.399a30.647 30.647 0 0 0 25.119-2.13l27.99-15.61-19.768-35.44-15.76 9.144L203.47 329.8c-13.363-19.498-32.457-28.967-58.38-28.967h-.225l-11.718.025c-1.522 0-2.948.44-4.124 1.258-.808.566-1.239 1.119-1.182 1.521.035.249.396 1.147 3.499 2.187l10.834 3.179-7.845 2.361c-1.921.579-3.496 1.799-4.438 3.436-.358.623-.725 1.501-.44 2.152.311.718 1.366 1.103 2.2 1.302a8.706 8.706 0 0 0 2.789.181l23.664-2.096-22.051 6.612c-1.879.563-3.433 1.754-4.374 3.353-.276.471-.697 1.331-.406 1.815.168.278.869.904 3.782.802l22.098-3.628-13.959 11.435c-1.166.955-1.924 2.25-2.136 3.651-.108.704-.029 1.207.212 1.384.2.145 1.094.502 4.178-1.015 8.675-4.276 16.925-10.458 17.008-10.521l1.185-.895-.006.003z"/><path fill="#222" d="M138.172 310.173a.79.79 0 0 1-.304-1.52c.092-.038 2.279-.927 8.01-1.571a.793.793 0 0 1 .878.695.794.794 0 0 1-.698.876c-5.455.616-7.559 1.45-7.581 1.46a.78.78 0 0 1-.301.06h-.004zm11.465 8.499a.79.79 0 0 1-.149-1.565l7.787-1.511a.793.793 0 0 1 .929.626.789.789 0 0 1-.628.926l-7.787 1.511a.882.882 0 0 1-.152.016v-.003zm3.097 10.006a.788.788 0 0 1-.669-.367.788.788 0 0 1 .244-1.09l7.794-4.94a.794.794 0 0 1 1.094.243.788.788 0 0 1-.244 1.091l-7.794 4.94a.807.807 0 0 1-.425.123zm28.982 14.89c-3.185 0-5.581-.497-5.714-.525a.792.792 0 0 1-.612-.936.792.792 0 0 1 .938-.61c.041.01 4.212.873 8.729.285a.79.79 0 1 1 .203 1.568 27.605 27.605 0 0 1-3.55.221l.006-.003zm90.359 60.73a.786.786 0 0 1-.697-.414.787.787 0 0 1 .32-1.071l25.607-13.818a.792.792 0 1 1 .754 1.391l-25.607 13.818a.778.778 0 0 1-.377.094zm-18.422-38.018a.79.79 0 0 1-.39-1.479l19.829-11.142a.79.79 0 1 1 .779 1.378l-19.828 11.142a.796.796 0 0 1-.39.101zm-9.671-62.144c3.069 1.577 7.176 2.731 12.676 2.99l17.077-1.9s6.583 14.166 14.032 15.547c7.448 1.382 12.846-6.273 13.86-24.399.983-17.583-14.031-11.189-14.031-11.189s-43.835-20.041-50.457-1.574c-3.261 9.096-1.765 16.097 6.843 20.525z"/><path fill="#222" d="M289.44 321.725a9.831 9.831 0 0 1-1.819-.174c-7.021-1.302-13.062-12.842-14.358-15.478l-16.58 1.846h-.064c-5.131-.246-9.505-1.28-13.001-3.078-8.485-4.365-10.847-11.394-7.227-21.495 1.132-3.155 3.357-5.446 6.612-6.815 13.591-5.708 41.188 6.268 44.611 7.798 1.42-.535 6.967-2.336 10.929.436 2.891 2.019 4.193 5.942 3.873 11.656-.665 11.931-3.315 20.035-7.664 23.439-1.585 1.242-3.366 1.865-5.312 1.865zm-15.227-17.346.241.516c.064.139 6.498 13.811 13.458 15.104 2.2.408 4.171-.057 5.864-1.381 3.978-3.116 6.422-10.822 7.062-22.285.285-5.13-.789-8.585-3.195-10.272-3.753-2.63-9.677-.171-9.734-.149l-.323.136-.32-.145c-.298-.136-30.089-13.616-43.645-7.918-2.831 1.189-4.758 3.17-5.734 5.892-3.353 9.349-1.3 15.566 6.46 19.557 3.277 1.688 7.413 2.662 12.285 2.899l17.581-1.957v.003z"/><path fill="#fff" d="M280.551 315.618s3.597-12.417 8.703-9.266c2.46 1.517 4.013 4.763 4.964 7.718 1.068 3.322-.485 6.918-3.626 8.454l-5.214 2.548-4.827-9.45v-.004z"/><path fill="#222" d="M285.378 325.859a.8.8 0 0 1-.713-.443.785.785 0 0 1 .364-1.055l5.214-2.545c2.777-1.355 4.159-4.579 3.221-7.503-1.164-3.619-2.761-6.138-4.625-7.288-.694-.427-1.331-.506-2.006-.247-2.669 1.024-4.891 6.89-5.522 9.062a.793.793 0 0 1-1.524-.436c.253-.876 2.593-8.607 6.472-10.099 1.129-.433 2.308-.303 3.411.377 2.221 1.368 4.003 4.111 5.302 8.148 1.176 3.663-.558 7.708-4.031 9.402l-5.214 2.545a.819.819 0 0 1-.349.082z"/><path fill="#222" d="M284.786 318.934a.794.794 0 0 1-.742-.512.789.789 0 0 1 .46-1.018c.038-.016 2.694-1.068 3.613-3.802a.79.79 0 0 1 1.005-.496.79.79 0 0 1 .497 1.002c-1.169 3.467-4.415 4.725-4.554 4.775a.785.785 0 0 1-.279.051zm-28.391 16.682a6.446 6.446 0 0 0 4.862-1.378c1.28-1.05 2.051-2.766 1.854-4.425-.051-.424-.326-.79-.792-.79-.39 0-.843.363-.793.79.079.667.013 1.217-.228 1.798a3.844 3.844 0 0 1-1.16 1.508c-.45.36-1.062.641-1.655.799-.684.184-1.35.215-2.085.117-.425-.057-.793.405-.793.79 0 .474.368.734.793.791h-.003zm6.748-13.31a.792.792 0 0 1-.758-1.024c1.765-5.679-.685-9.728-.71-9.769a.79.79 0 0 1 .254-1.087.795.795 0 0 1 1.09.249c.117.187 2.868 4.672.878 11.075a.793.793 0 0 1-.758.556h.004zm3.549-2.272a.79.79 0 0 1-.757-1.024c.967-3.11-.317-5.256-.374-5.345a.792.792 0 0 1 1.344-.837c.069.113 1.73 2.819.542 6.65a.794.794 0 0 1-.758.556h.003zm-24.439 61.865a.797.797 0 0 1-.646-.332l-7.687-10.79a.79.79 0 0 1 .187-1.103.795.795 0 0 1 1.107.187l7.686 10.79a.79.79 0 0 1-.647 1.248zM347.382 496H227.635c-.168 0-.305-.465-.305-1.038 0-.572.137-1.037.305-1.037h119.747c.169 0 .306.465.306 1.037 0 .573-.137 1.038-.306 1.038zm-180.688-31.783h-34.96c-10.881 0-19.734-8.827-19.734-19.678v-34.861c0-10.85 8.853-19.678 19.734-19.678h34.96c10.881 0 19.734 8.828 19.734 19.678v34.861c0 10.851-8.853 19.678-19.734 19.678zm-34.96-72.634c-10.007 0-18.149 8.12-18.149 18.098v34.861c0 9.978 8.142 18.098 18.149 18.098h34.96c10.006 0 18.149-8.12 18.149-18.098v-34.861c0-9.978-8.143-18.098-18.149-18.098h-34.96z"/><path fill="#FED67A" d="M165.585 421.856c0-9.018-7.331-16.325-16.37-16.325-9.04 0-16.371 7.311-16.371 16.325 0 3.998 1.442 7.661 3.835 10.499l12.539 16.337 12.317-16.081a16.24 16.24 0 0 0 4.054-10.752l-.004-.003zm-16.37-6.224c3.448 0 6.24 2.788 6.24 6.224 0 3.435-2.795 6.223-6.24 6.223-3.446 0-6.241-2.788-6.241-6.223 0-3.436 2.795-6.224 6.241-6.224zm-99.359 8.052c11.203-11.172 11.203-29.285 0-40.456-11.203-11.172-29.367-11.172-40.57 0-11.204 11.171-11.204 29.284 0 40.456 11.203 11.171 29.367 11.171 40.57 0z"/><path fill="#fff" d="M31.562 413.917h-7.414a3.094 3.094 0 0 1-3.093-3.085v-1.58h4.402v.275h6.105a2.127 2.127 0 0 0 2.127-2.121c0-.762-.622-1.381-1.386-1.381H26.84c-3.188 0-5.784-2.589-5.784-5.772v-.79c0-3.593 2.928-6.514 6.529-6.514h7.414a3.094 3.094 0 0 1 3.093 3.085v1.795H33.69v-.49h-6.105a2.13 2.13 0 0 0-2.127 2.124v.79c0 .762.621 1.382 1.385 1.382h5.465c3.188 0 5.784 2.588 5.784 5.771 0 3.59-2.929 6.511-6.53 6.511z"/><path fill="#fff" d="M31.774 412.463H27.37v4.766h4.403v-4.766zm0-22.785H27.37v5.215h4.403v-5.215z"/></g></svg>